<svg
  xmlns="http://www.w3.org/2000/svg"
  width="800" height="200"
  viewBox="0 0 800 200"
  role="img"
  aria-label="Ansh Yadav's GitHub contribution graph"
>
  <defs>
    
  <linearGradient id="area-sx43s" x1="0" y1="0" x2="0" y2="1">
    <stop offset="0%"   stop-color="rgba(121,192,255,0.25)"/>
    <stop offset="100%" stop-color="rgba(121,192,255,0)"/>
  </linearGradient>
    
  </defs>

  <!-- Background -->
  <rect width="800" height="200" rx="6" fill="#010409"/>

  
  <text x="40" y="32" font-size="14" font-weight="600" fill="#f0f6fc"
        font-family="-apple-system,BlinkMacSystemFont,'Segoe UI',sans-serif" >
    Ansh Yadav's Contributions
  </text>
  
  <line x1="40" y1="76.0" x2="780" y2="76.0"
        stroke="rgba(240,246,252,0.1)" stroke-width="1" stroke-dasharray="3,4"/>
  <text x="36" y="80.0" font-size="9" fill="#b3b3b3"
        font-family="-apple-system,BlinkMacSystemFont,'Segoe UI',sans-serif" text-anchor="end">5</text>
  <line x1="40" y1="100.0" x2="780" y2="100.0"
        stroke="rgba(240,246,252,0.1)" stroke-width="1" stroke-dasharray="3,4"/>
  <text x="36" y="104.0" font-size="9" fill="#b3b3b3"
        font-family="-apple-system,BlinkMacSystemFont,'Segoe UI',sans-serif" text-anchor="end">3</text>
  <line x1="40" y1="124.0" x2="780" y2="124.0"
        stroke="rgba(240,246,252,0.1)" stroke-width="1" stroke-dasharray="3,4"/>
  <text x="36" y="128.0" font-size="9" fill="#b3b3b3"
        font-family="-apple-system,BlinkMacSystemFont,'Segoe UI',sans-serif" text-anchor="end">2</text>
  <line x1="40" y1="148.0" x2="780" y2="148.0"
        stroke="rgba(240,246,252,0.1)" stroke-width="1" stroke-dasharray="3,4"/>
  <text x="36" y="152.0" font-size="9" fill="#b3b3b3"
        font-family="-apple-system,BlinkMacSystemFont,'Segoe UI',sans-serif" text-anchor="end">0</text>
  
  <line x1="40" y1="148" x2="780" y2="148"
        stroke="rgba(240,246,252,0.1)" stroke-width="1"/>

  <!-- Area fill -->
  <path d="M 40.0,52.0 C 44.1,52.5 56.4,52.1 64.7,55.2 C 72.9,58.3 81.1,66.2 89.3,70.7 C 97.6,75.1 105.8,79.9 114.0,81.7 C 122.2,83.6 130.4,81.7 138.7,81.7 C 146.9,81.7 155.1,82.1 163.3,81.7 C 171.6,81.3 179.8,70.7 188.0,79.4 C 196.2,88.2 204.4,123.2 212.7,134.3 C 220.9,145.3 229.1,144.2 237.3,145.7 C 245.6,147.2 253.8,143.8 262.0,143.4 C 270.2,143.0 278.4,143.4 286.7,143.4 C 294.9,143.4 303.1,143.4 311.3,143.4 C 319.6,143.4 327.8,143.0 336.0,143.4 C 344.2,143.8 352.4,145.3 360.7,145.7 C 368.9,146.1 377.1,145.7 385.3,145.7 C 393.6,145.7 401.8,145.3 410.0,145.7 C 418.2,146.1 426.4,147.6 434.7,148.0 C 442.9,148.4 451.1,148.0 459.3,148.0 C 467.6,148.0 475.8,148.0 484.0,148.0 C 492.2,148.0 500.4,148.0 508.7,148.0 C 516.9,148.0 525.1,148.0 533.3,148.0 C 541.6,148.0 549.8,148.0 558.0,148.0 C 566.2,148.0 574.4,148.8 582.7,148.0 C 590.9,147.2 599.1,144.2 607.3,143.4 C 615.6,142.7 623.8,143.4 632.0,143.4 C 640.2,143.4 648.4,143.4 656.7,143.4 C 664.9,143.4 673.1,143.4 681.3,143.4 C 689.6,143.4 697.8,143.6 706.0,143.4 C 714.2,143.3 722.4,143.0 730.7,142.7 C 738.9,142.4 747.1,140.7 755.3,141.6 C 763.6,142.5 775.9,146.9 780.0,148.0 L 780.0,148 L 40.0,148 Z" fill="url(#area-sx43s)"/>

  <!-- Line -->
  <path d="M 40.0,52.0 C 44.1,52.5 56.4,52.1 64.7,55.2 C 72.9,58.3 81.1,66.2 89.3,70.7 C 97.6,75.1 105.8,79.9 114.0,81.7 C 122.2,83.6 130.4,81.7 138.7,81.7 C 146.9,81.7 155.1,82.1 163.3,81.7 C 171.6,81.3 179.8,70.7 188.0,79.4 C 196.2,88.2 204.4,123.2 212.7,134.3 C 220.9,145.3 229.1,144.2 237.3,145.7 C 245.6,147.2 253.8,143.8 262.0,143.4 C 270.2,143.0 278.4,143.4 286.7,143.4 C 294.9,143.4 303.1,143.4 311.3,143.4 C 319.6,143.4 327.8,143.0 336.0,143.4 C 344.2,143.8 352.4,145.3 360.7,145.7 C 368.9,146.1 377.1,145.7 385.3,145.7 C 393.6,145.7 401.8,145.3 410.0,145.7 C 418.2,146.1 426.4,147.6 434.7,148.0 C 442.9,148.4 451.1,148.0 459.3,148.0 C 467.6,148.0 475.8,148.0 484.0,148.0 C 492.2,148.0 500.4,148.0 508.7,148.0 C 516.9,148.0 525.1,148.0 533.3,148.0 C 541.6,148.0 549.8,148.0 558.0,148.0 C 566.2,148.0 574.4,148.8 582.7,148.0 C 590.9,147.2 599.1,144.2 607.3,143.4 C 615.6,142.7 623.8,143.4 632.0,143.4 C 640.2,143.4 648.4,143.4 656.7,143.4 C 664.9,143.4 673.1,143.4 681.3,143.4 C 689.6,143.4 697.8,143.6 706.0,143.4 C 714.2,143.3 722.4,143.0 730.7,142.7 C 738.9,142.4 747.1,140.7 755.3,141.6 C 763.6,142.5 775.9,146.9 780.0,148.0" fill="none"
        stroke="#79c0ff" stroke-width="2"
        stroke-linejoin="round" stroke-linecap="round"
        />

  <!-- Peak dots -->
  
  <circle cx="138.7" cy="81.7" r="3"
          fill="#79c0ff" >
    <title>5 contributions on Sat, Jun 27, 2026</title>
  </circle>
  <circle cx="188.0" cy="79.4" r="3"
          fill="#79c0ff" >
    <title>0 contributions on Mon, Jun 29, 2026</title>
  </circle>

  
  <text x="40.0" y="162"
        font-size="10" fill="#b3b3b3"
        font-family="-apple-system,BlinkMacSystemFont,'Segoe UI',sans-serif">Jun</text>
  <text x="237.3" y="162"
        font-size="10" fill="#b3b3b3"
        font-family="-apple-system,BlinkMacSystemFont,'Segoe UI',sans-serif">Jul</text>
  
  <text x="40" y="178"
        font-size="11" font-weight="600" fill="#79c0ff"
        font-family="-apple-system,BlinkMacSystemFont,'Segoe UI',sans-serif">
    33 contributions
  </text>
  <text x="40" y="193"
        font-size="10" fill="#b3b3b3"
        font-family="-apple-system,BlinkMacSystemFont,'Segoe UI',sans-serif">
    30 commits · 0 PRs · 0 issues · 0 reviews
  </text>
  <text x="780" y="193"
        font-size="10" fill="#b3b3b3" text-anchor="end"
        font-family="-apple-system,BlinkMacSystemFont,'Segoe UI',sans-serif">
    Updated Jul 23, 2026
  </text>
</svg>