<svg
  xmlns="http://www.w3.org/2000/svg"
  width="800" height="200"
  viewBox="0 0 800 200"
  role="img"
  aria-label="Ansh Yadav's GitHub contribution graph"
>
  <defs>
    
  <linearGradient id="area-tx1cz" x1="0" y1="0" x2="0" y2="1">
    <stop offset="0%"   stop-color="rgba(121,192,255,0.25)"/>
    <stop offset="100%" stop-color="rgba(121,192,255,0)"/>
  </linearGradient>
    
  </defs>

  <!-- Background -->
  <rect width="800" height="200" rx="6" fill="#010409"/>

  
  <text x="40" y="32" font-size="14" font-weight="600" fill="#f0f6fc"
        font-family="-apple-system,BlinkMacSystemFont,'Segoe UI',sans-serif" >
    Ansh Yadav's Contributions
  </text>
  
  <line x1="40" y1="76.0" x2="780" y2="76.0"
        stroke="rgba(240,246,252,0.1)" stroke-width="1" stroke-dasharray="3,4"/>
  <text x="36" y="80.0" font-size="9" fill="#b3b3b3"
        font-family="-apple-system,BlinkMacSystemFont,'Segoe UI',sans-serif" text-anchor="end">1</text>
  <line x1="40" y1="100.0" x2="780" y2="100.0"
        stroke="rgba(240,246,252,0.1)" stroke-width="1" stroke-dasharray="3,4"/>
  <text x="36" y="104.0" font-size="9" fill="#b3b3b3"
        font-family="-apple-system,BlinkMacSystemFont,'Segoe UI',sans-serif" text-anchor="end">1</text>
  <line x1="40" y1="124.0" x2="780" y2="124.0"
        stroke="rgba(240,246,252,0.1)" stroke-width="1" stroke-dasharray="3,4"/>
  <text x="36" y="128.0" font-size="9" fill="#b3b3b3"
        font-family="-apple-system,BlinkMacSystemFont,'Segoe UI',sans-serif" text-anchor="end">0</text>
  <line x1="40" y1="148.0" x2="780" y2="148.0"
        stroke="rgba(240,246,252,0.1)" stroke-width="1" stroke-dasharray="3,4"/>
  <text x="36" y="152.0" font-size="9" fill="#b3b3b3"
        font-family="-apple-system,BlinkMacSystemFont,'Segoe UI',sans-serif" text-anchor="end">0</text>
  
  <line x1="40" y1="148" x2="780" y2="148"
        stroke="rgba(240,246,252,0.1)" stroke-width="1"/>

  <!-- Area fill -->
  <path d="M 40.0,57.5 C 44.1,60.6 56.4,70.6 64.7,75.6 C 72.9,80.7 81.1,85.5 89.3,87.7 C 97.6,89.9 105.8,89.9 114.0,88.9 C 122.2,87.9 130.4,82.8 138.7,81.5 C 146.9,80.3 155.1,86.5 163.3,81.5 C 171.6,76.6 179.8,55.7 188.0,52.0 C 196.2,48.3 204.4,58.2 212.7,59.4 C 220.9,60.6 229.1,59.4 237.3,59.4 C 245.6,59.4 253.8,58.2 262.0,59.4 C 270.2,60.6 278.4,68.0 286.7,66.8 C 294.9,65.5 303.1,54.5 311.3,52.0 C 319.6,49.5 327.8,43.4 336.0,52.0 C 344.2,60.6 352.4,91.4 360.7,103.7 C 368.9,116.0 377.1,122.2 385.3,125.8 C 393.6,129.5 401.8,125.8 410.0,125.8 C 418.2,125.8 426.4,125.8 434.7,125.8 C 442.9,125.8 451.1,122.2 459.3,125.8 C 467.6,129.5 475.8,144.3 484.0,148.0 C 492.2,151.7 500.4,154.2 508.7,148.0 C 516.9,141.8 525.1,118.5 533.3,111.1 C 541.6,103.7 549.8,108.6 558.0,103.7 C 566.2,98.8 574.4,86.5 582.7,81.5 C 590.9,76.6 599.1,75.4 607.3,74.2 C 615.6,72.9 623.8,74.2 632.0,74.2 C 640.2,74.2 648.4,74.2 656.7,74.2 C 664.9,74.2 673.1,68.0 681.3,74.2 C 689.6,80.3 697.8,104.5 706.0,111.1 C 714.2,117.6 722.4,109.1 730.7,113.5 C 738.9,118.0 747.1,131.9 755.3,137.7 C 763.6,143.4 775.9,146.3 780.0,148.0 L 780.0,148 L 40.0,148 Z" fill="url(#area-tx1cz)"/>

  <!-- Line -->
  <path d="M 40.0,57.5 C 44.1,60.6 56.4,70.6 64.7,75.6 C 72.9,80.7 81.1,85.5 89.3,87.7 C 97.6,89.9 105.8,89.9 114.0,88.9 C 122.2,87.9 130.4,82.8 138.7,81.5 C 146.9,80.3 155.1,86.5 163.3,81.5 C 171.6,76.6 179.8,55.7 188.0,52.0 C 196.2,48.3 204.4,58.2 212.7,59.4 C 220.9,60.6 229.1,59.4 237.3,59.4 C 245.6,59.4 253.8,58.2 262.0,59.4 C 270.2,60.6 278.4,68.0 286.7,66.8 C 294.9,65.5 303.1,54.5 311.3,52.0 C 319.6,49.5 327.8,43.4 336.0,52.0 C 344.2,60.6 352.4,91.4 360.7,103.7 C 368.9,116.0 377.1,122.2 385.3,125.8 C 393.6,129.5 401.8,125.8 410.0,125.8 C 418.2,125.8 426.4,125.8 434.7,125.8 C 442.9,125.8 451.1,122.2 459.3,125.8 C 467.6,129.5 475.8,144.3 484.0,148.0 C 492.2,151.7 500.4,154.2 508.7,148.0 C 516.9,141.8 525.1,118.5 533.3,111.1 C 541.6,103.7 549.8,108.6 558.0,103.7 C 566.2,98.8 574.4,86.5 582.7,81.5 C 590.9,76.6 599.1,75.4 607.3,74.2 C 615.6,72.9 623.8,74.2 632.0,74.2 C 640.2,74.2 648.4,74.2 656.7,74.2 C 664.9,74.2 673.1,68.0 681.3,74.2 C 689.6,80.3 697.8,104.5 706.0,111.1 C 714.2,117.6 722.4,109.1 730.7,113.5 C 738.9,118.0 747.1,131.9 755.3,137.7 C 763.6,143.4 775.9,146.3 780.0,148.0" fill="none"
        stroke="#79c0ff" stroke-width="2"
        stroke-linejoin="round" stroke-linecap="round"
        />

  <!-- Peak dots -->
  
  <circle cx="262.0" cy="59.4" r="3"
          fill="#79c0ff" >
    <title>7 contributions on Wed, Aug 12, 2026</title>
  </circle>
  <circle cx="607.3" cy="74.2" r="3"
          fill="#79c0ff" >
    <title>5 contributions on Wed, Aug 26, 2026</title>
  </circle>
  <circle cx="656.7" cy="74.2" r="3"
          fill="#79c0ff" >
    <title>3 contributions on Fri, Aug 28, 2026</title>
  </circle>
  <circle cx="188.0" cy="52.0" r="3"
          fill="#79c0ff" >
    <title>1 contributions on Sun, Aug 9, 2026</title>
  </circle>
  <circle cx="632.0" cy="74.2" r="3"
          fill="#79c0ff" >
    <title>1 contributions on Thu, Aug 27, 2026</title>
  </circle>
  <circle cx="681.3" cy="74.2" r="3"
          fill="#79c0ff" >
    <title>1 contributions on Sat, Aug 29, 2026</title>
  </circle>
  <circle cx="138.7" cy="81.5" r="3"
          fill="#79c0ff" >
    <title>0 contributions on Fri, Aug 7, 2026</title>
  </circle>
  <circle cx="237.3" cy="59.4" r="3"
          fill="#79c0ff" >
    <title>0 contributions on Tue, Aug 11, 2026</title>
  </circle>
  <circle cx="311.3" cy="52.0" r="3"
          fill="#79c0ff" >
    <title>0 contributions on Fri, Aug 14, 2026</title>
  </circle>
  <circle cx="336.0" cy="52.0" r="3"
          fill="#79c0ff" >
    <title>0 contributions on Sat, Aug 15, 2026</title>
  </circle>

  
  <text x="40.0" y="162"
        font-size="10" fill="#b3b3b3"
        font-family="-apple-system,BlinkMacSystemFont,'Segoe UI',sans-serif">Aug</text>
  <text x="755.3" y="162"
        font-size="10" fill="#b3b3b3"
        font-family="-apple-system,BlinkMacSystemFont,'Segoe UI',sans-serif">Sep</text>
  
  <text x="40" y="178"
        font-size="11" font-weight="600" fill="#79c0ff"
        font-family="-apple-system,BlinkMacSystemFont,'Segoe UI',sans-serif">
    32 contributions
  </text>
  <text x="40" y="193"
        font-size="10" fill="#b3b3b3"
        font-family="-apple-system,BlinkMacSystemFont,'Segoe UI',sans-serif">
    28 commits · 0 PRs · 0 issues · 0 reviews
  </text>
  <text x="780" y="193"
        font-size="10" fill="#b3b3b3" text-anchor="end"
        font-family="-apple-system,BlinkMacSystemFont,'Segoe UI',sans-serif">
    Updated Sep 2, 2026
  </text>
</svg>