<svg
  xmlns="http://www.w3.org/2000/svg"
  width="800" height="200"
  viewBox="0 0 800 200"
  role="img"
  aria-label="Ansh Yadav's GitHub contribution graph"
>
  <defs>
    
  <linearGradient id="area-cgcq7" x1="0" y1="0" x2="0" y2="1">
    <stop offset="0%"   stop-color="rgba(88,166,255,0.25)"/>
    <stop offset="100%" stop-color="rgba(88,166,255,0)"/>
  </linearGradient>
    
  </defs>

  <!-- Background -->
  <rect width="800" height="200" rx="6" fill="#0d1117"/>

  
  <text x="40" y="32" font-size="14" font-weight="600" fill="#e6edf3"
        font-family="-apple-system,BlinkMacSystemFont,'Segoe UI',sans-serif" >
    Ansh Yadav's Contributions
  </text>
  
  <line x1="40" y1="76.0" x2="780" y2="76.0"
        stroke="rgba(240,246,252,0.06)" stroke-width="1" stroke-dasharray="3,4"/>
  <text x="36" y="80.0" font-size="9" fill="#7d8590"
        font-family="-apple-system,BlinkMacSystemFont,'Segoe UI',sans-serif" text-anchor="end">3</text>
  <line x1="40" y1="100.0" x2="780" y2="100.0"
        stroke="rgba(240,246,252,0.06)" stroke-width="1" stroke-dasharray="3,4"/>
  <text x="36" y="104.0" font-size="9" fill="#7d8590"
        font-family="-apple-system,BlinkMacSystemFont,'Segoe UI',sans-serif" text-anchor="end">2</text>
  <line x1="40" y1="124.0" x2="780" y2="124.0"
        stroke="rgba(240,246,252,0.06)" stroke-width="1" stroke-dasharray="3,4"/>
  <text x="36" y="128.0" font-size="9" fill="#7d8590"
        font-family="-apple-system,BlinkMacSystemFont,'Segoe UI',sans-serif" text-anchor="end">1</text>
  <line x1="40" y1="148.0" x2="780" y2="148.0"
        stroke="rgba(240,246,252,0.06)" stroke-width="1" stroke-dasharray="3,4"/>
  <text x="36" y="152.0" font-size="9" fill="#7d8590"
        font-family="-apple-system,BlinkMacSystemFont,'Segoe UI',sans-serif" text-anchor="end">0</text>
  
  <line x1="40" y1="148" x2="780" y2="148"
        stroke="rgba(240,246,252,0.06)" stroke-width="1"/>

  <!-- Area fill -->
  <path d="M 40.0,125.6 C 44.1,126.3 56.4,128.8 64.7,130.1 C 72.9,131.3 81.1,145.0 89.3,133.1 C 97.6,121.1 105.8,71.9 114.0,58.4 C 122.2,44.9 130.4,52.5 138.7,52.0 C 146.9,51.5 155.1,54.7 163.3,55.2 C 171.6,55.7 179.8,55.2 188.0,55.2 C 196.2,55.2 204.4,55.2 212.7,55.2 C 220.9,55.2 229.1,55.7 237.3,55.2 C 245.6,54.7 253.8,39.7 262.0,52.0 C 270.2,64.3 278.4,113.3 286.7,128.8 C 294.9,144.3 303.1,142.7 311.3,144.8 C 319.6,146.9 327.8,142.1 336.0,141.6 C 344.2,141.1 352.4,141.6 360.7,141.6 C 368.9,141.6 377.1,141.6 385.3,141.6 C 393.6,141.6 401.8,141.1 410.0,141.6 C 418.2,142.1 426.4,144.3 434.7,144.8 C 442.9,145.3 451.1,144.8 459.3,144.8 C 467.6,144.8 475.8,144.3 484.0,144.8 C 492.2,145.3 500.4,147.5 508.7,148.0 C 516.9,148.5 525.1,148.0 533.3,148.0 C 541.6,148.0 549.8,148.0 558.0,148.0 C 566.2,148.0 574.4,148.0 582.7,148.0 C 590.9,148.0 599.1,148.0 607.3,148.0 C 615.6,148.0 623.8,148.0 632.0,148.0 C 640.2,148.0 648.4,149.1 656.7,148.0 C 664.9,146.9 673.1,142.7 681.3,141.6 C 689.6,140.5 697.8,141.8 706.0,141.6 C 714.2,141.4 722.4,141.0 730.7,140.5 C 738.9,140.1 747.1,139.7 755.3,139.0 C 763.6,138.4 775.9,137.2 780.0,136.8 L 780.0,148 L 40.0,148 Z" fill="url(#area-cgcq7)"/>

  <!-- Line -->
  <path d="M 40.0,125.6 C 44.1,126.3 56.4,128.8 64.7,130.1 C 72.9,131.3 81.1,145.0 89.3,133.1 C 97.6,121.1 105.8,71.9 114.0,58.4 C 122.2,44.9 130.4,52.5 138.7,52.0 C 146.9,51.5 155.1,54.7 163.3,55.2 C 171.6,55.7 179.8,55.2 188.0,55.2 C 196.2,55.2 204.4,55.2 212.7,55.2 C 220.9,55.2 229.1,55.7 237.3,55.2 C 245.6,54.7 253.8,39.7 262.0,52.0 C 270.2,64.3 278.4,113.3 286.7,128.8 C 294.9,144.3 303.1,142.7 311.3,144.8 C 319.6,146.9 327.8,142.1 336.0,141.6 C 344.2,141.1 352.4,141.6 360.7,141.6 C 368.9,141.6 377.1,141.6 385.3,141.6 C 393.6,141.6 401.8,141.1 410.0,141.6 C 418.2,142.1 426.4,144.3 434.7,144.8 C 442.9,145.3 451.1,144.8 459.3,144.8 C 467.6,144.8 475.8,144.3 484.0,144.8 C 492.2,145.3 500.4,147.5 508.7,148.0 C 516.9,148.5 525.1,148.0 533.3,148.0 C 541.6,148.0 549.8,148.0 558.0,148.0 C 566.2,148.0 574.4,148.0 582.7,148.0 C 590.9,148.0 599.1,148.0 607.3,148.0 C 615.6,148.0 623.8,148.0 632.0,148.0 C 640.2,148.0 648.4,149.1 656.7,148.0 C 664.9,146.9 673.1,142.7 681.3,141.6 C 689.6,140.5 697.8,141.8 706.0,141.6 C 714.2,141.4 722.4,141.0 730.7,140.5 C 738.9,140.1 747.1,139.7 755.3,139.0 C 763.6,138.4 775.9,137.2 780.0,136.8" fill="none"
        stroke="#58a6ff" stroke-width="2"
        stroke-linejoin="round" stroke-linecap="round"
        />

  <!-- Peak dots -->
  
  <circle cx="188.0" cy="55.2" r="3"
          fill="#58a6ff" >
    <title>24 contributions on Fri, Jun 26, 2026</title>
  </circle>
  <circle cx="212.7" cy="55.2" r="3"
          fill="#58a6ff" >
    <title>5 contributions on Sat, Jun 27, 2026</title>
  </circle>
  <circle cx="138.7" cy="52.0" r="3"
          fill="#58a6ff" >
    <title>0 contributions on Wed, Jun 24, 2026</title>
  </circle>
  <circle cx="262.0" cy="52.0" r="3"
          fill="#58a6ff" >
    <title>0 contributions on Mon, Jun 29, 2026</title>
  </circle>

  
  <text x="40.0" y="162"
        font-size="10" fill="#7d8590"
        font-family="-apple-system,BlinkMacSystemFont,'Segoe UI',sans-serif">Jun</text>
  <text x="311.3" y="162"
        font-size="10" fill="#7d8590"
        font-family="-apple-system,BlinkMacSystemFont,'Segoe UI',sans-serif">Jul</text>
  
  <text x="40" y="178"
        font-size="11" font-weight="600" fill="#58a6ff"
        font-family="-apple-system,BlinkMacSystemFont,'Segoe UI',sans-serif">
    37 contributions
  </text>
  <text x="40" y="193"
        font-size="10" fill="#7d8590"
        font-family="-apple-system,BlinkMacSystemFont,'Segoe UI',sans-serif">
    34 commits · 0 PRs · 0 issues · 0 reviews
  </text>
  <text x="780" y="193"
        font-size="10" fill="#7d8590" text-anchor="end"
        font-family="-apple-system,BlinkMacSystemFont,'Segoe UI',sans-serif">
    Updated Jul 20, 2026
  </text>
</svg>