<svg
  xmlns="http://www.w3.org/2000/svg"
  width="800" height="200"
  viewBox="0 0 800 200"
  role="img"
  aria-label="Ansh Yadav's GitHub contribution graph"
>
  <defs>
    
  <linearGradient id="area-0xra7" x1="0" y1="0" x2="0" y2="1">
    <stop offset="0%"   stop-color="rgba(88,166,255,0.25)"/>
    <stop offset="100%" stop-color="rgba(88,166,255,0)"/>
  </linearGradient>
    
  </defs>

  <!-- Background -->
  <rect width="800" height="200" rx="6" fill="#0d1117"/>

  
  <text x="40" y="32" font-size="14" font-weight="600" fill="#e6edf3"
        font-family="-apple-system,BlinkMacSystemFont,'Segoe UI',sans-serif" >
    Ansh Yadav's Contributions
  </text>
  
  <line x1="40" y1="76.0" x2="780" y2="76.0"
        stroke="rgba(240,246,252,0.06)" stroke-width="1" stroke-dasharray="3,4"/>
  <text x="36" y="80.0" font-size="9" fill="#7d8590"
        font-family="-apple-system,BlinkMacSystemFont,'Segoe UI',sans-serif" text-anchor="end">8</text>
  <line x1="40" y1="100.0" x2="780" y2="100.0"
        stroke="rgba(240,246,252,0.06)" stroke-width="1" stroke-dasharray="3,4"/>
  <text x="36" y="104.0" font-size="9" fill="#7d8590"
        font-family="-apple-system,BlinkMacSystemFont,'Segoe UI',sans-serif" text-anchor="end">5</text>
  <line x1="40" y1="124.0" x2="780" y2="124.0"
        stroke="rgba(240,246,252,0.06)" stroke-width="1" stroke-dasharray="3,4"/>
  <text x="36" y="128.0" font-size="9" fill="#7d8590"
        font-family="-apple-system,BlinkMacSystemFont,'Segoe UI',sans-serif" text-anchor="end">3</text>
  <line x1="40" y1="148.0" x2="780" y2="148.0"
        stroke="rgba(240,246,252,0.06)" stroke-width="1" stroke-dasharray="3,4"/>
  <text x="36" y="152.0" font-size="9" fill="#7d8590"
        font-family="-apple-system,BlinkMacSystemFont,'Segoe UI',sans-serif" text-anchor="end">0</text>
  
  <line x1="40" y1="148" x2="780" y2="148"
        stroke="rgba(240,246,252,0.06)" stroke-width="1"/>

  <!-- Area fill -->
  <path d="M 40.0,148.0 C 44.1,148.0 56.4,148.0 64.7,148.0 C 72.9,148.0 81.1,148.7 89.3,148.0 C 97.6,147.3 105.8,146.0 114.0,144.1 C 122.2,142.1 130.4,150.6 138.7,136.2 C 146.9,121.7 155.1,71.1 163.3,57.3 C 171.6,43.5 179.8,54.2 188.0,53.3 C 196.2,52.4 204.4,52.2 212.7,52.0 C 220.9,51.8 229.1,52.0 237.3,52.0 C 245.6,52.0 253.8,51.3 262.0,52.0 C 270.2,52.7 278.4,54.0 286.7,55.9 C 294.9,57.9 303.1,54.6 311.3,63.8 C 319.6,73.0 327.8,103.7 336.0,111.2 C 344.2,118.6 352.4,108.8 360.7,108.5 C 368.9,108.3 377.1,109.6 385.3,109.9 C 393.6,110.1 401.8,109.9 410.0,109.9 C 418.2,109.9 426.4,109.9 434.7,109.9 C 442.9,109.9 451.1,110.1 459.3,109.9 C 467.6,109.6 475.8,103.5 484.0,108.5 C 492.2,113.6 500.4,133.8 508.7,140.1 C 516.9,146.5 525.1,145.8 533.3,146.7 C 541.6,147.6 549.8,145.6 558.0,145.4 C 566.2,145.2 574.4,145.4 582.7,145.4 C 590.9,145.4 599.1,145.4 607.3,145.4 C 615.6,145.4 623.8,145.2 632.0,145.4 C 640.2,145.6 648.4,146.5 656.7,146.7 C 664.9,146.9 673.1,146.7 681.3,146.7 C 689.6,146.7 697.8,146.5 706.0,146.7 C 714.2,146.9 722.4,147.8 730.7,148.0 C 738.9,148.2 747.1,148.0 755.3,148.0 C 763.6,148.0 775.9,148.0 780.0,148.0 L 780.0,148 L 40.0,148 Z" fill="url(#area-0xra7)"/>

  <!-- Line -->
  <path d="M 40.0,148.0 C 44.1,148.0 56.4,148.0 64.7,148.0 C 72.9,148.0 81.1,148.7 89.3,148.0 C 97.6,147.3 105.8,146.0 114.0,144.1 C 122.2,142.1 130.4,150.6 138.7,136.2 C 146.9,121.7 155.1,71.1 163.3,57.3 C 171.6,43.5 179.8,54.2 188.0,53.3 C 196.2,52.4 204.4,52.2 212.7,52.0 C 220.9,51.8 229.1,52.0 237.3,52.0 C 245.6,52.0 253.8,51.3 262.0,52.0 C 270.2,52.7 278.4,54.0 286.7,55.9 C 294.9,57.9 303.1,54.6 311.3,63.8 C 319.6,73.0 327.8,103.7 336.0,111.2 C 344.2,118.6 352.4,108.8 360.7,108.5 C 368.9,108.3 377.1,109.6 385.3,109.9 C 393.6,110.1 401.8,109.9 410.0,109.9 C 418.2,109.9 426.4,109.9 434.7,109.9 C 442.9,109.9 451.1,110.1 459.3,109.9 C 467.6,109.6 475.8,103.5 484.0,108.5 C 492.2,113.6 500.4,133.8 508.7,140.1 C 516.9,146.5 525.1,145.8 533.3,146.7 C 541.6,147.6 549.8,145.6 558.0,145.4 C 566.2,145.2 574.4,145.4 582.7,145.4 C 590.9,145.4 599.1,145.4 607.3,145.4 C 615.6,145.4 623.8,145.2 632.0,145.4 C 640.2,145.6 648.4,146.5 656.7,146.7 C 664.9,146.9 673.1,146.7 681.3,146.7 C 689.6,146.7 697.8,146.5 706.0,146.7 C 714.2,146.9 722.4,147.8 730.7,148.0 C 738.9,148.2 747.1,148.0 755.3,148.0 C 763.6,148.0 775.9,148.0 780.0,148.0" fill="none"
        stroke="#58a6ff" stroke-width="2"
        stroke-linejoin="round" stroke-linecap="round"
        />

  <!-- Peak dots -->
  
  <circle cx="237.3" cy="52.0" r="3"
          fill="#58a6ff" >
    <title>60 contributions on Fri, Jun 19, 2026</title>
  </circle>
  <circle cx="212.7" cy="52.0" r="3"
          fill="#58a6ff" >
    <title>6 contributions on Thu, Jun 18, 2026</title>
  </circle>
  <circle cx="262.0" cy="52.0" r="3"
          fill="#58a6ff" >
    <title>3 contributions on Sat, Jun 20, 2026</title>
  </circle>

  
  <text x="40.0" y="162"
        font-size="10" fill="#7d8590"
        font-family="-apple-system,BlinkMacSystemFont,'Segoe UI',sans-serif">Jun</text>
  <text x="533.3" y="162"
        font-size="10" fill="#7d8590"
        font-family="-apple-system,BlinkMacSystemFont,'Segoe UI',sans-serif">Jul</text>
  
  <text x="40" y="178"
        font-size="11" font-weight="600" fill="#58a6ff"
        font-family="-apple-system,BlinkMacSystemFont,'Segoe UI',sans-serif">
    104 contributions
  </text>
  <text x="40" y="193"
        font-size="10" fill="#7d8590"
        font-family="-apple-system,BlinkMacSystemFont,'Segoe UI',sans-serif">
    99 commits · 0 PRs · 0 issues · 0 reviews
  </text>
  <text x="780" y="193"
        font-size="10" fill="#7d8590" text-anchor="end"
        font-family="-apple-system,BlinkMacSystemFont,'Segoe UI',sans-serif">
    Updated Jul 11, 2026
  </text>
</svg>