<svg
  xmlns="http://www.w3.org/2000/svg"
  width="800" height="200"
  viewBox="0 0 800 200"
  role="img"
  aria-label="Ansh Yadav's GitHub contribution graph"
>
  <defs>
    
  <linearGradient id="area-sgeon" x1="0" y1="0" x2="0" y2="1">
    <stop offset="0%"   stop-color="rgba(9,105,218,0.3)"/>
    <stop offset="100%" stop-color="rgba(9,105,218,0)"/>
  </linearGradient>
    
  </defs>

  <!-- Background -->
  <rect width="800" height="200" rx="6" fill="#ffffff"/>

  
  <text x="40" y="32" font-size="14" font-weight="600" fill="#1f2328"
        font-family="-apple-system,BlinkMacSystemFont,'Segoe UI',sans-serif" >
    Ansh Yadav's Contributions
  </text>
  
  <line x1="40" y1="76.0" x2="780" y2="76.0"
        stroke="rgba(27,31,35,0.08)" stroke-width="1" stroke-dasharray="3,4"/>
  <text x="36" y="80.0" font-size="9" fill="#57606a"
        font-family="-apple-system,BlinkMacSystemFont,'Segoe UI',sans-serif" text-anchor="end">8</text>
  <line x1="40" y1="100.0" x2="780" y2="100.0"
        stroke="rgba(27,31,35,0.08)" stroke-width="1" stroke-dasharray="3,4"/>
  <text x="36" y="104.0" font-size="9" fill="#57606a"
        font-family="-apple-system,BlinkMacSystemFont,'Segoe UI',sans-serif" text-anchor="end">5</text>
  <line x1="40" y1="124.0" x2="780" y2="124.0"
        stroke="rgba(27,31,35,0.08)" stroke-width="1" stroke-dasharray="3,4"/>
  <text x="36" y="128.0" font-size="9" fill="#57606a"
        font-family="-apple-system,BlinkMacSystemFont,'Segoe UI',sans-serif" text-anchor="end">3</text>
  <line x1="40" y1="148.0" x2="780" y2="148.0"
        stroke="rgba(27,31,35,0.08)" stroke-width="1" stroke-dasharray="3,4"/>
  <text x="36" y="152.0" font-size="9" fill="#57606a"
        font-family="-apple-system,BlinkMacSystemFont,'Segoe UI',sans-serif" text-anchor="end">0</text>
  
  <line x1="40" y1="148" x2="780" y2="148"
        stroke="rgba(27,31,35,0.08)" stroke-width="1"/>

  <!-- Area fill -->
  <path d="M 40.0,148.0 C 44.1,148.0 56.4,148.0 64.7,148.0 C 72.9,148.0 81.1,148.0 89.3,148.0 C 97.6,148.0 105.8,148.0 114.0,148.0 C 122.2,148.0 130.4,148.0 138.7,148.0 C 146.9,148.0 155.1,148.0 163.3,148.0 C 171.6,148.0 179.8,148.0 188.0,148.0 C 196.2,148.0 204.4,148.0 212.7,148.0 C 220.9,148.0 229.1,148.7 237.3,148.0 C 245.6,147.3 253.8,146.0 262.0,144.1 C 270.2,142.1 278.4,150.6 286.7,136.2 C 294.9,121.7 303.1,71.1 311.3,57.3 C 319.6,43.5 327.8,54.2 336.0,53.3 C 344.2,52.4 352.4,52.2 360.7,52.0 C 368.9,51.8 377.1,52.0 385.3,52.0 C 393.6,52.0 401.8,51.3 410.0,52.0 C 418.2,52.7 426.4,54.0 434.7,55.9 C 442.9,57.9 451.1,54.6 459.3,63.8 C 467.6,73.0 475.8,103.7 484.0,111.2 C 492.2,118.6 500.4,108.8 508.7,108.5 C 516.9,108.3 525.1,109.6 533.3,109.9 C 541.6,110.1 549.8,109.9 558.0,109.9 C 566.2,109.9 574.4,109.9 582.7,109.9 C 590.9,109.9 599.1,110.1 607.3,109.9 C 615.6,109.6 623.8,103.5 632.0,108.5 C 640.2,113.6 648.4,133.8 656.7,140.1 C 664.9,146.5 673.1,145.6 681.3,146.7 C 689.6,147.8 697.8,146.7 706.0,146.7 C 714.2,146.6 722.4,146.6 730.7,146.5 C 738.9,146.4 747.1,146.3 755.3,146.2 C 763.6,146.0 775.9,145.8 780.0,145.7 L 780.0,148 L 40.0,148 Z" fill="url(#area-sgeon)"/>

  <!-- Line -->
  <path d="M 40.0,148.0 C 44.1,148.0 56.4,148.0 64.7,148.0 C 72.9,148.0 81.1,148.0 89.3,148.0 C 97.6,148.0 105.8,148.0 114.0,148.0 C 122.2,148.0 130.4,148.0 138.7,148.0 C 146.9,148.0 155.1,148.0 163.3,148.0 C 171.6,148.0 179.8,148.0 188.0,148.0 C 196.2,148.0 204.4,148.0 212.7,148.0 C 220.9,148.0 229.1,148.7 237.3,148.0 C 245.6,147.3 253.8,146.0 262.0,144.1 C 270.2,142.1 278.4,150.6 286.7,136.2 C 294.9,121.7 303.1,71.1 311.3,57.3 C 319.6,43.5 327.8,54.2 336.0,53.3 C 344.2,52.4 352.4,52.2 360.7,52.0 C 368.9,51.8 377.1,52.0 385.3,52.0 C 393.6,52.0 401.8,51.3 410.0,52.0 C 418.2,52.7 426.4,54.0 434.7,55.9 C 442.9,57.9 451.1,54.6 459.3,63.8 C 467.6,73.0 475.8,103.7 484.0,111.2 C 492.2,118.6 500.4,108.8 508.7,108.5 C 516.9,108.3 525.1,109.6 533.3,109.9 C 541.6,110.1 549.8,109.9 558.0,109.9 C 566.2,109.9 574.4,109.9 582.7,109.9 C 590.9,109.9 599.1,110.1 607.3,109.9 C 615.6,109.6 623.8,103.5 632.0,108.5 C 640.2,113.6 648.4,133.8 656.7,140.1 C 664.9,146.5 673.1,145.6 681.3,146.7 C 689.6,147.8 697.8,146.7 706.0,146.7 C 714.2,146.6 722.4,146.6 730.7,146.5 C 738.9,146.4 747.1,146.3 755.3,146.2 C 763.6,146.0 775.9,145.8 780.0,145.7" fill="none"
        stroke="#0969da" stroke-width="2"
        stroke-linejoin="round" stroke-linecap="round"
        />

  <!-- Peak dots -->
  
  <circle cx="385.3" cy="52.0" r="3"
          fill="#0969da" >
    <title>60 contributions on Fri, Jun 19, 2026</title>
  </circle>
  <circle cx="360.7" cy="52.0" r="3"
          fill="#0969da" >
    <title>6 contributions on Thu, Jun 18, 2026</title>
  </circle>
  <circle cx="410.0" cy="52.0" r="3"
          fill="#0969da" >
    <title>3 contributions on Sat, Jun 20, 2026</title>
  </circle>

  
  <text x="40.0" y="162"
        font-size="10" fill="#57606a"
        font-family="-apple-system,BlinkMacSystemFont,'Segoe UI',sans-serif">Jun</text>
  <text x="681.3" y="162"
        font-size="10" fill="#57606a"
        font-family="-apple-system,BlinkMacSystemFont,'Segoe UI',sans-serif">Jul</text>
  
  <text x="40" y="178"
        font-size="11" font-weight="600" fill="#0969da"
        font-family="-apple-system,BlinkMacSystemFont,'Segoe UI',sans-serif">
    103 contributions
  </text>
  <text x="40" y="193"
        font-size="10" fill="#57606a"
        font-family="-apple-system,BlinkMacSystemFont,'Segoe UI',sans-serif">
    98 commits · 0 PRs · 0 issues · 0 reviews
  </text>
  <text x="780" y="193"
        font-size="10" fill="#57606a" text-anchor="end"
        font-family="-apple-system,BlinkMacSystemFont,'Segoe UI',sans-serif">
    Updated Jul 5, 2026
  </text>
</svg>