<svg
  xmlns="http://www.w3.org/2000/svg"
  width="800" height="200"
  viewBox="0 0 800 200"
  role="img"
  aria-label="Ansh Yadav's GitHub contribution graph"
>
  <defs>
    
  <linearGradient id="area-4ysje" x1="0" y1="0" x2="0" y2="1">
    <stop offset="0%"   stop-color="rgba(88,166,255,0.25)"/>
    <stop offset="100%" stop-color="rgba(88,166,255,0)"/>
  </linearGradient>
    
  </defs>

  <!-- Background -->
  <rect width="800" height="200" rx="6" fill="#0d1117"/>

  
  <text x="40" y="32" font-size="14" font-weight="600" fill="#e6edf3"
        font-family="-apple-system,BlinkMacSystemFont,'Segoe UI',sans-serif" >
    Ansh Yadav's Contributions
  </text>
  
  <line x1="40" y1="76.0" x2="780" y2="76.0"
        stroke="rgba(240,246,252,0.06)" stroke-width="1" stroke-dasharray="3,4"/>
  <text x="36" y="80.0" font-size="9" fill="#7d8590"
        font-family="-apple-system,BlinkMacSystemFont,'Segoe UI',sans-serif" text-anchor="end">13</text>
  <line x1="40" y1="100.0" x2="780" y2="100.0"
        stroke="rgba(240,246,252,0.06)" stroke-width="1" stroke-dasharray="3,4"/>
  <text x="36" y="104.0" font-size="9" fill="#7d8590"
        font-family="-apple-system,BlinkMacSystemFont,'Segoe UI',sans-serif" text-anchor="end">9</text>
  <line x1="40" y1="124.0" x2="780" y2="124.0"
        stroke="rgba(240,246,252,0.06)" stroke-width="1" stroke-dasharray="3,4"/>
  <text x="36" y="128.0" font-size="9" fill="#7d8590"
        font-family="-apple-system,BlinkMacSystemFont,'Segoe UI',sans-serif" text-anchor="end">4</text>
  <line x1="40" y1="148.0" x2="780" y2="148.0"
        stroke="rgba(240,246,252,0.06)" stroke-width="1" stroke-dasharray="3,4"/>
  <text x="36" y="152.0" font-size="9" fill="#7d8590"
        font-family="-apple-system,BlinkMacSystemFont,'Segoe UI',sans-serif" text-anchor="end">0</text>
  
  <line x1="40" y1="148" x2="780" y2="148"
        stroke="rgba(240,246,252,0.06)" stroke-width="1"/>

  <!-- Area fill -->
  <path d="M 40.0,52.0 C 44.1,55.2 56.4,65.9 64.7,71.2 C 72.9,76.5 81.1,80.3 89.3,84.0 C 97.6,87.7 105.8,90.8 114.0,93.1 C 122.2,95.5 130.4,92.4 138.7,97.8 C 146.9,103.3 155.1,121.6 163.3,126.1 C 171.6,130.5 179.8,124.6 188.0,124.5 C 196.2,124.4 204.4,125.1 212.7,125.3 C 220.9,125.4 229.1,125.3 237.3,125.3 C 245.6,125.3 253.8,125.3 262.0,125.3 C 270.2,125.3 278.4,125.4 286.7,125.3 C 294.9,125.1 303.1,121.5 311.3,124.5 C 319.6,127.5 327.8,139.5 336.0,143.3 C 344.2,147.1 352.4,146.7 360.7,147.2 C 368.9,147.7 377.1,146.6 385.3,146.4 C 393.6,146.3 401.8,146.4 410.0,146.4 C 418.2,146.4 426.4,146.4 434.7,146.4 C 442.9,146.4 451.1,146.3 459.3,146.4 C 467.6,146.6 475.8,147.1 484.0,147.2 C 492.2,147.3 500.4,147.2 508.7,147.2 C 516.9,147.2 525.1,147.1 533.3,147.2 C 541.6,147.3 549.8,147.9 558.0,148.0 C 566.2,148.1 574.4,148.0 582.7,148.0 C 590.9,148.0 599.1,148.0 607.3,148.0 C 615.6,148.0 623.8,148.0 632.0,148.0 C 640.2,148.0 648.4,148.0 656.7,148.0 C 664.9,148.0 673.1,148.0 681.3,148.0 C 689.6,148.0 697.8,148.0 706.0,148.0 C 714.2,148.0 722.4,148.0 730.7,148.0 C 738.9,148.0 747.1,148.0 755.3,148.0 C 763.6,148.0 775.9,148.0 780.0,148.0 L 780.0,148 L 40.0,148 Z" fill="url(#area-4ysje)"/>

  <!-- Line -->
  <path d="M 40.0,52.0 C 44.1,55.2 56.4,65.9 64.7,71.2 C 72.9,76.5 81.1,80.3 89.3,84.0 C 97.6,87.7 105.8,90.8 114.0,93.1 C 122.2,95.5 130.4,92.4 138.7,97.8 C 146.9,103.3 155.1,121.6 163.3,126.1 C 171.6,130.5 179.8,124.6 188.0,124.5 C 196.2,124.4 204.4,125.1 212.7,125.3 C 220.9,125.4 229.1,125.3 237.3,125.3 C 245.6,125.3 253.8,125.3 262.0,125.3 C 270.2,125.3 278.4,125.4 286.7,125.3 C 294.9,125.1 303.1,121.5 311.3,124.5 C 319.6,127.5 327.8,139.5 336.0,143.3 C 344.2,147.1 352.4,146.7 360.7,147.2 C 368.9,147.7 377.1,146.6 385.3,146.4 C 393.6,146.3 401.8,146.4 410.0,146.4 C 418.2,146.4 426.4,146.4 434.7,146.4 C 442.9,146.4 451.1,146.3 459.3,146.4 C 467.6,146.6 475.8,147.1 484.0,147.2 C 492.2,147.3 500.4,147.2 508.7,147.2 C 516.9,147.2 525.1,147.1 533.3,147.2 C 541.6,147.3 549.8,147.9 558.0,148.0 C 566.2,148.1 574.4,148.0 582.7,148.0 C 590.9,148.0 599.1,148.0 607.3,148.0 C 615.6,148.0 623.8,148.0 632.0,148.0 C 640.2,148.0 648.4,148.0 656.7,148.0 C 664.9,148.0 673.1,148.0 681.3,148.0 C 689.6,148.0 697.8,148.0 706.0,148.0 C 714.2,148.0 722.4,148.0 730.7,148.0 C 738.9,148.0 747.1,148.0 755.3,148.0 C 763.6,148.0 775.9,148.0 780.0,148.0" fill="none"
        stroke="#58a6ff" stroke-width="2"
        stroke-linejoin="round" stroke-linecap="round"
        />

  <!-- Peak dots -->
  

  
  <text x="40.0" y="162"
        font-size="10" fill="#7d8590"
        font-family="-apple-system,BlinkMacSystemFont,'Segoe UI',sans-serif">Jun</text>
  <text x="360.7" y="162"
        font-size="10" fill="#7d8590"
        font-family="-apple-system,BlinkMacSystemFont,'Segoe UI',sans-serif">Jul</text>
  
  <text x="40" y="178"
        font-size="11" font-weight="600" fill="#58a6ff"
        font-family="-apple-system,BlinkMacSystemFont,'Segoe UI',sans-serif">
    101 contributions
  </text>
  <text x="40" y="193"
        font-size="10" fill="#7d8590"
        font-family="-apple-system,BlinkMacSystemFont,'Segoe UI',sans-serif">
    97 commits · 0 PRs · 0 issues · 0 reviews
  </text>
  <text x="780" y="193"
        font-size="10" fill="#7d8590" text-anchor="end"
        font-family="-apple-system,BlinkMacSystemFont,'Segoe UI',sans-serif">
    Updated Jul 18, 2026
  </text>
</svg>