<svg
  xmlns="http://www.w3.org/2000/svg"
  width="800" height="200"
  viewBox="0 0 800 200"
  role="img"
  aria-label="Ansh Yadav's GitHub contribution graph"
>
  <defs>
    
  <linearGradient id="area-mdixe" x1="0" y1="0" x2="0" y2="1">
    <stop offset="0%"   stop-color="rgba(121,192,255,0.25)"/>
    <stop offset="100%" stop-color="rgba(121,192,255,0)"/>
  </linearGradient>
    
  </defs>

  <!-- Background -->
  <rect width="800" height="200" rx="6" fill="#010409"/>

  
  <text x="40" y="32" font-size="14" font-weight="600" fill="#f0f6fc"
        font-family="-apple-system,BlinkMacSystemFont,'Segoe UI',sans-serif" >
    Ansh Yadav's Contributions
  </text>
  
  <line x1="40" y1="76.0" x2="780" y2="76.0"
        stroke="rgba(240,246,252,0.1)" stroke-width="1" stroke-dasharray="3,4"/>
  <text x="36" y="80.0" font-size="9" fill="#b3b3b3"
        font-family="-apple-system,BlinkMacSystemFont,'Segoe UI',sans-serif" text-anchor="end">8</text>
  <line x1="40" y1="100.0" x2="780" y2="100.0"
        stroke="rgba(240,246,252,0.1)" stroke-width="1" stroke-dasharray="3,4"/>
  <text x="36" y="104.0" font-size="9" fill="#b3b3b3"
        font-family="-apple-system,BlinkMacSystemFont,'Segoe UI',sans-serif" text-anchor="end">5</text>
  <line x1="40" y1="124.0" x2="780" y2="124.0"
        stroke="rgba(240,246,252,0.1)" stroke-width="1" stroke-dasharray="3,4"/>
  <text x="36" y="128.0" font-size="9" fill="#b3b3b3"
        font-family="-apple-system,BlinkMacSystemFont,'Segoe UI',sans-serif" text-anchor="end">3</text>
  <line x1="40" y1="148.0" x2="780" y2="148.0"
        stroke="rgba(240,246,252,0.1)" stroke-width="1" stroke-dasharray="3,4"/>
  <text x="36" y="152.0" font-size="9" fill="#b3b3b3"
        font-family="-apple-system,BlinkMacSystemFont,'Segoe UI',sans-serif" text-anchor="end">0</text>
  
  <line x1="40" y1="148" x2="780" y2="148"
        stroke="rgba(240,246,252,0.1)" stroke-width="1"/>

  <!-- Area fill -->
  <path d="M 40.0,148.0 C 44.1,148.0 56.4,148.0 64.7,148.0 C 72.9,148.0 81.1,148.0 89.3,148.0 C 97.6,148.0 105.8,148.7 114.0,148.0 C 122.2,147.3 130.4,146.0 138.7,144.1 C 146.9,142.1 155.1,150.6 163.3,136.2 C 171.6,121.7 179.8,71.1 188.0,57.3 C 196.2,43.5 204.4,54.2 212.7,53.3 C 220.9,52.4 229.1,52.2 237.3,52.0 C 245.6,51.8 253.8,52.0 262.0,52.0 C 270.2,52.0 278.4,51.3 286.7,52.0 C 294.9,52.7 303.1,54.0 311.3,55.9 C 319.6,57.9 327.8,54.6 336.0,63.8 C 344.2,73.0 352.4,103.7 360.7,111.2 C 368.9,118.6 377.1,108.8 385.3,108.5 C 393.6,108.3 401.8,109.6 410.0,109.9 C 418.2,110.1 426.4,109.9 434.7,109.9 C 442.9,109.9 451.1,109.9 459.3,109.9 C 467.6,109.9 475.8,110.1 484.0,109.9 C 492.2,109.6 500.4,103.5 508.7,108.5 C 516.9,113.6 525.1,133.8 533.3,140.1 C 541.6,146.5 549.8,145.8 558.0,146.7 C 566.2,147.6 574.4,145.6 582.7,145.4 C 590.9,145.2 599.1,145.4 607.3,145.4 C 615.6,145.4 623.8,145.4 632.0,145.4 C 640.2,145.4 648.4,145.2 656.7,145.4 C 664.9,145.6 673.1,146.5 681.3,146.7 C 689.6,146.9 697.8,146.7 706.0,146.7 C 714.2,146.6 722.4,146.2 730.7,146.5 C 738.9,146.7 747.1,147.7 755.3,148.0 C 763.6,148.3 775.9,148.0 780.0,148.0 L 780.0,148 L 40.0,148 Z" fill="url(#area-mdixe)"/>

  <!-- Line -->
  <path d="M 40.0,148.0 C 44.1,148.0 56.4,148.0 64.7,148.0 C 72.9,148.0 81.1,148.0 89.3,148.0 C 97.6,148.0 105.8,148.7 114.0,148.0 C 122.2,147.3 130.4,146.0 138.7,144.1 C 146.9,142.1 155.1,150.6 163.3,136.2 C 171.6,121.7 179.8,71.1 188.0,57.3 C 196.2,43.5 204.4,54.2 212.7,53.3 C 220.9,52.4 229.1,52.2 237.3,52.0 C 245.6,51.8 253.8,52.0 262.0,52.0 C 270.2,52.0 278.4,51.3 286.7,52.0 C 294.9,52.7 303.1,54.0 311.3,55.9 C 319.6,57.9 327.8,54.6 336.0,63.8 C 344.2,73.0 352.4,103.7 360.7,111.2 C 368.9,118.6 377.1,108.8 385.3,108.5 C 393.6,108.3 401.8,109.6 410.0,109.9 C 418.2,110.1 426.4,109.9 434.7,109.9 C 442.9,109.9 451.1,109.9 459.3,109.9 C 467.6,109.9 475.8,110.1 484.0,109.9 C 492.2,109.6 500.4,103.5 508.7,108.5 C 516.9,113.6 525.1,133.8 533.3,140.1 C 541.6,146.5 549.8,145.8 558.0,146.7 C 566.2,147.6 574.4,145.6 582.7,145.4 C 590.9,145.2 599.1,145.4 607.3,145.4 C 615.6,145.4 623.8,145.4 632.0,145.4 C 640.2,145.4 648.4,145.2 656.7,145.4 C 664.9,145.6 673.1,146.5 681.3,146.7 C 689.6,146.9 697.8,146.7 706.0,146.7 C 714.2,146.6 722.4,146.2 730.7,146.5 C 738.9,146.7 747.1,147.7 755.3,148.0 C 763.6,148.3 775.9,148.0 780.0,148.0" fill="none"
        stroke="#79c0ff" stroke-width="2"
        stroke-linejoin="round" stroke-linecap="round"
        />

  <!-- Peak dots -->
  
  <circle cx="262.0" cy="52.0" r="3"
          fill="#79c0ff" >
    <title>60 contributions on Fri, Jun 19, 2026</title>
  </circle>
  <circle cx="237.3" cy="52.0" r="3"
          fill="#79c0ff" >
    <title>6 contributions on Thu, Jun 18, 2026</title>
  </circle>
  <circle cx="286.7" cy="52.0" r="3"
          fill="#79c0ff" >
    <title>3 contributions on Sat, Jun 20, 2026</title>
  </circle>

  
  <text x="40.0" y="162"
        font-size="10" fill="#b3b3b3"
        font-family="-apple-system,BlinkMacSystemFont,'Segoe UI',sans-serif">Jun</text>
  <text x="558.0" y="162"
        font-size="10" fill="#b3b3b3"
        font-family="-apple-system,BlinkMacSystemFont,'Segoe UI',sans-serif">Jul</text>
  
  <text x="40" y="178"
        font-size="11" font-weight="600" fill="#79c0ff"
        font-family="-apple-system,BlinkMacSystemFont,'Segoe UI',sans-serif">
    104 contributions
  </text>
  <text x="40" y="193"
        font-size="10" fill="#b3b3b3"
        font-family="-apple-system,BlinkMacSystemFont,'Segoe UI',sans-serif">
    99 commits · 0 PRs · 0 issues · 0 reviews
  </text>
  <text x="780" y="193"
        font-size="10" fill="#b3b3b3" text-anchor="end"
        font-family="-apple-system,BlinkMacSystemFont,'Segoe UI',sans-serif">
    Updated Jul 10, 2026
  </text>
</svg>