<svg
  xmlns="http://www.w3.org/2000/svg"
  width="800" height="200"
  viewBox="0 0 800 200"
  role="img"
  aria-label="Ansh Yadav's GitHub contribution graph"
>
  <defs>
    
  <linearGradient id="area-i215c" x1="0" y1="0" x2="0" y2="1">
    <stop offset="0%"   stop-color="rgba(9,105,218,0.3)"/>
    <stop offset="100%" stop-color="rgba(9,105,218,0)"/>
  </linearGradient>
    
  </defs>

  <!-- Background -->
  <rect width="800" height="200" rx="6" fill="#ffffff"/>

  
  <text x="40" y="32" font-size="14" font-weight="600" fill="#1f2328"
        font-family="-apple-system,BlinkMacSystemFont,'Segoe UI',sans-serif" >
    Ansh Yadav's Contributions
  </text>
  
  <line x1="40" y1="76.0" x2="780" y2="76.0"
        stroke="rgba(27,31,35,0.08)" stroke-width="1" stroke-dasharray="3,4"/>
  <text x="36" y="80.0" font-size="9" fill="#57606a"
        font-family="-apple-system,BlinkMacSystemFont,'Segoe UI',sans-serif" text-anchor="end">5</text>
  <line x1="40" y1="100.0" x2="780" y2="100.0"
        stroke="rgba(27,31,35,0.08)" stroke-width="1" stroke-dasharray="3,4"/>
  <text x="36" y="104.0" font-size="9" fill="#57606a"
        font-family="-apple-system,BlinkMacSystemFont,'Segoe UI',sans-serif" text-anchor="end">4</text>
  <line x1="40" y1="124.0" x2="780" y2="124.0"
        stroke="rgba(27,31,35,0.08)" stroke-width="1" stroke-dasharray="3,4"/>
  <text x="36" y="128.0" font-size="9" fill="#57606a"
        font-family="-apple-system,BlinkMacSystemFont,'Segoe UI',sans-serif" text-anchor="end">2</text>
  <line x1="40" y1="148.0" x2="780" y2="148.0"
        stroke="rgba(27,31,35,0.08)" stroke-width="1" stroke-dasharray="3,4"/>
  <text x="36" y="152.0" font-size="9" fill="#57606a"
        font-family="-apple-system,BlinkMacSystemFont,'Segoe UI',sans-serif" text-anchor="end">0</text>
  
  <line x1="40" y1="148" x2="780" y2="148"
        stroke="rgba(27,31,35,0.08)" stroke-width="1"/>

  <!-- Area fill -->
  <path d="M 40.0,52.0 C 44.1,55.2 56.4,65.9 64.7,71.2 C 72.9,76.5 81.1,80.3 89.3,84.0 C 97.6,87.7 105.8,91.6 114.0,93.1 C 122.2,94.7 130.4,93.5 138.7,93.1 C 146.9,92.8 155.1,84.0 163.3,91.3 C 171.6,98.5 179.8,127.5 188.0,136.7 C 196.2,145.8 204.4,144.8 212.7,146.1 C 220.9,147.4 229.1,144.5 237.3,144.2 C 245.6,143.9 253.8,144.2 262.0,144.2 C 270.2,144.2 278.4,144.2 286.7,144.2 C 294.9,144.2 303.1,143.9 311.3,144.2 C 319.6,144.5 327.8,145.8 336.0,146.1 C 344.2,146.4 352.4,146.1 360.7,146.1 C 368.9,146.1 377.1,145.8 385.3,146.1 C 393.6,146.4 401.8,147.7 410.0,148.0 C 418.2,148.3 426.4,148.0 434.7,148.0 C 442.9,148.0 451.1,148.0 459.3,148.0 C 467.6,148.0 475.8,148.0 484.0,148.0 C 492.2,148.0 500.4,148.0 508.7,148.0 C 516.9,148.0 525.1,148.0 533.3,148.0 C 541.6,148.0 549.8,148.6 558.0,148.0 C 566.2,147.4 574.4,144.8 582.7,144.2 C 590.9,143.6 599.1,144.2 607.3,144.2 C 615.6,144.2 623.8,144.2 632.0,144.2 C 640.2,144.2 648.4,144.2 656.7,144.2 C 664.9,144.2 673.1,144.2 681.3,144.2 C 689.6,144.2 697.8,144.3 706.0,144.2 C 714.2,144.1 722.4,143.0 730.7,143.6 C 738.9,144.2 747.1,147.3 755.3,148.0 C 763.6,148.7 775.9,148.0 780.0,148.0 L 780.0,148 L 40.0,148 Z" fill="url(#area-i215c)"/>

  <!-- Line -->
  <path d="M 40.0,52.0 C 44.1,55.2 56.4,65.9 64.7,71.2 C 72.9,76.5 81.1,80.3 89.3,84.0 C 97.6,87.7 105.8,91.6 114.0,93.1 C 122.2,94.7 130.4,93.5 138.7,93.1 C 146.9,92.8 155.1,84.0 163.3,91.3 C 171.6,98.5 179.8,127.5 188.0,136.7 C 196.2,145.8 204.4,144.8 212.7,146.1 C 220.9,147.4 229.1,144.5 237.3,144.2 C 245.6,143.9 253.8,144.2 262.0,144.2 C 270.2,144.2 278.4,144.2 286.7,144.2 C 294.9,144.2 303.1,143.9 311.3,144.2 C 319.6,144.5 327.8,145.8 336.0,146.1 C 344.2,146.4 352.4,146.1 360.7,146.1 C 368.9,146.1 377.1,145.8 385.3,146.1 C 393.6,146.4 401.8,147.7 410.0,148.0 C 418.2,148.3 426.4,148.0 434.7,148.0 C 442.9,148.0 451.1,148.0 459.3,148.0 C 467.6,148.0 475.8,148.0 484.0,148.0 C 492.2,148.0 500.4,148.0 508.7,148.0 C 516.9,148.0 525.1,148.0 533.3,148.0 C 541.6,148.0 549.8,148.6 558.0,148.0 C 566.2,147.4 574.4,144.8 582.7,144.2 C 590.9,143.6 599.1,144.2 607.3,144.2 C 615.6,144.2 623.8,144.2 632.0,144.2 C 640.2,144.2 648.4,144.2 656.7,144.2 C 664.9,144.2 673.1,144.2 681.3,144.2 C 689.6,144.2 697.8,144.3 706.0,144.2 C 714.2,144.1 722.4,143.0 730.7,143.6 C 738.9,144.2 747.1,147.3 755.3,148.0 C 763.6,148.7 775.9,148.0 780.0,148.0" fill="none"
        stroke="#0969da" stroke-width="2"
        stroke-linejoin="round" stroke-linecap="round"
        />

  <!-- Peak dots -->
  

  
  <text x="40.0" y="162"
        font-size="10" fill="#57606a"
        font-family="-apple-system,BlinkMacSystemFont,'Segoe UI',sans-serif">Jun</text>
  <text x="212.7" y="162"
        font-size="10" fill="#57606a"
        font-family="-apple-system,BlinkMacSystemFont,'Segoe UI',sans-serif">Jul</text>
  
  <text x="40" y="178"
        font-size="11" font-weight="600" fill="#0969da"
        font-family="-apple-system,BlinkMacSystemFont,'Segoe UI',sans-serif">
    33 contributions
  </text>
  <text x="40" y="193"
        font-size="10" fill="#57606a"
        font-family="-apple-system,BlinkMacSystemFont,'Segoe UI',sans-serif">
    30 commits · 0 PRs · 0 issues · 0 reviews
  </text>
  <text x="780" y="193"
        font-size="10" fill="#57606a" text-anchor="end"
        font-family="-apple-system,BlinkMacSystemFont,'Segoe UI',sans-serif">
    Updated Jul 24, 2026
  </text>
</svg>