<svg
  xmlns="http://www.w3.org/2000/svg"
  width="800" height="200"
  viewBox="0 0 800 200"
  role="img"
  aria-label="Ansh Yadav's GitHub contribution graph"
>
  <defs>
    
  <linearGradient id="area-hm9uy" x1="0" y1="0" x2="0" y2="1">
    <stop offset="0%"   stop-color="rgba(88,166,255,0.25)"/>
    <stop offset="100%" stop-color="rgba(88,166,255,0)"/>
  </linearGradient>
    
  </defs>

  <!-- Background -->
  <rect width="800" height="200" rx="6" fill="#0d1117"/>

  
  <text x="40" y="32" font-size="14" font-weight="600" fill="#e6edf3"
        font-family="-apple-system,BlinkMacSystemFont,'Segoe UI',sans-serif" >
    Ansh Yadav's Contributions
  </text>
  
  <line x1="40" y1="76.0" x2="780" y2="76.0"
        stroke="rgba(240,246,252,0.06)" stroke-width="1" stroke-dasharray="3,4"/>
  <text x="36" y="80.0" font-size="9" fill="#7d8590"
        font-family="-apple-system,BlinkMacSystemFont,'Segoe UI',sans-serif" text-anchor="end">4</text>
  <line x1="40" y1="100.0" x2="780" y2="100.0"
        stroke="rgba(240,246,252,0.06)" stroke-width="1" stroke-dasharray="3,4"/>
  <text x="36" y="104.0" font-size="9" fill="#7d8590"
        font-family="-apple-system,BlinkMacSystemFont,'Segoe UI',sans-serif" text-anchor="end">2</text>
  <line x1="40" y1="124.0" x2="780" y2="124.0"
        stroke="rgba(240,246,252,0.06)" stroke-width="1" stroke-dasharray="3,4"/>
  <text x="36" y="128.0" font-size="9" fill="#7d8590"
        font-family="-apple-system,BlinkMacSystemFont,'Segoe UI',sans-serif" text-anchor="end">1</text>
  <line x1="40" y1="148.0" x2="780" y2="148.0"
        stroke="rgba(240,246,252,0.06)" stroke-width="1" stroke-dasharray="3,4"/>
  <text x="36" y="152.0" font-size="9" fill="#7d8590"
        font-family="-apple-system,BlinkMacSystemFont,'Segoe UI',sans-serif" text-anchor="end">0</text>
  
  <line x1="40" y1="148" x2="780" y2="148"
        stroke="rgba(240,246,252,0.06)" stroke-width="1"/>

  <!-- Area fill -->
  <path d="M 40.0,148.0 C 44.1,132.1 56.4,68.7 64.7,52.7 C 72.9,36.7 81.1,49.8 89.3,52.0 C 97.6,54.2 105.8,63.4 114.0,65.7 C 122.2,68.0 130.4,65.7 138.7,65.7 C 146.9,65.7 155.1,65.7 163.3,65.7 C 171.6,65.7 179.8,66.2 188.0,65.7 C 196.2,65.2 204.4,52.0 212.7,62.9 C 220.9,73.8 229.1,117.3 237.3,131.0 C 245.6,144.7 253.8,143.3 262.0,145.2 C 270.2,147.1 278.4,142.8 286.7,142.3 C 294.9,141.9 303.1,142.3 311.3,142.3 C 319.6,142.3 327.8,142.3 336.0,142.3 C 344.2,142.3 352.4,141.9 360.7,142.3 C 368.9,142.8 377.1,144.7 385.3,145.2 C 393.6,145.6 401.8,145.2 410.0,145.2 C 418.2,145.2 426.4,144.7 434.7,145.2 C 442.9,145.6 451.1,147.5 459.3,148.0 C 467.6,148.5 475.8,148.0 484.0,148.0 C 492.2,148.0 500.4,148.0 508.7,148.0 C 516.9,148.0 525.1,148.0 533.3,148.0 C 541.6,148.0 549.8,148.0 558.0,148.0 C 566.2,148.0 574.4,148.0 582.7,148.0 C 590.9,148.0 599.1,148.9 607.3,148.0 C 615.6,147.1 623.8,143.3 632.0,142.3 C 640.2,141.4 648.4,142.3 656.7,142.3 C 664.9,142.3 673.1,142.3 681.3,142.3 C 689.6,142.3 697.8,142.5 706.0,142.3 C 714.2,142.2 722.4,141.8 730.7,141.4 C 738.9,141.0 747.1,140.6 755.3,140.1 C 763.6,139.5 775.9,138.4 780.0,138.1 L 780.0,148 L 40.0,148 Z" fill="url(#area-hm9uy)"/>

  <!-- Line -->
  <path d="M 40.0,148.0 C 44.1,132.1 56.4,68.7 64.7,52.7 C 72.9,36.7 81.1,49.8 89.3,52.0 C 97.6,54.2 105.8,63.4 114.0,65.7 C 122.2,68.0 130.4,65.7 138.7,65.7 C 146.9,65.7 155.1,65.7 163.3,65.7 C 171.6,65.7 179.8,66.2 188.0,65.7 C 196.2,65.2 204.4,52.0 212.7,62.9 C 220.9,73.8 229.1,117.3 237.3,131.0 C 245.6,144.7 253.8,143.3 262.0,145.2 C 270.2,147.1 278.4,142.8 286.7,142.3 C 294.9,141.9 303.1,142.3 311.3,142.3 C 319.6,142.3 327.8,142.3 336.0,142.3 C 344.2,142.3 352.4,141.9 360.7,142.3 C 368.9,142.8 377.1,144.7 385.3,145.2 C 393.6,145.6 401.8,145.2 410.0,145.2 C 418.2,145.2 426.4,144.7 434.7,145.2 C 442.9,145.6 451.1,147.5 459.3,148.0 C 467.6,148.5 475.8,148.0 484.0,148.0 C 492.2,148.0 500.4,148.0 508.7,148.0 C 516.9,148.0 525.1,148.0 533.3,148.0 C 541.6,148.0 549.8,148.0 558.0,148.0 C 566.2,148.0 574.4,148.0 582.7,148.0 C 590.9,148.0 599.1,148.9 607.3,148.0 C 615.6,147.1 623.8,143.3 632.0,142.3 C 640.2,141.4 648.4,142.3 656.7,142.3 C 664.9,142.3 673.1,142.3 681.3,142.3 C 689.6,142.3 697.8,142.5 706.0,142.3 C 714.2,142.2 722.4,141.8 730.7,141.4 C 738.9,141.0 747.1,140.6 755.3,140.1 C 763.6,139.5 775.9,138.4 780.0,138.1" fill="none"
        stroke="#58a6ff" stroke-width="2"
        stroke-linejoin="round" stroke-linecap="round"
        />

  <!-- Peak dots -->
  
  <circle cx="138.7" cy="65.7" r="3"
          fill="#58a6ff" >
    <title>24 contributions on Fri, Jun 26, 2026</title>
  </circle>
  <circle cx="163.3" cy="65.7" r="3"
          fill="#58a6ff" >
    <title>5 contributions on Sat, Jun 27, 2026</title>
  </circle>
  <circle cx="89.3" cy="52.0" r="3"
          fill="#58a6ff" >
    <title>0 contributions on Wed, Jun 24, 2026</title>
  </circle>
  <circle cx="212.7" cy="62.9" r="3"
          fill="#58a6ff" >
    <title>0 contributions on Mon, Jun 29, 2026</title>
  </circle>

  
  <text x="40.0" y="162"
        font-size="10" fill="#7d8590"
        font-family="-apple-system,BlinkMacSystemFont,'Segoe UI',sans-serif">Jun</text>
  <text x="262.0" y="162"
        font-size="10" fill="#7d8590"
        font-family="-apple-system,BlinkMacSystemFont,'Segoe UI',sans-serif">Jul</text>
  
  <text x="40" y="178"
        font-size="11" font-weight="600" fill="#58a6ff"
        font-family="-apple-system,BlinkMacSystemFont,'Segoe UI',sans-serif">
    33 contributions
  </text>
  <text x="40" y="193"
        font-size="10" fill="#7d8590"
        font-family="-apple-system,BlinkMacSystemFont,'Segoe UI',sans-serif">
    30 commits · 0 PRs · 0 issues · 0 reviews
  </text>
  <text x="780" y="193"
        font-size="10" fill="#7d8590" text-anchor="end"
        font-family="-apple-system,BlinkMacSystemFont,'Segoe UI',sans-serif">
    Updated Jul 22, 2026
  </text>
</svg>