<svg
  xmlns="http://www.w3.org/2000/svg"
  width="800" height="200"
  viewBox="0 0 800 200"
  role="img"
  aria-label="Ansh Yadav's GitHub contribution graph"
>
  <defs>
    
  <linearGradient id="area-avgg2" x1="0" y1="0" x2="0" y2="1">
    <stop offset="0%"   stop-color="rgba(127,90,240,0.4)"/>
    <stop offset="100%" stop-color="rgba(127,90,240,0)"/>
  </linearGradient>
    
  <filter id="glow-avgg2">
    <feGaussianBlur stdDeviation="3" result="blur"/>
    <feMerge><feMergeNode in="blur"/><feMergeNode in="SourceGraphic"/></feMerge>
  </filter>
  </defs>

  <!-- Background -->
  <rect width="800" height="200" rx="6" fill="#0a0a0f"/>

  
  <text x="40" y="32" font-size="14" font-weight="600" fill="#00ffff"
        font-family="-apple-system,BlinkMacSystemFont,'Segoe UI',sans-serif" filter="url(#glow-avgg2)">
    Ansh Yadav's Contributions
  </text>
  
  <line x1="40" y1="76.0" x2="780" y2="76.0"
        stroke="rgba(127,90,240,0.12)" stroke-width="1" stroke-dasharray="3,4"/>
  <text x="36" y="80.0" font-size="9" fill="#7f5af0"
        font-family="-apple-system,BlinkMacSystemFont,'Segoe UI',sans-serif" text-anchor="end">8</text>
  <line x1="40" y1="100.0" x2="780" y2="100.0"
        stroke="rgba(127,90,240,0.12)" stroke-width="1" stroke-dasharray="3,4"/>
  <text x="36" y="104.0" font-size="9" fill="#7f5af0"
        font-family="-apple-system,BlinkMacSystemFont,'Segoe UI',sans-serif" text-anchor="end">5</text>
  <line x1="40" y1="124.0" x2="780" y2="124.0"
        stroke="rgba(127,90,240,0.12)" stroke-width="1" stroke-dasharray="3,4"/>
  <text x="36" y="128.0" font-size="9" fill="#7f5af0"
        font-family="-apple-system,BlinkMacSystemFont,'Segoe UI',sans-serif" text-anchor="end">3</text>
  <line x1="40" y1="148.0" x2="780" y2="148.0"
        stroke="rgba(127,90,240,0.12)" stroke-width="1" stroke-dasharray="3,4"/>
  <text x="36" y="152.0" font-size="9" fill="#7f5af0"
        font-family="-apple-system,BlinkMacSystemFont,'Segoe UI',sans-serif" text-anchor="end">0</text>
  
  <line x1="40" y1="148" x2="780" y2="148"
        stroke="rgba(127,90,240,0.12)" stroke-width="1"/>

  <!-- Area fill -->
  <path d="M 40.0,148.0 C 44.1,148.0 56.4,148.0 64.7,148.0 C 72.9,148.0 81.1,148.0 89.3,148.0 C 97.6,148.0 105.8,148.0 114.0,148.0 C 122.2,148.0 130.4,148.0 138.7,148.0 C 146.9,148.0 155.1,148.0 163.3,148.0 C 171.6,148.0 179.8,148.0 188.0,148.0 C 196.2,148.0 204.4,148.0 212.7,148.0 C 220.9,148.0 229.1,148.0 237.3,148.0 C 245.6,148.0 253.8,148.0 262.0,148.0 C 270.2,148.0 278.4,148.0 286.7,148.0 C 294.9,148.0 303.1,148.7 311.3,148.0 C 319.6,147.3 327.8,146.0 336.0,144.1 C 344.2,142.1 352.4,150.6 360.7,136.2 C 368.9,121.7 377.1,71.1 385.3,57.3 C 393.6,43.5 401.8,54.2 410.0,53.3 C 418.2,52.4 426.4,52.2 434.7,52.0 C 442.9,51.8 451.1,52.0 459.3,52.0 C 467.6,52.0 475.8,51.3 484.0,52.0 C 492.2,52.7 500.4,54.0 508.7,55.9 C 516.9,57.9 525.1,54.6 533.3,63.8 C 541.6,73.0 549.8,103.7 558.0,111.2 C 566.2,118.6 574.4,108.8 582.7,108.5 C 590.9,108.3 599.1,109.6 607.3,109.9 C 615.6,110.1 623.8,109.9 632.0,109.9 C 640.2,109.9 648.4,109.9 656.7,109.9 C 664.9,109.9 673.1,109.9 681.3,109.9 C 689.6,109.9 697.8,104.8 706.0,109.9 C 714.2,114.9 722.4,134.0 730.7,140.3 C 738.9,146.7 747.1,146.7 755.3,148.0 C 763.6,149.3 775.9,148.0 780.0,148.0 L 780.0,148 L 40.0,148 Z" fill="url(#area-avgg2)"/>

  <!-- Line -->
  <path d="M 40.0,148.0 C 44.1,148.0 56.4,148.0 64.7,148.0 C 72.9,148.0 81.1,148.0 89.3,148.0 C 97.6,148.0 105.8,148.0 114.0,148.0 C 122.2,148.0 130.4,148.0 138.7,148.0 C 146.9,148.0 155.1,148.0 163.3,148.0 C 171.6,148.0 179.8,148.0 188.0,148.0 C 196.2,148.0 204.4,148.0 212.7,148.0 C 220.9,148.0 229.1,148.0 237.3,148.0 C 245.6,148.0 253.8,148.0 262.0,148.0 C 270.2,148.0 278.4,148.0 286.7,148.0 C 294.9,148.0 303.1,148.7 311.3,148.0 C 319.6,147.3 327.8,146.0 336.0,144.1 C 344.2,142.1 352.4,150.6 360.7,136.2 C 368.9,121.7 377.1,71.1 385.3,57.3 C 393.6,43.5 401.8,54.2 410.0,53.3 C 418.2,52.4 426.4,52.2 434.7,52.0 C 442.9,51.8 451.1,52.0 459.3,52.0 C 467.6,52.0 475.8,51.3 484.0,52.0 C 492.2,52.7 500.4,54.0 508.7,55.9 C 516.9,57.9 525.1,54.6 533.3,63.8 C 541.6,73.0 549.8,103.7 558.0,111.2 C 566.2,118.6 574.4,108.8 582.7,108.5 C 590.9,108.3 599.1,109.6 607.3,109.9 C 615.6,110.1 623.8,109.9 632.0,109.9 C 640.2,109.9 648.4,109.9 656.7,109.9 C 664.9,109.9 673.1,109.9 681.3,109.9 C 689.6,109.9 697.8,104.8 706.0,109.9 C 714.2,114.9 722.4,134.0 730.7,140.3 C 738.9,146.7 747.1,146.7 755.3,148.0 C 763.6,149.3 775.9,148.0 780.0,148.0" fill="none"
        stroke="#7f5af0" stroke-width="2.5"
        stroke-linejoin="round" stroke-linecap="round"
        filter="url(#glow-avgg2)"/>

  <!-- Peak dots -->
  
  <circle cx="459.3" cy="52.0" r="3"
          fill="#e040fb" filter="url(#glow-avgg2)">
    <title>60 contributions on Fri, Jun 19, 2026</title>
  </circle>
  <circle cx="434.7" cy="52.0" r="3"
          fill="#e040fb" filter="url(#glow-avgg2)">
    <title>6 contributions on Thu, Jun 18, 2026</title>
  </circle>
  <circle cx="484.0" cy="52.0" r="3"
          fill="#e040fb" filter="url(#glow-avgg2)">
    <title>3 contributions on Sat, Jun 20, 2026</title>
  </circle>

  
  <text x="40.0" y="162"
        font-size="10" fill="#7f5af0"
        font-family="-apple-system,BlinkMacSystemFont,'Segoe UI',sans-serif">Jun</text>
  <text x="755.3" y="162"
        font-size="10" fill="#7f5af0"
        font-family="-apple-system,BlinkMacSystemFont,'Segoe UI',sans-serif">Jul</text>
  
  <text x="40" y="178"
        font-size="11" font-weight="600" fill="#ff2d55"
        font-family="-apple-system,BlinkMacSystemFont,'Segoe UI',sans-serif">
    102 contributions
  </text>
  <text x="40" y="193"
        font-size="10" fill="#a786ff"
        font-family="-apple-system,BlinkMacSystemFont,'Segoe UI',sans-serif">
    98 commits · 0 PRs · 0 issues · 0 reviews
  </text>
  <text x="780" y="193"
        font-size="10" fill="#a786ff" text-anchor="end"
        font-family="-apple-system,BlinkMacSystemFont,'Segoe UI',sans-serif">
    Updated Jul 2, 2026
  </text>
</svg>