<svg
  xmlns="http://www.w3.org/2000/svg"
  width="800" height="200"
  viewBox="0 0 800 200"
  role="img"
  aria-label="Ansh Yadav's GitHub contribution graph"
>
  <defs>
    
  <linearGradient id="area-rhni0" x1="0" y1="0" x2="0" y2="1">
    <stop offset="0%"   stop-color="rgba(127,90,240,0.4)"/>
    <stop offset="100%" stop-color="rgba(127,90,240,0)"/>
  </linearGradient>
    
  <filter id="glow-rhni0">
    <feGaussianBlur stdDeviation="3" result="blur"/>
    <feMerge><feMergeNode in="blur"/><feMergeNode in="SourceGraphic"/></feMerge>
  </filter>
  </defs>

  <!-- Background -->
  <rect width="800" height="200" rx="6" fill="#0a0a0f"/>

  
  <text x="40" y="32" font-size="14" font-weight="600" fill="#00ffff"
        font-family="-apple-system,BlinkMacSystemFont,'Segoe UI',sans-serif" filter="url(#glow-rhni0)">
    Ansh Yadav's Contributions
  </text>
  
  <line x1="40" y1="76.0" x2="780" y2="76.0"
        stroke="rgba(127,90,240,0.12)" stroke-width="1" stroke-dasharray="3,4"/>
  <text x="36" y="80.0" font-size="9" fill="#7f5af0"
        font-family="-apple-system,BlinkMacSystemFont,'Segoe UI',sans-serif" text-anchor="end">2</text>
  <line x1="40" y1="100.0" x2="780" y2="100.0"
        stroke="rgba(127,90,240,0.12)" stroke-width="1" stroke-dasharray="3,4"/>
  <text x="36" y="104.0" font-size="9" fill="#7f5af0"
        font-family="-apple-system,BlinkMacSystemFont,'Segoe UI',sans-serif" text-anchor="end">1</text>
  <line x1="40" y1="124.0" x2="780" y2="124.0"
        stroke="rgba(127,90,240,0.12)" stroke-width="1" stroke-dasharray="3,4"/>
  <text x="36" y="128.0" font-size="9" fill="#7f5af0"
        font-family="-apple-system,BlinkMacSystemFont,'Segoe UI',sans-serif" text-anchor="end">1</text>
  <line x1="40" y1="148.0" x2="780" y2="148.0"
        stroke="rgba(127,90,240,0.12)" stroke-width="1" stroke-dasharray="3,4"/>
  <text x="36" y="152.0" font-size="9" fill="#7f5af0"
        font-family="-apple-system,BlinkMacSystemFont,'Segoe UI',sans-serif" text-anchor="end">0</text>
  
  <line x1="40" y1="148" x2="780" y2="148"
        stroke="rgba(127,90,240,0.12)" stroke-width="1"/>

  <!-- Area fill -->
  <path d="M 40.0,148.0 C 44.1,135.4 56.4,82.9 64.7,72.4 C 72.9,61.9 81.1,81.4 89.3,85.0 C 97.6,88.6 105.8,95.5 114.0,94.0 C 122.2,92.5 130.4,83.0 138.7,76.0 C 146.9,69.0 155.1,56.0 163.3,52.0 C 171.6,48.0 179.8,52.0 188.0,52.0 C 196.2,52.0 204.4,44.0 212.7,52.0 C 220.9,60.0 229.1,93.0 237.3,100.0 C 245.6,107.0 253.8,95.0 262.0,94.0 C 270.2,93.0 278.4,98.0 286.7,94.0 C 294.9,90.0 303.1,73.0 311.3,70.0 C 319.6,67.0 327.8,75.0 336.0,76.0 C 344.2,77.0 352.4,76.0 360.7,76.0 C 368.9,76.0 377.1,75.0 385.3,76.0 C 393.6,77.0 401.8,83.0 410.0,82.0 C 418.2,81.0 426.4,72.0 434.7,70.0 C 442.9,68.0 451.1,63.0 459.3,70.0 C 467.6,77.0 475.8,102.0 484.0,112.0 C 492.2,122.0 500.4,127.0 508.7,130.0 C 516.9,133.0 525.1,130.0 533.3,130.0 C 541.6,130.0 549.8,130.0 558.0,130.0 C 566.2,130.0 574.4,127.0 582.7,130.0 C 590.9,133.0 599.1,145.0 607.3,148.0 C 615.6,151.0 623.8,153.0 632.0,148.0 C 640.2,143.0 648.4,124.0 656.7,118.0 C 664.9,112.0 673.1,113.0 681.3,112.0 C 689.6,111.0 697.8,113.0 706.0,112.0 C 714.2,111.0 722.4,108.4 730.7,106.0 C 738.9,103.6 747.1,101.1 755.3,97.6 C 763.6,94.1 775.9,87.1 780.0,85.0 L 780.0,148 L 40.0,148 Z" fill="url(#area-rhni0)"/>

  <!-- Line -->
  <path d="M 40.0,148.0 C 44.1,135.4 56.4,82.9 64.7,72.4 C 72.9,61.9 81.1,81.4 89.3,85.0 C 97.6,88.6 105.8,95.5 114.0,94.0 C 122.2,92.5 130.4,83.0 138.7,76.0 C 146.9,69.0 155.1,56.0 163.3,52.0 C 171.6,48.0 179.8,52.0 188.0,52.0 C 196.2,52.0 204.4,44.0 212.7,52.0 C 220.9,60.0 229.1,93.0 237.3,100.0 C 245.6,107.0 253.8,95.0 262.0,94.0 C 270.2,93.0 278.4,98.0 286.7,94.0 C 294.9,90.0 303.1,73.0 311.3,70.0 C 319.6,67.0 327.8,75.0 336.0,76.0 C 344.2,77.0 352.4,76.0 360.7,76.0 C 368.9,76.0 377.1,75.0 385.3,76.0 C 393.6,77.0 401.8,83.0 410.0,82.0 C 418.2,81.0 426.4,72.0 434.7,70.0 C 442.9,68.0 451.1,63.0 459.3,70.0 C 467.6,77.0 475.8,102.0 484.0,112.0 C 492.2,122.0 500.4,127.0 508.7,130.0 C 516.9,133.0 525.1,130.0 533.3,130.0 C 541.6,130.0 549.8,130.0 558.0,130.0 C 566.2,130.0 574.4,127.0 582.7,130.0 C 590.9,133.0 599.1,145.0 607.3,148.0 C 615.6,151.0 623.8,153.0 632.0,148.0 C 640.2,143.0 648.4,124.0 656.7,118.0 C 664.9,112.0 673.1,113.0 681.3,112.0 C 689.6,111.0 697.8,113.0 706.0,112.0 C 714.2,111.0 722.4,108.4 730.7,106.0 C 738.9,103.6 747.1,101.1 755.3,97.6 C 763.6,94.1 775.9,87.1 780.0,85.0" fill="none"
        stroke="#7f5af0" stroke-width="2.5"
        stroke-linejoin="round" stroke-linecap="round"
        filter="url(#glow-rhni0)"/>

  <!-- Peak dots -->
  
  <circle cx="385.3" cy="76.0" r="3"
          fill="#e040fb" filter="url(#glow-rhni0)">
    <title>7 contributions on Wed, Aug 12, 2026</title>
  </circle>
  <circle cx="212.7" cy="52.0" r="3"
          fill="#e040fb" filter="url(#glow-rhni0)">
    <title>3 contributions on Wed, Aug 5, 2026</title>
  </circle>
  <circle cx="311.3" cy="70.0" r="3"
          fill="#e040fb" filter="url(#glow-rhni0)">
    <title>1 contributions on Sun, Aug 9, 2026</title>
  </circle>
  <circle cx="64.7" cy="72.4" r="3"
          fill="#e040fb" filter="url(#glow-rhni0)">
    <title>0 contributions on Thu, Jul 30, 2026</title>
  </circle>
  <circle cx="163.3" cy="52.0" r="3"
          fill="#e040fb" filter="url(#glow-rhni0)">
    <title>0 contributions on Mon, Aug 3, 2026</title>
  </circle>
  <circle cx="188.0" cy="52.0" r="3"
          fill="#e040fb" filter="url(#glow-rhni0)">
    <title>0 contributions on Tue, Aug 4, 2026</title>
  </circle>
  <circle cx="360.7" cy="76.0" r="3"
          fill="#e040fb" filter="url(#glow-rhni0)">
    <title>0 contributions on Tue, Aug 11, 2026</title>
  </circle>
  <circle cx="434.7" cy="70.0" r="3"
          fill="#e040fb" filter="url(#glow-rhni0)">
    <title>0 contributions on Fri, Aug 14, 2026</title>
  </circle>
  <circle cx="459.3" cy="70.0" r="3"
          fill="#e040fb" filter="url(#glow-rhni0)">
    <title>0 contributions on Sat, Aug 15, 2026</title>
  </circle>

  
  <text x="40.0" y="162"
        font-size="10" fill="#7f5af0"
        font-family="-apple-system,BlinkMacSystemFont,'Segoe UI',sans-serif">Jul</text>
  <text x="114.0" y="162"
        font-size="10" fill="#7f5af0"
        font-family="-apple-system,BlinkMacSystemFont,'Segoe UI',sans-serif">Aug</text>
  
  <text x="40" y="178"
        font-size="11" font-weight="600" fill="#ff2d55"
        font-family="-apple-system,BlinkMacSystemFont,'Segoe UI',sans-serif">
    37 contributions
  </text>
  <text x="40" y="193"
        font-size="10" fill="#a786ff"
        font-family="-apple-system,BlinkMacSystemFont,'Segoe UI',sans-serif">
    32 commits · 0 PRs · 0 issues · 0 reviews
  </text>
  <text x="780" y="193"
        font-size="10" fill="#a786ff" text-anchor="end"
        font-family="-apple-system,BlinkMacSystemFont,'Segoe UI',sans-serif">
    Updated Aug 28, 2026
  </text>
</svg>