<svg
  xmlns="http://www.w3.org/2000/svg"
  width="800" height="200"
  viewBox="0 0 800 200"
  role="img"
  aria-label="Ansh Yadav's GitHub contribution graph"
>
  <defs>
    
  <linearGradient id="area-votau" x1="0" y1="0" x2="0" y2="1">
    <stop offset="0%"   stop-color="rgba(88,166,255,0.25)"/>
    <stop offset="100%" stop-color="rgba(88,166,255,0)"/>
  </linearGradient>
    
  </defs>

  <!-- Background -->
  <rect width="800" height="200" rx="6" fill="#0d1117"/>

  
  <text x="40" y="32" font-size="14" font-weight="600" fill="#e6edf3"
        font-family="-apple-system,BlinkMacSystemFont,'Segoe UI',sans-serif" >
    Ansh Yadav's Contributions
  </text>
  
  <line x1="40" y1="76.0" x2="780" y2="76.0"
        stroke="rgba(240,246,252,0.06)" stroke-width="1" stroke-dasharray="3,4"/>
  <text x="36" y="80.0" font-size="9" fill="#7d8590"
        font-family="-apple-system,BlinkMacSystemFont,'Segoe UI',sans-serif" text-anchor="end">13</text>
  <line x1="40" y1="100.0" x2="780" y2="100.0"
        stroke="rgba(240,246,252,0.06)" stroke-width="1" stroke-dasharray="3,4"/>
  <text x="36" y="104.0" font-size="9" fill="#7d8590"
        font-family="-apple-system,BlinkMacSystemFont,'Segoe UI',sans-serif" text-anchor="end">9</text>
  <line x1="40" y1="124.0" x2="780" y2="124.0"
        stroke="rgba(240,246,252,0.06)" stroke-width="1" stroke-dasharray="3,4"/>
  <text x="36" y="128.0" font-size="9" fill="#7d8590"
        font-family="-apple-system,BlinkMacSystemFont,'Segoe UI',sans-serif" text-anchor="end">4</text>
  <line x1="40" y1="148.0" x2="780" y2="148.0"
        stroke="rgba(240,246,252,0.06)" stroke-width="1" stroke-dasharray="3,4"/>
  <text x="36" y="152.0" font-size="9" fill="#7d8590"
        font-family="-apple-system,BlinkMacSystemFont,'Segoe UI',sans-serif" text-anchor="end">0</text>
  
  <line x1="40" y1="148" x2="780" y2="148"
        stroke="rgba(240,246,252,0.06)" stroke-width="1"/>

  <!-- Area fill -->
  <path d="M 40.0,52.0 C 44.1,54.6 56.4,63.1 64.7,67.9 C 72.9,72.6 81.1,76.6 89.3,80.3 C 97.6,84.0 105.8,88.4 114.0,90.0 C 122.2,91.6 130.4,89.6 138.7,90.0 C 146.9,90.4 155.1,91.2 163.3,92.3 C 171.6,93.5 179.8,91.6 188.0,97.1 C 196.2,102.7 204.4,121.2 212.7,125.7 C 220.9,130.2 229.1,124.3 237.3,124.1 C 245.6,124.0 253.8,124.8 262.0,124.9 C 270.2,125.1 278.4,124.9 286.7,124.9 C 294.9,124.9 303.1,124.9 311.3,124.9 C 319.6,124.9 327.8,125.1 336.0,124.9 C 344.2,124.8 352.4,121.1 360.7,124.1 C 368.9,127.2 377.1,139.4 385.3,143.2 C 393.6,147.1 401.8,146.7 410.0,147.2 C 418.2,147.7 426.4,146.5 434.7,146.4 C 442.9,146.3 451.1,146.4 459.3,146.4 C 467.6,146.4 475.8,146.4 484.0,146.4 C 492.2,146.4 500.4,146.3 508.7,146.4 C 516.9,146.5 525.1,147.1 533.3,147.2 C 541.6,147.3 549.8,147.2 558.0,147.2 C 566.2,147.2 574.4,147.1 582.7,147.2 C 590.9,147.3 599.1,147.9 607.3,148.0 C 615.6,148.1 623.8,148.0 632.0,148.0 C 640.2,148.0 648.4,148.0 656.7,148.0 C 664.9,148.0 673.1,148.0 681.3,148.0 C 689.6,148.0 697.8,148.0 706.0,148.0 C 714.2,148.0 722.4,148.0 730.7,148.0 C 738.9,148.0 747.1,148.0 755.3,148.0 C 763.6,148.0 775.9,148.0 780.0,148.0 L 780.0,148 L 40.0,148 Z" fill="url(#area-votau)"/>

  <!-- Line -->
  <path d="M 40.0,52.0 C 44.1,54.6 56.4,63.1 64.7,67.9 C 72.9,72.6 81.1,76.6 89.3,80.3 C 97.6,84.0 105.8,88.4 114.0,90.0 C 122.2,91.6 130.4,89.6 138.7,90.0 C 146.9,90.4 155.1,91.2 163.3,92.3 C 171.6,93.5 179.8,91.6 188.0,97.1 C 196.2,102.7 204.4,121.2 212.7,125.7 C 220.9,130.2 229.1,124.3 237.3,124.1 C 245.6,124.0 253.8,124.8 262.0,124.9 C 270.2,125.1 278.4,124.9 286.7,124.9 C 294.9,124.9 303.1,124.9 311.3,124.9 C 319.6,124.9 327.8,125.1 336.0,124.9 C 344.2,124.8 352.4,121.1 360.7,124.1 C 368.9,127.2 377.1,139.4 385.3,143.2 C 393.6,147.1 401.8,146.7 410.0,147.2 C 418.2,147.7 426.4,146.5 434.7,146.4 C 442.9,146.3 451.1,146.4 459.3,146.4 C 467.6,146.4 475.8,146.4 484.0,146.4 C 492.2,146.4 500.4,146.3 508.7,146.4 C 516.9,146.5 525.1,147.1 533.3,147.2 C 541.6,147.3 549.8,147.2 558.0,147.2 C 566.2,147.2 574.4,147.1 582.7,147.2 C 590.9,147.3 599.1,147.9 607.3,148.0 C 615.6,148.1 623.8,148.0 632.0,148.0 C 640.2,148.0 648.4,148.0 656.7,148.0 C 664.9,148.0 673.1,148.0 681.3,148.0 C 689.6,148.0 697.8,148.0 706.0,148.0 C 714.2,148.0 722.4,148.0 730.7,148.0 C 738.9,148.0 747.1,148.0 755.3,148.0 C 763.6,148.0 775.9,148.0 780.0,148.0" fill="none"
        stroke="#58a6ff" stroke-width="2"
        stroke-linejoin="round" stroke-linecap="round"
        />

  <!-- Peak dots -->
  
  <circle cx="138.7" cy="90.0" r="3"
          fill="#58a6ff" >
    <title>3 contributions on Sat, Jun 20, 2026</title>
  </circle>

  
  <text x="40.0" y="162"
        font-size="10" fill="#7d8590"
        font-family="-apple-system,BlinkMacSystemFont,'Segoe UI',sans-serif">Jun</text>
  <text x="410.0" y="162"
        font-size="10" fill="#7d8590"
        font-family="-apple-system,BlinkMacSystemFont,'Segoe UI',sans-serif">Jul</text>
  
  <text x="40" y="178"
        font-size="11" font-weight="600" fill="#58a6ff"
        font-family="-apple-system,BlinkMacSystemFont,'Segoe UI',sans-serif">
    104 contributions
  </text>
  <text x="40" y="193"
        font-size="10" fill="#7d8590"
        font-family="-apple-system,BlinkMacSystemFont,'Segoe UI',sans-serif">
    99 commits · 0 PRs · 0 issues · 0 reviews
  </text>
  <text x="780" y="193"
        font-size="10" fill="#7d8590" text-anchor="end"
        font-family="-apple-system,BlinkMacSystemFont,'Segoe UI',sans-serif">
    Updated Jul 16, 2026
  </text>
</svg>