<svg
  xmlns="http://www.w3.org/2000/svg"
  width="800" height="200"
  viewBox="0 0 800 200"
  role="img"
  aria-label="Ansh Yadav's GitHub contribution graph"
>
  <defs>
    
  <linearGradient id="area-iuxby" x1="0" y1="0" x2="0" y2="1">
    <stop offset="0%"   stop-color="rgba(88,166,255,0.25)"/>
    <stop offset="100%" stop-color="rgba(88,166,255,0)"/>
  </linearGradient>
    
  </defs>

  <!-- Background -->
  <rect width="800" height="200" rx="6" fill="#0d1117"/>

  
  <text x="40" y="32" font-size="14" font-weight="600" fill="#e6edf3"
        font-family="-apple-system,BlinkMacSystemFont,'Segoe UI',sans-serif" >
    Ansh Yadav's Contributions
  </text>
  
  <line x1="40" y1="76.0" x2="780" y2="76.0"
        stroke="rgba(240,246,252,0.06)" stroke-width="1" stroke-dasharray="3,4"/>
  <text x="36" y="80.0" font-size="9" fill="#7d8590"
        font-family="-apple-system,BlinkMacSystemFont,'Segoe UI',sans-serif" text-anchor="end">9</text>
  <line x1="40" y1="100.0" x2="780" y2="100.0"
        stroke="rgba(240,246,252,0.06)" stroke-width="1" stroke-dasharray="3,4"/>
  <text x="36" y="104.0" font-size="9" fill="#7d8590"
        font-family="-apple-system,BlinkMacSystemFont,'Segoe UI',sans-serif" text-anchor="end">6</text>
  <line x1="40" y1="124.0" x2="780" y2="124.0"
        stroke="rgba(240,246,252,0.06)" stroke-width="1" stroke-dasharray="3,4"/>
  <text x="36" y="128.0" font-size="9" fill="#7d8590"
        font-family="-apple-system,BlinkMacSystemFont,'Segoe UI',sans-serif" text-anchor="end">3</text>
  <line x1="40" y1="148.0" x2="780" y2="148.0"
        stroke="rgba(240,246,252,0.06)" stroke-width="1" stroke-dasharray="3,4"/>
  <text x="36" y="152.0" font-size="9" fill="#7d8590"
        font-family="-apple-system,BlinkMacSystemFont,'Segoe UI',sans-serif" text-anchor="end">0</text>
  
  <line x1="40" y1="148" x2="780" y2="148"
        stroke="rgba(240,246,252,0.06)" stroke-width="1"/>

  <!-- Area fill -->
  <path d="M 40.0,141.7 C 44.1,140.3 56.4,147.9 64.7,133.0 C 72.9,118.0 81.1,63.8 89.3,52.0 C 97.6,40.2 105.8,60.6 114.0,62.1 C 122.2,63.6 130.4,61.1 138.7,60.9 C 146.9,60.7 155.1,60.9 163.3,60.9 C 171.6,60.9 179.8,60.3 188.0,60.9 C 196.2,61.5 204.4,62.7 212.7,64.5 C 220.9,66.3 229.1,63.3 237.3,71.7 C 245.6,80.0 253.8,107.9 262.0,114.6 C 270.2,121.4 278.4,112.4 286.7,112.2 C 294.9,112.0 303.1,113.2 311.3,113.4 C 319.6,113.6 327.8,113.4 336.0,113.4 C 344.2,113.4 352.4,113.4 360.7,113.4 C 368.9,113.4 377.1,113.6 385.3,113.4 C 393.6,113.2 401.8,107.7 410.0,112.2 C 418.2,116.8 426.4,135.1 434.7,140.8 C 442.9,146.6 451.1,146.0 459.3,146.8 C 467.6,147.6 475.8,145.8 484.0,145.6 C 492.2,145.4 500.4,145.6 508.7,145.6 C 516.9,145.6 525.1,145.6 533.3,145.6 C 541.6,145.6 549.8,145.4 558.0,145.6 C 566.2,145.8 574.4,146.6 582.7,146.8 C 590.9,147.0 599.1,146.8 607.3,146.8 C 615.6,146.8 623.8,146.6 632.0,146.8 C 640.2,147.0 648.4,147.8 656.7,148.0 C 664.9,148.2 673.1,148.0 681.3,148.0 C 689.6,148.0 697.8,148.0 706.0,148.0 C 714.2,148.0 722.4,148.0 730.7,148.0 C 738.9,148.0 747.1,148.0 755.3,148.0 C 763.6,148.0 775.9,148.0 780.0,148.0 L 780.0,148 L 40.0,148 Z" fill="url(#area-iuxby)"/>

  <!-- Line -->
  <path d="M 40.0,141.7 C 44.1,140.3 56.4,147.9 64.7,133.0 C 72.9,118.0 81.1,63.8 89.3,52.0 C 97.6,40.2 105.8,60.6 114.0,62.1 C 122.2,63.6 130.4,61.1 138.7,60.9 C 146.9,60.7 155.1,60.9 163.3,60.9 C 171.6,60.9 179.8,60.3 188.0,60.9 C 196.2,61.5 204.4,62.7 212.7,64.5 C 220.9,66.3 229.1,63.3 237.3,71.7 C 245.6,80.0 253.8,107.9 262.0,114.6 C 270.2,121.4 278.4,112.4 286.7,112.2 C 294.9,112.0 303.1,113.2 311.3,113.4 C 319.6,113.6 327.8,113.4 336.0,113.4 C 344.2,113.4 352.4,113.4 360.7,113.4 C 368.9,113.4 377.1,113.6 385.3,113.4 C 393.6,113.2 401.8,107.7 410.0,112.2 C 418.2,116.8 426.4,135.1 434.7,140.8 C 442.9,146.6 451.1,146.0 459.3,146.8 C 467.6,147.6 475.8,145.8 484.0,145.6 C 492.2,145.4 500.4,145.6 508.7,145.6 C 516.9,145.6 525.1,145.6 533.3,145.6 C 541.6,145.6 549.8,145.4 558.0,145.6 C 566.2,145.8 574.4,146.6 582.7,146.8 C 590.9,147.0 599.1,146.8 607.3,146.8 C 615.6,146.8 623.8,146.6 632.0,146.8 C 640.2,147.0 648.4,147.8 656.7,148.0 C 664.9,148.2 673.1,148.0 681.3,148.0 C 689.6,148.0 697.8,148.0 706.0,148.0 C 714.2,148.0 722.4,148.0 730.7,148.0 C 738.9,148.0 747.1,148.0 755.3,148.0 C 763.6,148.0 775.9,148.0 780.0,148.0" fill="none"
        stroke="#58a6ff" stroke-width="2"
        stroke-linejoin="round" stroke-linecap="round"
        />

  <!-- Peak dots -->
  
  <circle cx="163.3" cy="60.9" r="3"
          fill="#58a6ff" >
    <title>60 contributions on Fri, Jun 19, 2026</title>
  </circle>
  <circle cx="138.7" cy="60.9" r="3"
          fill="#58a6ff" >
    <title>6 contributions on Thu, Jun 18, 2026</title>
  </circle>
  <circle cx="188.0" cy="60.9" r="3"
          fill="#58a6ff" >
    <title>3 contributions on Sat, Jun 20, 2026</title>
  </circle>
  <circle cx="89.3" cy="52.0" r="3"
          fill="#58a6ff" >
    <title>0 contributions on Tue, Jun 16, 2026</title>
  </circle>

  
  <text x="40.0" y="162"
        font-size="10" fill="#7d8590"
        font-family="-apple-system,BlinkMacSystemFont,'Segoe UI',sans-serif">Jun</text>
  <text x="459.3" y="162"
        font-size="10" fill="#7d8590"
        font-family="-apple-system,BlinkMacSystemFont,'Segoe UI',sans-serif">Jul</text>
  
  <text x="40" y="178"
        font-size="11" font-weight="600" fill="#58a6ff"
        font-family="-apple-system,BlinkMacSystemFont,'Segoe UI',sans-serif">
    104 contributions
  </text>
  <text x="40" y="193"
        font-size="10" fill="#7d8590"
        font-family="-apple-system,BlinkMacSystemFont,'Segoe UI',sans-serif">
    99 commits · 0 PRs · 0 issues · 0 reviews
  </text>
  <text x="780" y="193"
        font-size="10" fill="#7d8590" text-anchor="end"
        font-family="-apple-system,BlinkMacSystemFont,'Segoe UI',sans-serif">
    Updated Jul 14, 2026
  </text>
</svg>