<svg
  xmlns="http://www.w3.org/2000/svg"
  width="800" height="200"
  viewBox="0 0 800 200"
  role="img"
  aria-label="Ansh Yadav's GitHub contribution graph"
>
  <defs>
    
  <linearGradient id="area-k0noa" x1="0" y1="0" x2="0" y2="1">
    <stop offset="0%"   stop-color="rgba(88,166,255,0.25)"/>
    <stop offset="100%" stop-color="rgba(88,166,255,0)"/>
  </linearGradient>
    
  </defs>

  <!-- Background -->
  <rect width="800" height="200" rx="6" fill="#0d1117"/>

  
  <text x="40" y="32" font-size="14" font-weight="600" fill="#e6edf3"
        font-family="-apple-system,BlinkMacSystemFont,'Segoe UI',sans-serif" >
    Ansh Yadav's Contributions
  </text>
  
  <line x1="40" y1="76.0" x2="780" y2="76.0"
        stroke="rgba(240,246,252,0.06)" stroke-width="1" stroke-dasharray="3,4"/>
  <text x="36" y="80.0" font-size="9" fill="#7d8590"
        font-family="-apple-system,BlinkMacSystemFont,'Segoe UI',sans-serif" text-anchor="end">10</text>
  <line x1="40" y1="100.0" x2="780" y2="100.0"
        stroke="rgba(240,246,252,0.06)" stroke-width="1" stroke-dasharray="3,4"/>
  <text x="36" y="104.0" font-size="9" fill="#7d8590"
        font-family="-apple-system,BlinkMacSystemFont,'Segoe UI',sans-serif" text-anchor="end">7</text>
  <line x1="40" y1="124.0" x2="780" y2="124.0"
        stroke="rgba(240,246,252,0.06)" stroke-width="1" stroke-dasharray="3,4"/>
  <text x="36" y="128.0" font-size="9" fill="#7d8590"
        font-family="-apple-system,BlinkMacSystemFont,'Segoe UI',sans-serif" text-anchor="end">3</text>
  <line x1="40" y1="148.0" x2="780" y2="148.0"
        stroke="rgba(240,246,252,0.06)" stroke-width="1" stroke-dasharray="3,4"/>
  <text x="36" y="152.0" font-size="9" fill="#7d8590"
        font-family="-apple-system,BlinkMacSystemFont,'Segoe UI',sans-serif" text-anchor="end">0</text>
  
  <line x1="40" y1="148" x2="780" y2="148"
        stroke="rgba(240,246,252,0.06)" stroke-width="1"/>

  <!-- Area fill -->
  <path d="M 40.0,132.3 C 44.1,119.0 56.4,63.3 64.7,52.0 C 72.9,40.7 81.1,60.6 89.3,64.5 C 97.6,68.4 105.8,73.6 114.0,75.5 C 122.2,77.3 130.4,75.5 138.7,75.5 C 146.9,75.5 155.1,75.0 163.3,75.5 C 171.6,76.0 179.8,76.9 188.0,78.4 C 196.2,79.9 204.4,77.4 212.7,84.4 C 220.9,91.4 229.1,114.5 237.3,120.2 C 245.6,125.8 253.8,118.4 262.0,118.2 C 270.2,118.0 278.4,119.0 286.7,119.2 C 294.9,119.3 303.1,119.2 311.3,119.2 C 319.6,119.2 327.8,119.2 336.0,119.2 C 344.2,119.2 352.4,119.3 360.7,119.2 C 368.9,119.0 377.1,114.4 385.3,118.2 C 393.6,122.0 401.8,137.2 410.0,142.0 C 418.2,146.8 426.4,146.3 434.7,147.0 C 442.9,147.7 451.1,146.2 459.3,146.0 C 467.6,145.8 475.8,146.0 484.0,146.0 C 492.2,146.0 500.4,146.0 508.7,146.0 C 516.9,146.0 525.1,145.8 533.3,146.0 C 541.6,146.2 549.8,146.8 558.0,147.0 C 566.2,147.2 574.4,147.0 582.7,147.0 C 590.9,147.0 599.1,146.8 607.3,147.0 C 615.6,147.2 623.8,147.8 632.0,148.0 C 640.2,148.2 648.4,148.0 656.7,148.0 C 664.9,148.0 673.1,148.0 681.3,148.0 C 689.6,148.0 697.8,148.0 706.0,148.0 C 714.2,148.0 722.4,148.0 730.7,148.0 C 738.9,148.0 747.1,148.0 755.3,148.0 C 763.6,148.0 775.9,148.0 780.0,148.0 L 780.0,148 L 40.0,148 Z" fill="url(#area-k0noa)"/>

  <!-- Line -->
  <path d="M 40.0,132.3 C 44.1,119.0 56.4,63.3 64.7,52.0 C 72.9,40.7 81.1,60.6 89.3,64.5 C 97.6,68.4 105.8,73.6 114.0,75.5 C 122.2,77.3 130.4,75.5 138.7,75.5 C 146.9,75.5 155.1,75.0 163.3,75.5 C 171.6,76.0 179.8,76.9 188.0,78.4 C 196.2,79.9 204.4,77.4 212.7,84.4 C 220.9,91.4 229.1,114.5 237.3,120.2 C 245.6,125.8 253.8,118.4 262.0,118.2 C 270.2,118.0 278.4,119.0 286.7,119.2 C 294.9,119.3 303.1,119.2 311.3,119.2 C 319.6,119.2 327.8,119.2 336.0,119.2 C 344.2,119.2 352.4,119.3 360.7,119.2 C 368.9,119.0 377.1,114.4 385.3,118.2 C 393.6,122.0 401.8,137.2 410.0,142.0 C 418.2,146.8 426.4,146.3 434.7,147.0 C 442.9,147.7 451.1,146.2 459.3,146.0 C 467.6,145.8 475.8,146.0 484.0,146.0 C 492.2,146.0 500.4,146.0 508.7,146.0 C 516.9,146.0 525.1,145.8 533.3,146.0 C 541.6,146.2 549.8,146.8 558.0,147.0 C 566.2,147.2 574.4,147.0 582.7,147.0 C 590.9,147.0 599.1,146.8 607.3,147.0 C 615.6,147.2 623.8,147.8 632.0,148.0 C 640.2,148.2 648.4,148.0 656.7,148.0 C 664.9,148.0 673.1,148.0 681.3,148.0 C 689.6,148.0 697.8,148.0 706.0,148.0 C 714.2,148.0 722.4,148.0 730.7,148.0 C 738.9,148.0 747.1,148.0 755.3,148.0 C 763.6,148.0 775.9,148.0 780.0,148.0" fill="none"
        stroke="#58a6ff" stroke-width="2"
        stroke-linejoin="round" stroke-linecap="round"
        />

  <!-- Peak dots -->
  
  <circle cx="138.7" cy="75.5" r="3"
          fill="#58a6ff" >
    <title>60 contributions on Fri, Jun 19, 2026</title>
  </circle>
  <circle cx="163.3" cy="75.5" r="3"
          fill="#58a6ff" >
    <title>3 contributions on Sat, Jun 20, 2026</title>
  </circle>
  <circle cx="64.7" cy="52.0" r="3"
          fill="#58a6ff" >
    <title>0 contributions on Tue, Jun 16, 2026</title>
  </circle>

  
  <text x="40.0" y="162"
        font-size="10" fill="#7d8590"
        font-family="-apple-system,BlinkMacSystemFont,'Segoe UI',sans-serif">Jun</text>
  <text x="434.7" y="162"
        font-size="10" fill="#7d8590"
        font-family="-apple-system,BlinkMacSystemFont,'Segoe UI',sans-serif">Jul</text>
  
  <text x="40" y="178"
        font-size="11" font-weight="600" fill="#58a6ff"
        font-family="-apple-system,BlinkMacSystemFont,'Segoe UI',sans-serif">
    104 contributions
  </text>
  <text x="40" y="193"
        font-size="10" fill="#7d8590"
        font-family="-apple-system,BlinkMacSystemFont,'Segoe UI',sans-serif">
    99 commits · 0 PRs · 0 issues · 0 reviews
  </text>
  <text x="780" y="193"
        font-size="10" fill="#7d8590" text-anchor="end"
        font-family="-apple-system,BlinkMacSystemFont,'Segoe UI',sans-serif">
    Updated Jul 15, 2026
  </text>
</svg>