<svg
  xmlns="http://www.w3.org/2000/svg"
  width="800" height="200"
  viewBox="0 0 800 200"
  role="img"
  aria-label="Ansh Yadav's GitHub contribution graph"
>
  <defs>
    
  <linearGradient id="area-hgaym" x1="0" y1="0" x2="0" y2="1">
    <stop offset="0%"   stop-color="rgba(121,192,255,0.25)"/>
    <stop offset="100%" stop-color="rgba(121,192,255,0)"/>
  </linearGradient>
    
  </defs>

  <!-- Background -->
  <rect width="800" height="200" rx="6" fill="#010409"/>

  
  <text x="40" y="32" font-size="14" font-weight="600" fill="#f0f6fc"
        font-family="-apple-system,BlinkMacSystemFont,'Segoe UI',sans-serif" >
    Ansh Yadav's Contributions
  </text>
  
  <line x1="40" y1="76.0" x2="780" y2="76.0"
        stroke="rgba(240,246,252,0.1)" stroke-width="1" stroke-dasharray="3,4"/>
  <text x="36" y="80.0" font-size="9" fill="#b3b3b3"
        font-family="-apple-system,BlinkMacSystemFont,'Segoe UI',sans-serif" text-anchor="end">8</text>
  <line x1="40" y1="100.0" x2="780" y2="100.0"
        stroke="rgba(240,246,252,0.1)" stroke-width="1" stroke-dasharray="3,4"/>
  <text x="36" y="104.0" font-size="9" fill="#b3b3b3"
        font-family="-apple-system,BlinkMacSystemFont,'Segoe UI',sans-serif" text-anchor="end">5</text>
  <line x1="40" y1="124.0" x2="780" y2="124.0"
        stroke="rgba(240,246,252,0.1)" stroke-width="1" stroke-dasharray="3,4"/>
  <text x="36" y="128.0" font-size="9" fill="#b3b3b3"
        font-family="-apple-system,BlinkMacSystemFont,'Segoe UI',sans-serif" text-anchor="end">3</text>
  <line x1="40" y1="148.0" x2="780" y2="148.0"
        stroke="rgba(240,246,252,0.1)" stroke-width="1" stroke-dasharray="3,4"/>
  <text x="36" y="152.0" font-size="9" fill="#b3b3b3"
        font-family="-apple-system,BlinkMacSystemFont,'Segoe UI',sans-serif" text-anchor="end">0</text>
  
  <line x1="40" y1="148" x2="780" y2="148"
        stroke="rgba(240,246,252,0.1)" stroke-width="1"/>

  <!-- Area fill -->
  <path d="M 40.0,148.0 C 40.3,148.0 41.4,148.0 42.0,148.0 C 42.7,148.0 43.4,148.0 44.1,148.0 C 44.7,148.0 45.4,148.0 46.1,148.0 C 46.8,148.0 47.4,148.0 48.1,148.0 C 48.8,148.0 49.5,148.0 50.1,148.0 C 50.8,148.0 51.5,148.9 52.2,148.0 C 52.8,147.1 53.5,143.6 54.2,142.7 C 54.9,141.9 55.5,142.7 56.2,142.7 C 56.9,142.7 57.6,142.7 58.2,142.7 C 58.9,142.7 59.6,142.7 60.3,142.7 C 60.9,142.7 61.6,142.7 62.3,142.7 C 63.0,142.7 63.7,142.7 64.3,142.7 C 65.0,142.7 65.7,141.9 66.4,142.7 C 67.0,143.6 67.7,147.1 68.4,148.0 C 69.1,148.9 69.7,148.0 70.4,148.0 C 71.1,148.0 71.8,148.0 72.4,148.0 C 73.1,148.0 73.8,148.0 74.5,148.0 C 75.1,148.0 75.8,148.0 76.5,148.0 C 77.2,148.0 77.8,148.0 78.5,148.0 C 79.2,148.0 79.9,148.0 80.5,148.0 C 81.2,148.0 81.9,148.0 82.6,148.0 C 83.3,148.0 83.9,148.0 84.6,148.0 C 85.3,148.0 86.0,148.0 86.6,148.0 C 87.3,148.0 88.0,148.0 88.7,148.0 C 89.3,148.0 90.0,148.0 90.7,148.0 C 91.4,148.0 92.0,148.0 92.7,148.0 C 93.4,148.0 94.1,148.0 94.7,148.0 C 95.4,148.0 96.1,148.0 96.8,148.0 C 97.4,148.0 98.1,152.6 98.8,148.0 C 99.5,143.4 100.1,127.4 100.8,120.4 C 101.5,113.4 102.2,108.3 102.8,105.9 C 103.5,103.5 104.2,105.9 104.9,105.9 C 105.6,105.9 106.2,105.9 106.9,105.9 C 107.6,105.9 108.3,107.9 108.9,105.9 C 109.6,103.9 110.3,96.1 111.0,94.1 C 111.6,92.1 112.3,89.5 113.0,94.1 C 113.7,98.7 114.3,114.7 115.0,121.7 C 115.7,128.7 116.4,133.8 117.0,136.2 C 117.7,138.6 118.4,136.2 119.1,136.2 C 119.7,136.2 120.4,136.2 121.1,136.2 C 121.8,136.2 122.4,134.2 123.1,136.2 C 123.8,138.1 124.5,146.0 125.2,148.0 C 125.8,150.0 126.5,148.0 127.2,148.0 C 127.9,148.0 128.5,148.0 129.2,148.0 C 129.9,148.0 130.6,148.4 131.2,148.0 C 131.9,147.6 132.6,145.8 133.3,145.4 C 133.9,144.9 134.6,145.4 135.3,145.4 C 136.0,145.4 136.6,145.4 137.3,145.4 C 138.0,145.4 138.7,145.4 139.3,145.4 C 140.0,145.4 140.7,145.4 141.4,145.4 C 142.0,145.4 142.7,145.4 143.4,145.4 C 144.1,145.4 144.7,144.9 145.4,145.4 C 146.1,145.8 146.8,147.6 147.5,148.0 C 148.1,148.4 148.8,148.0 149.5,148.0 C 150.2,148.0 150.8,148.0 151.5,148.0 C 152.2,148.0 152.9,148.0 153.5,148.0 C 154.2,148.0 154.9,150.0 155.6,148.0 C 156.2,146.0 156.9,138.1 157.6,136.2 C 158.3,134.2 158.9,136.2 159.6,136.2 C 160.3,136.2 161.0,136.2 161.6,136.2 C 162.3,136.2 163.0,136.2 163.7,136.2 C 164.3,136.2 165.0,136.2 165.7,136.2 C 166.4,136.2 167.1,136.2 167.7,136.2 C 168.4,136.2 169.1,134.2 169.8,136.2 C 170.4,138.1 171.1,146.0 171.8,148.0 C 172.5,150.0 173.1,148.0 173.8,148.0 C 174.5,148.0 175.2,148.0 175.8,148.0 C 176.5,148.0 177.2,148.0 177.9,148.0 C 178.5,148.0 179.2,148.0 179.9,148.0 C 180.6,148.0 181.2,148.0 181.9,148.0 C 182.6,148.0 183.3,148.0 183.9,148.0 C 184.6,148.0 185.3,148.0 186.0,148.0 C 186.6,148.0 187.3,148.0 188.0,148.0 C 188.7,148.0 189.4,148.0 190.0,148.0 C 190.7,148.0 191.4,148.0 192.1,148.0 C 192.7,148.0 193.4,148.0 194.1,148.0 C 194.8,148.0 195.4,148.0 196.1,148.0 C 196.8,148.0 197.5,148.0 198.1,148.0 C 198.8,148.0 199.5,148.0 200.2,148.0 C 200.8,148.0 201.5,148.0 202.2,148.0 C 202.9,148.0 203.5,148.0 204.2,148.0 C 204.9,148.0 205.6,148.0 206.2,148.0 C 206.9,148.0 207.6,148.0 208.3,148.0 C 208.9,148.0 209.6,148.0 210.3,148.0 C 211.0,148.0 211.7,148.0 212.3,148.0 C 213.0,148.0 213.7,148.0 214.4,148.0 C 215.0,148.0 215.7,148.0 216.4,148.0 C 217.1,148.0 217.7,148.0 218.4,148.0 C 219.1,148.0 219.8,148.0 220.4,148.0 C 221.1,148.0 221.8,148.0 222.5,148.0 C 223.1,148.0 223.8,148.0 224.5,148.0 C 225.2,148.0 225.8,148.0 226.5,148.0 C 227.2,148.0 227.9,148.0 228.5,148.0 C 229.2,148.0 229.9,148.0 230.6,148.0 C 231.3,148.0 231.9,148.0 232.6,148.0 C 233.3,148.0 234.0,148.0 234.6,148.0 C 235.3,148.0 236.0,148.7 236.7,148.0 C 237.3,147.3 238.0,144.9 238.7,144.1 C 239.4,143.2 240.0,144.3 240.7,142.7 C 241.4,141.2 242.1,136.2 242.7,134.8 C 243.4,133.5 244.1,134.8 244.8,134.8 C 245.4,134.8 246.1,134.8 246.8,134.8 C 247.5,134.8 248.1,135.5 248.8,134.8 C 249.5,134.2 250.2,130.9 250.8,130.9 C 251.5,130.9 252.2,134.0 252.9,134.8 C 253.6,135.7 254.2,134.6 254.9,136.2 C 255.6,137.7 256.3,142.7 256.9,144.1 C 257.6,145.4 258.3,144.1 259.0,144.1 C 259.6,144.1 260.3,144.1 261.0,144.1 C 261.7,144.1 262.3,143.4 263.0,144.1 C 263.7,144.7 264.4,147.3 265.0,148.0 C 265.7,148.7 266.4,148.0 267.1,148.0 C 267.7,148.0 268.4,148.0 269.1,148.0 C 269.8,148.0 270.4,148.0 271.1,148.0 C 271.8,148.0 272.5,148.0 273.2,148.0 C 273.8,148.0 274.5,148.0 275.2,148.0 C 275.9,148.0 276.5,148.0 277.2,148.0 C 277.9,148.0 278.6,148.0 279.2,148.0 C 279.9,148.0 280.6,148.7 281.3,148.0 C 281.9,147.3 282.6,145.2 283.3,144.1 C 284.0,143.0 284.6,141.9 285.3,141.4 C 286.0,141.0 286.7,141.4 287.3,141.4 C 288.0,141.4 288.7,141.4 289.4,141.4 C 290.0,141.4 290.7,141.4 291.4,141.4 C 292.1,141.4 292.7,141.4 293.4,141.4 C 294.1,141.4 294.8,140.8 295.5,141.4 C 296.1,142.1 296.8,144.3 297.5,145.4 C 298.2,146.5 298.8,147.6 299.5,148.0 C 300.2,148.4 300.9,148.0 301.5,148.0 C 302.2,148.0 302.9,148.0 303.6,148.0 C 304.2,148.0 304.9,148.0 305.6,148.0 C 306.3,148.0 306.9,148.0 307.6,148.0 C 308.3,148.0 309.0,148.0 309.6,148.0 C 310.3,148.0 311.0,148.0 311.7,148.0 C 312.3,148.0 313.0,148.0 313.7,148.0 C 314.4,148.0 315.1,148.0 315.7,148.0 C 316.4,148.0 317.1,148.0 317.8,148.0 C 318.4,148.0 319.1,148.0 319.8,148.0 C 320.5,148.0 321.1,148.0 321.8,148.0 C 322.5,148.0 323.2,148.0 323.8,148.0 C 324.5,148.0 325.2,148.0 325.9,148.0 C 326.5,148.0 327.2,148.0 327.9,148.0 C 328.6,148.0 329.2,148.0 329.9,148.0 C 330.6,148.0 331.3,148.0 331.9,148.0 C 332.6,148.0 333.3,148.0 334.0,148.0 C 334.6,148.0 335.3,148.0 336.0,148.0 C 336.7,148.0 337.4,148.0 338.0,148.0 C 338.7,148.0 339.4,148.0 340.1,148.0 C 340.7,148.0 341.4,148.0 342.1,148.0 C 342.8,148.0 343.4,148.0 344.1,148.0 C 344.8,148.0 345.5,148.0 346.1,148.0 C 346.8,148.0 347.5,148.0 348.2,148.0 C 348.8,148.0 349.5,148.0 350.2,148.0 C 350.9,148.0 351.5,148.0 352.2,148.0 C 352.9,148.0 353.6,148.0 354.2,148.0 C 354.9,148.0 355.6,148.0 356.3,148.0 C 356.9,148.0 357.6,148.0 358.3,148.0 C 359.0,148.0 359.7,148.0 360.3,148.0 C 361.0,148.0 361.7,148.0 362.4,148.0 C 363.0,148.0 363.7,148.0 364.4,148.0 C 365.1,148.0 365.7,148.0 366.4,148.0 C 367.1,148.0 367.8,148.0 368.4,148.0 C 369.1,148.0 369.8,148.0 370.5,148.0 C 371.1,148.0 371.8,148.0 372.5,148.0 C 373.2,148.0 373.8,148.0 374.5,148.0 C 375.2,148.0 375.9,148.0 376.5,148.0 C 377.2,148.0 377.9,148.0 378.6,148.0 C 379.3,148.0 379.9,148.0 380.6,148.0 C 381.3,148.0 382.0,148.0 382.6,148.0 C 383.3,148.0 384.0,148.0 384.7,148.0 C 385.3,148.0 386.0,148.0 386.7,148.0 C 387.4,148.0 388.0,148.0 388.7,148.0 C 389.4,148.0 390.1,148.0 390.7,148.0 C 391.4,148.0 392.1,148.0 392.8,148.0 C 393.4,148.0 394.1,148.0 394.8,148.0 C 395.5,148.0 396.1,148.0 396.8,148.0 C 397.5,148.0 398.2,148.0 398.8,148.0 C 399.5,148.0 400.2,148.0 400.9,148.0 C 401.6,148.0 402.2,148.0 402.9,148.0 C 403.6,148.0 404.3,148.0 404.9,148.0 C 405.6,148.0 406.3,148.0 407.0,148.0 C 407.6,148.0 408.3,148.0 409.0,148.0 C 409.7,148.0 410.3,148.0 411.0,148.0 C 411.7,148.0 412.4,148.0 413.0,148.0 C 413.7,148.0 414.4,148.0 415.1,148.0 C 415.7,148.0 416.4,148.0 417.1,148.0 C 417.8,148.0 418.4,148.0 419.1,148.0 C 419.8,148.0 420.5,148.0 421.2,148.0 C 421.8,148.0 422.5,148.0 423.2,148.0 C 423.9,148.0 424.5,148.0 425.2,148.0 C 425.9,148.0 426.6,148.0 427.2,148.0 C 427.9,148.0 428.6,148.0 429.3,148.0 C 429.9,148.0 430.6,148.0 431.3,148.0 C 432.0,148.0 432.6,148.0 433.3,148.0 C 434.0,148.0 434.7,148.0 435.3,148.0 C 436.0,148.0 436.7,148.0 437.4,148.0 C 438.0,148.0 438.7,148.0 439.4,148.0 C 440.1,148.0 440.7,148.0 441.4,148.0 C 442.1,148.0 442.8,148.0 443.5,148.0 C 444.1,148.0 444.8,148.0 445.5,148.0 C 446.2,148.0 446.8,148.0 447.5,148.0 C 448.2,148.0 448.9,148.0 449.5,148.0 C 450.2,148.0 450.9,148.0 451.6,148.0 C 452.2,148.0 452.9,148.0 453.6,148.0 C 454.3,148.0 454.9,148.0 455.6,148.0 C 456.3,148.0 457.0,148.0 457.6,148.0 C 458.3,148.0 459.0,148.0 459.7,148.0 C 460.3,148.0 461.0,148.0 461.7,148.0 C 462.4,148.0 463.1,148.0 463.7,148.0 C 464.4,148.0 465.1,148.0 465.8,148.0 C 466.4,148.0 467.1,148.0 467.8,148.0 C 468.5,148.0 469.1,148.0 469.8,148.0 C 470.5,148.0 471.2,148.0 471.8,148.0 C 472.5,148.0 473.2,148.0 473.9,148.0 C 474.5,148.0 475.2,148.0 475.9,148.0 C 476.6,148.0 477.2,148.0 477.9,148.0 C 478.6,148.0 479.3,148.0 479.9,148.0 C 480.6,148.0 481.3,148.0 482.0,148.0 C 482.6,148.0 483.3,148.0 484.0,148.0 C 484.7,148.0 485.4,148.0 486.0,148.0 C 486.7,148.0 487.4,148.0 488.1,148.0 C 488.7,148.0 489.4,148.0 490.1,148.0 C 490.8,148.0 491.4,148.0 492.1,148.0 C 492.8,148.0 493.5,148.0 494.1,148.0 C 494.8,148.0 495.5,148.0 496.2,148.0 C 496.8,148.0 497.5,148.0 498.2,148.0 C 498.9,148.0 499.5,148.0 500.2,148.0 C 500.9,148.0 501.6,148.0 502.2,148.0 C 502.9,148.0 503.6,148.0 504.3,148.0 C 504.9,148.0 505.6,148.0 506.3,148.0 C 507.0,148.0 507.7,148.0 508.3,148.0 C 509.0,148.0 509.7,148.0 510.4,148.0 C 511.0,148.0 511.7,148.0 512.4,148.0 C 513.1,148.0 513.7,148.0 514.4,148.0 C 515.1,148.0 515.8,148.0 516.4,148.0 C 517.1,148.0 517.8,148.0 518.5,148.0 C 519.1,148.0 519.8,148.0 520.5,148.0 C 521.2,148.0 521.8,148.0 522.5,148.0 C 523.2,148.0 523.9,148.0 524.5,148.0 C 525.2,148.0 525.9,148.0 526.6,148.0 C 527.3,148.0 527.9,148.0 528.6,148.0 C 529.3,148.0 530.0,148.0 530.6,148.0 C 531.3,148.0 532.0,148.0 532.7,148.0 C 533.3,148.0 534.0,148.0 534.7,148.0 C 535.4,148.0 536.0,148.0 536.7,148.0 C 537.4,148.0 538.1,148.0 538.7,148.0 C 539.4,148.0 540.1,148.0 540.8,148.0 C 541.4,148.0 542.1,148.0 542.8,148.0 C 543.5,148.0 544.1,148.0 544.8,148.0 C 545.5,148.0 546.2,148.0 546.8,148.0 C 547.5,148.0 548.2,148.0 548.9,148.0 C 549.6,148.0 550.2,148.0 550.9,148.0 C 551.6,148.0 552.3,148.0 552.9,148.0 C 553.6,148.0 554.3,148.0 555.0,148.0 C 555.6,148.0 556.3,148.0 557.0,148.0 C 557.7,148.0 558.3,148.0 559.0,148.0 C 559.7,148.0 560.4,148.0 561.0,148.0 C 561.7,148.0 562.4,148.0 563.1,148.0 C 563.7,148.0 564.4,148.0 565.1,148.0 C 565.8,148.0 566.4,148.0 567.1,148.0 C 567.8,148.0 568.5,148.0 569.2,148.0 C 569.8,148.0 570.5,148.0 571.2,148.0 C 571.9,148.0 572.5,148.0 573.2,148.0 C 573.9,148.0 574.6,148.0 575.2,148.0 C 575.9,148.0 576.6,148.0 577.3,148.0 C 577.9,148.0 578.6,148.0 579.3,148.0 C 580.0,148.0 580.6,148.0 581.3,148.0 C 582.0,148.0 582.7,148.0 583.3,148.0 C 584.0,148.0 584.7,148.0 585.4,148.0 C 586.0,148.0 586.7,148.0 587.4,148.0 C 588.1,148.0 588.7,148.0 589.4,148.0 C 590.1,148.0 590.8,148.0 591.5,148.0 C 592.1,148.0 592.8,148.0 593.5,148.0 C 594.2,148.0 594.8,148.0 595.5,148.0 C 596.2,148.0 596.9,148.0 597.5,148.0 C 598.2,148.0 598.9,148.0 599.6,148.0 C 600.2,148.0 600.9,148.0 601.6,148.0 C 602.3,148.0 602.9,148.0 603.6,148.0 C 604.3,148.0 605.0,148.0 605.6,148.0 C 606.3,148.0 607.0,148.0 607.7,148.0 C 608.3,148.0 609.0,148.0 609.7,148.0 C 610.4,148.0 611.1,148.0 611.7,148.0 C 612.4,148.0 613.1,148.0 613.8,148.0 C 614.4,148.0 615.1,148.0 615.8,148.0 C 616.5,148.0 617.1,148.0 617.8,148.0 C 618.5,148.0 619.2,148.0 619.8,148.0 C 620.5,148.0 621.2,148.0 621.9,148.0 C 622.5,148.0 623.2,148.0 623.9,148.0 C 624.6,148.0 625.2,148.0 625.9,148.0 C 626.6,148.0 627.3,148.0 627.9,148.0 C 628.6,148.0 629.3,152.2 630.0,148.0 C 630.6,143.8 631.3,127.2 632.0,123.0 C 632.7,118.8 633.4,123.0 634.0,123.0 C 634.7,123.0 635.4,123.0 636.1,123.0 C 636.7,123.0 637.4,123.0 638.1,123.0 C 638.8,123.0 639.4,123.0 640.1,123.0 C 640.8,123.0 641.5,123.0 642.1,123.0 C 642.8,123.0 643.5,118.8 644.2,123.0 C 644.8,127.2 645.5,143.8 646.2,148.0 C 646.9,152.2 647.5,148.0 648.2,148.0 C 648.9,148.0 649.6,148.0 650.2,148.0 C 650.9,148.0 651.6,148.0 652.3,148.0 C 652.9,148.0 653.6,148.0 654.3,148.0 C 655.0,148.0 655.7,148.0 656.3,148.0 C 657.0,148.0 657.7,148.0 658.4,148.0 C 659.0,148.0 659.7,148.0 660.4,148.0 C 661.1,148.0 661.7,148.0 662.4,148.0 C 663.1,148.0 663.8,148.0 664.4,148.0 C 665.1,148.0 665.8,148.0 666.5,148.0 C 667.1,148.0 667.8,148.0 668.5,148.0 C 669.2,148.0 669.8,148.0 670.5,148.0 C 671.2,148.0 671.9,148.0 672.5,148.0 C 673.2,148.0 673.9,148.0 674.6,148.0 C 675.3,148.0 675.9,148.0 676.6,148.0 C 677.3,148.0 678.0,148.0 678.6,148.0 C 679.3,148.0 680.0,148.0 680.7,148.0 C 681.3,148.0 682.0,148.0 682.7,148.0 C 683.4,148.0 684.0,148.0 684.7,148.0 C 685.4,148.0 686.1,148.0 686.7,148.0 C 687.4,148.0 688.1,148.0 688.8,148.0 C 689.4,148.0 690.1,148.0 690.8,148.0 C 691.5,148.0 692.1,148.0 692.8,148.0 C 693.5,148.0 694.2,148.0 694.8,148.0 C 695.5,148.0 696.2,148.0 696.9,148.0 C 697.6,148.0 698.2,148.0 698.9,148.0 C 699.6,148.0 700.3,148.0 700.9,148.0 C 701.6,148.0 702.3,148.0 703.0,148.0 C 703.6,148.0 704.3,148.0 705.0,148.0 C 705.7,148.0 706.3,148.0 707.0,148.0 C 707.7,148.0 708.4,148.0 709.0,148.0 C 709.7,148.0 710.4,148.0 711.1,148.0 C 711.7,148.0 712.4,148.0 713.1,148.0 C 713.8,148.0 714.4,148.0 715.1,148.0 C 715.8,148.0 716.5,148.0 717.2,148.0 C 717.8,148.0 718.5,148.0 719.2,148.0 C 719.9,148.0 720.5,148.0 721.2,148.0 C 721.9,148.0 722.6,148.0 723.2,148.0 C 723.9,148.0 724.6,148.0 725.3,148.0 C 725.9,148.0 726.6,148.0 727.3,148.0 C 728.0,148.0 728.6,148.0 729.3,148.0 C 730.0,148.0 730.7,148.0 731.3,148.0 C 732.0,148.0 732.7,148.0 733.4,148.0 C 734.0,148.0 734.7,148.0 735.4,148.0 C 736.1,148.0 736.7,148.0 737.4,148.0 C 738.1,148.0 738.8,148.0 739.5,148.0 C 740.1,148.0 740.8,148.0 741.5,148.0 C 742.2,148.0 742.8,148.0 743.5,148.0 C 744.2,148.0 744.9,148.0 745.5,148.0 C 746.2,148.0 746.9,148.0 747.6,148.0 C 748.2,148.0 748.9,148.0 749.6,148.0 C 750.3,148.0 750.9,148.0 751.6,148.0 C 752.3,148.0 753.0,148.7 753.6,148.0 C 754.3,147.3 755.0,146.0 755.7,144.1 C 756.3,142.1 757.0,150.6 757.7,136.2 C 758.4,121.7 759.1,71.1 759.7,57.3 C 760.4,43.5 761.1,54.2 761.8,53.3 C 762.4,52.4 763.1,52.2 763.8,52.0 C 764.5,51.8 765.1,52.0 765.8,52.0 C 766.5,52.0 767.2,51.3 767.8,52.0 C 768.5,52.7 769.2,54.0 769.9,55.9 C 770.5,57.9 771.2,51.1 771.9,63.8 C 772.6,76.5 773.2,120.5 773.9,132.2 C 774.6,143.9 775.3,134.0 775.9,134.2 C 776.6,134.4 777.3,134.0 778.0,133.3 C 778.6,132.5 779.7,130.2 780.0,129.6 L 780.0,148 L 40.0,148 Z" fill="url(#area-hgaym)"/>

  <!-- Line -->
  <path d="M 40.0,148.0 C 40.3,148.0 41.4,148.0 42.0,148.0 C 42.7,148.0 43.4,148.0 44.1,148.0 C 44.7,148.0 45.4,148.0 46.1,148.0 C 46.8,148.0 47.4,148.0 48.1,148.0 C 48.8,148.0 49.5,148.0 50.1,148.0 C 50.8,148.0 51.5,148.9 52.2,148.0 C 52.8,147.1 53.5,143.6 54.2,142.7 C 54.9,141.9 55.5,142.7 56.2,142.7 C 56.9,142.7 57.6,142.7 58.2,142.7 C 58.9,142.7 59.6,142.7 60.3,142.7 C 60.9,142.7 61.6,142.7 62.3,142.7 C 63.0,142.7 63.7,142.7 64.3,142.7 C 65.0,142.7 65.7,141.9 66.4,142.7 C 67.0,143.6 67.7,147.1 68.4,148.0 C 69.1,148.9 69.7,148.0 70.4,148.0 C 71.1,148.0 71.8,148.0 72.4,148.0 C 73.1,148.0 73.8,148.0 74.5,148.0 C 75.1,148.0 75.8,148.0 76.5,148.0 C 77.2,148.0 77.8,148.0 78.5,148.0 C 79.2,148.0 79.9,148.0 80.5,148.0 C 81.2,148.0 81.9,148.0 82.6,148.0 C 83.3,148.0 83.9,148.0 84.6,148.0 C 85.3,148.0 86.0,148.0 86.6,148.0 C 87.3,148.0 88.0,148.0 88.7,148.0 C 89.3,148.0 90.0,148.0 90.7,148.0 C 91.4,148.0 92.0,148.0 92.7,148.0 C 93.4,148.0 94.1,148.0 94.7,148.0 C 95.4,148.0 96.1,148.0 96.8,148.0 C 97.4,148.0 98.1,152.6 98.8,148.0 C 99.5,143.4 100.1,127.4 100.8,120.4 C 101.5,113.4 102.2,108.3 102.8,105.9 C 103.5,103.5 104.2,105.9 104.9,105.9 C 105.6,105.9 106.2,105.9 106.9,105.9 C 107.6,105.9 108.3,107.9 108.9,105.9 C 109.6,103.9 110.3,96.1 111.0,94.1 C 111.6,92.1 112.3,89.5 113.0,94.1 C 113.7,98.7 114.3,114.7 115.0,121.7 C 115.7,128.7 116.4,133.8 117.0,136.2 C 117.7,138.6 118.4,136.2 119.1,136.2 C 119.7,136.2 120.4,136.2 121.1,136.2 C 121.8,136.2 122.4,134.2 123.1,136.2 C 123.8,138.1 124.5,146.0 125.2,148.0 C 125.8,150.0 126.5,148.0 127.2,148.0 C 127.9,148.0 128.5,148.0 129.2,148.0 C 129.9,148.0 130.6,148.4 131.2,148.0 C 131.9,147.6 132.6,145.8 133.3,145.4 C 133.9,144.9 134.6,145.4 135.3,145.4 C 136.0,145.4 136.6,145.4 137.3,145.4 C 138.0,145.4 138.7,145.4 139.3,145.4 C 140.0,145.4 140.7,145.4 141.4,145.4 C 142.0,145.4 142.7,145.4 143.4,145.4 C 144.1,145.4 144.7,144.9 145.4,145.4 C 146.1,145.8 146.8,147.6 147.5,148.0 C 148.1,148.4 148.8,148.0 149.5,148.0 C 150.2,148.0 150.8,148.0 151.5,148.0 C 152.2,148.0 152.9,148.0 153.5,148.0 C 154.2,148.0 154.9,150.0 155.6,148.0 C 156.2,146.0 156.9,138.1 157.6,136.2 C 158.3,134.2 158.9,136.2 159.6,136.2 C 160.3,136.2 161.0,136.2 161.6,136.2 C 162.3,136.2 163.0,136.2 163.7,136.2 C 164.3,136.2 165.0,136.2 165.7,136.2 C 166.4,136.2 167.1,136.2 167.7,136.2 C 168.4,136.2 169.1,134.2 169.8,136.2 C 170.4,138.1 171.1,146.0 171.8,148.0 C 172.5,150.0 173.1,148.0 173.8,148.0 C 174.5,148.0 175.2,148.0 175.8,148.0 C 176.5,148.0 177.2,148.0 177.9,148.0 C 178.5,148.0 179.2,148.0 179.9,148.0 C 180.6,148.0 181.2,148.0 181.9,148.0 C 182.6,148.0 183.3,148.0 183.9,148.0 C 184.6,148.0 185.3,148.0 186.0,148.0 C 186.6,148.0 187.3,148.0 188.0,148.0 C 188.7,148.0 189.4,148.0 190.0,148.0 C 190.7,148.0 191.4,148.0 192.1,148.0 C 192.7,148.0 193.4,148.0 194.1,148.0 C 194.8,148.0 195.4,148.0 196.1,148.0 C 196.8,148.0 197.5,148.0 198.1,148.0 C 198.8,148.0 199.5,148.0 200.2,148.0 C 200.8,148.0 201.5,148.0 202.2,148.0 C 202.9,148.0 203.5,148.0 204.2,148.0 C 204.9,148.0 205.6,148.0 206.2,148.0 C 206.9,148.0 207.6,148.0 208.3,148.0 C 208.9,148.0 209.6,148.0 210.3,148.0 C 211.0,148.0 211.7,148.0 212.3,148.0 C 213.0,148.0 213.7,148.0 214.4,148.0 C 215.0,148.0 215.7,148.0 216.4,148.0 C 217.1,148.0 217.7,148.0 218.4,148.0 C 219.1,148.0 219.8,148.0 220.4,148.0 C 221.1,148.0 221.8,148.0 222.5,148.0 C 223.1,148.0 223.8,148.0 224.5,148.0 C 225.2,148.0 225.8,148.0 226.5,148.0 C 227.2,148.0 227.9,148.0 228.5,148.0 C 229.2,148.0 229.9,148.0 230.6,148.0 C 231.3,148.0 231.9,148.0 232.6,148.0 C 233.3,148.0 234.0,148.0 234.6,148.0 C 235.3,148.0 236.0,148.7 236.7,148.0 C 237.3,147.3 238.0,144.9 238.7,144.1 C 239.4,143.2 240.0,144.3 240.7,142.7 C 241.4,141.2 242.1,136.2 242.7,134.8 C 243.4,133.5 244.1,134.8 244.8,134.8 C 245.4,134.8 246.1,134.8 246.8,134.8 C 247.5,134.8 248.1,135.5 248.8,134.8 C 249.5,134.2 250.2,130.9 250.8,130.9 C 251.5,130.9 252.2,134.0 252.9,134.8 C 253.6,135.7 254.2,134.6 254.9,136.2 C 255.6,137.7 256.3,142.7 256.9,144.1 C 257.6,145.4 258.3,144.1 259.0,144.1 C 259.6,144.1 260.3,144.1 261.0,144.1 C 261.7,144.1 262.3,143.4 263.0,144.1 C 263.7,144.7 264.4,147.3 265.0,148.0 C 265.7,148.7 266.4,148.0 267.1,148.0 C 267.7,148.0 268.4,148.0 269.1,148.0 C 269.8,148.0 270.4,148.0 271.1,148.0 C 271.8,148.0 272.5,148.0 273.2,148.0 C 273.8,148.0 274.5,148.0 275.2,148.0 C 275.9,148.0 276.5,148.0 277.2,148.0 C 277.9,148.0 278.6,148.0 279.2,148.0 C 279.9,148.0 280.6,148.7 281.3,148.0 C 281.9,147.3 282.6,145.2 283.3,144.1 C 284.0,143.0 284.6,141.9 285.3,141.4 C 286.0,141.0 286.7,141.4 287.3,141.4 C 288.0,141.4 288.7,141.4 289.4,141.4 C 290.0,141.4 290.7,141.4 291.4,141.4 C 292.1,141.4 292.7,141.4 293.4,141.4 C 294.1,141.4 294.8,140.8 295.5,141.4 C 296.1,142.1 296.8,144.3 297.5,145.4 C 298.2,146.5 298.8,147.6 299.5,148.0 C 300.2,148.4 300.9,148.0 301.5,148.0 C 302.2,148.0 302.9,148.0 303.6,148.0 C 304.2,148.0 304.9,148.0 305.6,148.0 C 306.3,148.0 306.9,148.0 307.6,148.0 C 308.3,148.0 309.0,148.0 309.6,148.0 C 310.3,148.0 311.0,148.0 311.7,148.0 C 312.3,148.0 313.0,148.0 313.7,148.0 C 314.4,148.0 315.1,148.0 315.7,148.0 C 316.4,148.0 317.1,148.0 317.8,148.0 C 318.4,148.0 319.1,148.0 319.8,148.0 C 320.5,148.0 321.1,148.0 321.8,148.0 C 322.5,148.0 323.2,148.0 323.8,148.0 C 324.5,148.0 325.2,148.0 325.9,148.0 C 326.5,148.0 327.2,148.0 327.9,148.0 C 328.6,148.0 329.2,148.0 329.9,148.0 C 330.6,148.0 331.3,148.0 331.9,148.0 C 332.6,148.0 333.3,148.0 334.0,148.0 C 334.6,148.0 335.3,148.0 336.0,148.0 C 336.7,148.0 337.4,148.0 338.0,148.0 C 338.7,148.0 339.4,148.0 340.1,148.0 C 340.7,148.0 341.4,148.0 342.1,148.0 C 342.8,148.0 343.4,148.0 344.1,148.0 C 344.8,148.0 345.5,148.0 346.1,148.0 C 346.8,148.0 347.5,148.0 348.2,148.0 C 348.8,148.0 349.5,148.0 350.2,148.0 C 350.9,148.0 351.5,148.0 352.2,148.0 C 352.9,148.0 353.6,148.0 354.2,148.0 C 354.9,148.0 355.6,148.0 356.3,148.0 C 356.9,148.0 357.6,148.0 358.3,148.0 C 359.0,148.0 359.7,148.0 360.3,148.0 C 361.0,148.0 361.7,148.0 362.4,148.0 C 363.0,148.0 363.7,148.0 364.4,148.0 C 365.1,148.0 365.7,148.0 366.4,148.0 C 367.1,148.0 367.8,148.0 368.4,148.0 C 369.1,148.0 369.8,148.0 370.5,148.0 C 371.1,148.0 371.8,148.0 372.5,148.0 C 373.2,148.0 373.8,148.0 374.5,148.0 C 375.2,148.0 375.9,148.0 376.5,148.0 C 377.2,148.0 377.9,148.0 378.6,148.0 C 379.3,148.0 379.9,148.0 380.6,148.0 C 381.3,148.0 382.0,148.0 382.6,148.0 C 383.3,148.0 384.0,148.0 384.7,148.0 C 385.3,148.0 386.0,148.0 386.7,148.0 C 387.4,148.0 388.0,148.0 388.7,148.0 C 389.4,148.0 390.1,148.0 390.7,148.0 C 391.4,148.0 392.1,148.0 392.8,148.0 C 393.4,148.0 394.1,148.0 394.8,148.0 C 395.5,148.0 396.1,148.0 396.8,148.0 C 397.5,148.0 398.2,148.0 398.8,148.0 C 399.5,148.0 400.2,148.0 400.9,148.0 C 401.6,148.0 402.2,148.0 402.9,148.0 C 403.6,148.0 404.3,148.0 404.9,148.0 C 405.6,148.0 406.3,148.0 407.0,148.0 C 407.6,148.0 408.3,148.0 409.0,148.0 C 409.7,148.0 410.3,148.0 411.0,148.0 C 411.7,148.0 412.4,148.0 413.0,148.0 C 413.7,148.0 414.4,148.0 415.1,148.0 C 415.7,148.0 416.4,148.0 417.1,148.0 C 417.8,148.0 418.4,148.0 419.1,148.0 C 419.8,148.0 420.5,148.0 421.2,148.0 C 421.8,148.0 422.5,148.0 423.2,148.0 C 423.9,148.0 424.5,148.0 425.2,148.0 C 425.9,148.0 426.6,148.0 427.2,148.0 C 427.9,148.0 428.6,148.0 429.3,148.0 C 429.9,148.0 430.6,148.0 431.3,148.0 C 432.0,148.0 432.6,148.0 433.3,148.0 C 434.0,148.0 434.7,148.0 435.3,148.0 C 436.0,148.0 436.7,148.0 437.4,148.0 C 438.0,148.0 438.7,148.0 439.4,148.0 C 440.1,148.0 440.7,148.0 441.4,148.0 C 442.1,148.0 442.8,148.0 443.5,148.0 C 444.1,148.0 444.8,148.0 445.5,148.0 C 446.2,148.0 446.8,148.0 447.5,148.0 C 448.2,148.0 448.9,148.0 449.5,148.0 C 450.2,148.0 450.9,148.0 451.6,148.0 C 452.2,148.0 452.9,148.0 453.6,148.0 C 454.3,148.0 454.9,148.0 455.6,148.0 C 456.3,148.0 457.0,148.0 457.6,148.0 C 458.3,148.0 459.0,148.0 459.7,148.0 C 460.3,148.0 461.0,148.0 461.7,148.0 C 462.4,148.0 463.1,148.0 463.7,148.0 C 464.4,148.0 465.1,148.0 465.8,148.0 C 466.4,148.0 467.1,148.0 467.8,148.0 C 468.5,148.0 469.1,148.0 469.8,148.0 C 470.5,148.0 471.2,148.0 471.8,148.0 C 472.5,148.0 473.2,148.0 473.9,148.0 C 474.5,148.0 475.2,148.0 475.9,148.0 C 476.6,148.0 477.2,148.0 477.9,148.0 C 478.6,148.0 479.3,148.0 479.9,148.0 C 480.6,148.0 481.3,148.0 482.0,148.0 C 482.6,148.0 483.3,148.0 484.0,148.0 C 484.7,148.0 485.4,148.0 486.0,148.0 C 486.7,148.0 487.4,148.0 488.1,148.0 C 488.7,148.0 489.4,148.0 490.1,148.0 C 490.8,148.0 491.4,148.0 492.1,148.0 C 492.8,148.0 493.5,148.0 494.1,148.0 C 494.8,148.0 495.5,148.0 496.2,148.0 C 496.8,148.0 497.5,148.0 498.2,148.0 C 498.9,148.0 499.5,148.0 500.2,148.0 C 500.9,148.0 501.6,148.0 502.2,148.0 C 502.9,148.0 503.6,148.0 504.3,148.0 C 504.9,148.0 505.6,148.0 506.3,148.0 C 507.0,148.0 507.7,148.0 508.3,148.0 C 509.0,148.0 509.7,148.0 510.4,148.0 C 511.0,148.0 511.7,148.0 512.4,148.0 C 513.1,148.0 513.7,148.0 514.4,148.0 C 515.1,148.0 515.8,148.0 516.4,148.0 C 517.1,148.0 517.8,148.0 518.5,148.0 C 519.1,148.0 519.8,148.0 520.5,148.0 C 521.2,148.0 521.8,148.0 522.5,148.0 C 523.2,148.0 523.9,148.0 524.5,148.0 C 525.2,148.0 525.9,148.0 526.6,148.0 C 527.3,148.0 527.9,148.0 528.6,148.0 C 529.3,148.0 530.0,148.0 530.6,148.0 C 531.3,148.0 532.0,148.0 532.7,148.0 C 533.3,148.0 534.0,148.0 534.7,148.0 C 535.4,148.0 536.0,148.0 536.7,148.0 C 537.4,148.0 538.1,148.0 538.7,148.0 C 539.4,148.0 540.1,148.0 540.8,148.0 C 541.4,148.0 542.1,148.0 542.8,148.0 C 543.5,148.0 544.1,148.0 544.8,148.0 C 545.5,148.0 546.2,148.0 546.8,148.0 C 547.5,148.0 548.2,148.0 548.9,148.0 C 549.6,148.0 550.2,148.0 550.9,148.0 C 551.6,148.0 552.3,148.0 552.9,148.0 C 553.6,148.0 554.3,148.0 555.0,148.0 C 555.6,148.0 556.3,148.0 557.0,148.0 C 557.7,148.0 558.3,148.0 559.0,148.0 C 559.7,148.0 560.4,148.0 561.0,148.0 C 561.7,148.0 562.4,148.0 563.1,148.0 C 563.7,148.0 564.4,148.0 565.1,148.0 C 565.8,148.0 566.4,148.0 567.1,148.0 C 567.8,148.0 568.5,148.0 569.2,148.0 C 569.8,148.0 570.5,148.0 571.2,148.0 C 571.9,148.0 572.5,148.0 573.2,148.0 C 573.9,148.0 574.6,148.0 575.2,148.0 C 575.9,148.0 576.6,148.0 577.3,148.0 C 577.9,148.0 578.6,148.0 579.3,148.0 C 580.0,148.0 580.6,148.0 581.3,148.0 C 582.0,148.0 582.7,148.0 583.3,148.0 C 584.0,148.0 584.7,148.0 585.4,148.0 C 586.0,148.0 586.7,148.0 587.4,148.0 C 588.1,148.0 588.7,148.0 589.4,148.0 C 590.1,148.0 590.8,148.0 591.5,148.0 C 592.1,148.0 592.8,148.0 593.5,148.0 C 594.2,148.0 594.8,148.0 595.5,148.0 C 596.2,148.0 596.9,148.0 597.5,148.0 C 598.2,148.0 598.9,148.0 599.6,148.0 C 600.2,148.0 600.9,148.0 601.6,148.0 C 602.3,148.0 602.9,148.0 603.6,148.0 C 604.3,148.0 605.0,148.0 605.6,148.0 C 606.3,148.0 607.0,148.0 607.7,148.0 C 608.3,148.0 609.0,148.0 609.7,148.0 C 610.4,148.0 611.1,148.0 611.7,148.0 C 612.4,148.0 613.1,148.0 613.8,148.0 C 614.4,148.0 615.1,148.0 615.8,148.0 C 616.5,148.0 617.1,148.0 617.8,148.0 C 618.5,148.0 619.2,148.0 619.8,148.0 C 620.5,148.0 621.2,148.0 621.9,148.0 C 622.5,148.0 623.2,148.0 623.9,148.0 C 624.6,148.0 625.2,148.0 625.9,148.0 C 626.6,148.0 627.3,148.0 627.9,148.0 C 628.6,148.0 629.3,152.2 630.0,148.0 C 630.6,143.8 631.3,127.2 632.0,123.0 C 632.7,118.8 633.4,123.0 634.0,123.0 C 634.7,123.0 635.4,123.0 636.1,123.0 C 636.7,123.0 637.4,123.0 638.1,123.0 C 638.8,123.0 639.4,123.0 640.1,123.0 C 640.8,123.0 641.5,123.0 642.1,123.0 C 642.8,123.0 643.5,118.8 644.2,123.0 C 644.8,127.2 645.5,143.8 646.2,148.0 C 646.9,152.2 647.5,148.0 648.2,148.0 C 648.9,148.0 649.6,148.0 650.2,148.0 C 650.9,148.0 651.6,148.0 652.3,148.0 C 652.9,148.0 653.6,148.0 654.3,148.0 C 655.0,148.0 655.7,148.0 656.3,148.0 C 657.0,148.0 657.7,148.0 658.4,148.0 C 659.0,148.0 659.7,148.0 660.4,148.0 C 661.1,148.0 661.7,148.0 662.4,148.0 C 663.1,148.0 663.8,148.0 664.4,148.0 C 665.1,148.0 665.8,148.0 666.5,148.0 C 667.1,148.0 667.8,148.0 668.5,148.0 C 669.2,148.0 669.8,148.0 670.5,148.0 C 671.2,148.0 671.9,148.0 672.5,148.0 C 673.2,148.0 673.9,148.0 674.6,148.0 C 675.3,148.0 675.9,148.0 676.6,148.0 C 677.3,148.0 678.0,148.0 678.6,148.0 C 679.3,148.0 680.0,148.0 680.7,148.0 C 681.3,148.0 682.0,148.0 682.7,148.0 C 683.4,148.0 684.0,148.0 684.7,148.0 C 685.4,148.0 686.1,148.0 686.7,148.0 C 687.4,148.0 688.1,148.0 688.8,148.0 C 689.4,148.0 690.1,148.0 690.8,148.0 C 691.5,148.0 692.1,148.0 692.8,148.0 C 693.5,148.0 694.2,148.0 694.8,148.0 C 695.5,148.0 696.2,148.0 696.9,148.0 C 697.6,148.0 698.2,148.0 698.9,148.0 C 699.6,148.0 700.3,148.0 700.9,148.0 C 701.6,148.0 702.3,148.0 703.0,148.0 C 703.6,148.0 704.3,148.0 705.0,148.0 C 705.7,148.0 706.3,148.0 707.0,148.0 C 707.7,148.0 708.4,148.0 709.0,148.0 C 709.7,148.0 710.4,148.0 711.1,148.0 C 711.7,148.0 712.4,148.0 713.1,148.0 C 713.8,148.0 714.4,148.0 715.1,148.0 C 715.8,148.0 716.5,148.0 717.2,148.0 C 717.8,148.0 718.5,148.0 719.2,148.0 C 719.9,148.0 720.5,148.0 721.2,148.0 C 721.9,148.0 722.6,148.0 723.2,148.0 C 723.9,148.0 724.6,148.0 725.3,148.0 C 725.9,148.0 726.6,148.0 727.3,148.0 C 728.0,148.0 728.6,148.0 729.3,148.0 C 730.0,148.0 730.7,148.0 731.3,148.0 C 732.0,148.0 732.7,148.0 733.4,148.0 C 734.0,148.0 734.7,148.0 735.4,148.0 C 736.1,148.0 736.7,148.0 737.4,148.0 C 738.1,148.0 738.8,148.0 739.5,148.0 C 740.1,148.0 740.8,148.0 741.5,148.0 C 742.2,148.0 742.8,148.0 743.5,148.0 C 744.2,148.0 744.9,148.0 745.5,148.0 C 746.2,148.0 746.9,148.0 747.6,148.0 C 748.2,148.0 748.9,148.0 749.6,148.0 C 750.3,148.0 750.9,148.0 751.6,148.0 C 752.3,148.0 753.0,148.7 753.6,148.0 C 754.3,147.3 755.0,146.0 755.7,144.1 C 756.3,142.1 757.0,150.6 757.7,136.2 C 758.4,121.7 759.1,71.1 759.7,57.3 C 760.4,43.5 761.1,54.2 761.8,53.3 C 762.4,52.4 763.1,52.2 763.8,52.0 C 764.5,51.8 765.1,52.0 765.8,52.0 C 766.5,52.0 767.2,51.3 767.8,52.0 C 768.5,52.7 769.2,54.0 769.9,55.9 C 770.5,57.9 771.2,51.1 771.9,63.8 C 772.6,76.5 773.2,120.5 773.9,132.2 C 774.6,143.9 775.3,134.0 775.9,134.2 C 776.6,134.4 777.3,134.0 778.0,133.3 C 778.6,132.5 779.7,130.2 780.0,129.6" fill="none"
        stroke="#79c0ff" stroke-width="2"
        stroke-linejoin="round" stroke-linecap="round"
        />

  <!-- Peak dots -->
  
  <circle cx="765.8" cy="52.0" r="3"
          fill="#79c0ff" >
    <title>60 contributions on Fri, Jun 19, 2026</title>
  </circle>
  <circle cx="763.8" cy="52.0" r="3"
          fill="#79c0ff" >
    <title>6 contributions on Thu, Jun 18, 2026</title>
  </circle>
  <circle cx="767.8" cy="52.0" r="3"
          fill="#79c0ff" >
    <title>3 contributions on Sat, Jun 20, 2026</title>
  </circle>

  
  <text x="40.0" y="162"
        font-size="10" fill="#b3b3b3"
        font-family="-apple-system,BlinkMacSystemFont,'Segoe UI',sans-serif">Jun</text>
  <text x="50.1" y="162"
        font-size="10" fill="#b3b3b3"
        font-family="-apple-system,BlinkMacSystemFont,'Segoe UI',sans-serif">Jul</text>
  <text x="113.0" y="162"
        font-size="10" fill="#b3b3b3"
        font-family="-apple-system,BlinkMacSystemFont,'Segoe UI',sans-serif">Aug</text>
  <text x="175.8" y="162"
        font-size="10" fill="#b3b3b3"
        font-family="-apple-system,BlinkMacSystemFont,'Segoe UI',sans-serif">Sep</text>
  <text x="236.7" y="162"
        font-size="10" fill="#b3b3b3"
        font-family="-apple-system,BlinkMacSystemFont,'Segoe UI',sans-serif">Oct</text>
  <text x="299.5" y="162"
        font-size="10" fill="#b3b3b3"
        font-family="-apple-system,BlinkMacSystemFont,'Segoe UI',sans-serif">Nov</text>
  <text x="360.3" y="162"
        font-size="10" fill="#b3b3b3"
        font-family="-apple-system,BlinkMacSystemFont,'Segoe UI',sans-serif">Dec</text>
  <text x="423.2" y="162"
        font-size="10" fill="#b3b3b3"
        font-family="-apple-system,BlinkMacSystemFont,'Segoe UI',sans-serif">Jan</text>
  <text x="486.0" y="162"
        font-size="10" fill="#b3b3b3"
        font-family="-apple-system,BlinkMacSystemFont,'Segoe UI',sans-serif">Feb</text>
  <text x="542.8" y="162"
        font-size="10" fill="#b3b3b3"
        font-family="-apple-system,BlinkMacSystemFont,'Segoe UI',sans-serif">Mar</text>
  <text x="605.6" y="162"
        font-size="10" fill="#b3b3b3"
        font-family="-apple-system,BlinkMacSystemFont,'Segoe UI',sans-serif">Apr</text>
  <text x="666.5" y="162"
        font-size="10" fill="#b3b3b3"
        font-family="-apple-system,BlinkMacSystemFont,'Segoe UI',sans-serif">May</text>
  <text x="729.3" y="162"
        font-size="10" fill="#b3b3b3"
        font-family="-apple-system,BlinkMacSystemFont,'Segoe UI',sans-serif">Jun</text>
  
  <text x="40" y="178"
        font-size="11" font-weight="600" fill="#79c0ff"
        font-family="-apple-system,BlinkMacSystemFont,'Segoe UI',sans-serif">
    174 contributions
  </text>
  <text x="40" y="193"
        font-size="10" fill="#b3b3b3"
        font-family="-apple-system,BlinkMacSystemFont,'Segoe UI',sans-serif">
    152 commits · 0 PRs · 0 issues · 0 reviews
  </text>
  <text x="780" y="193"
        font-size="10" fill="#b3b3b3" text-anchor="end"
        font-family="-apple-system,BlinkMacSystemFont,'Segoe UI',sans-serif">
    Updated Jun 26, 2026
  </text>
</svg>