<svg
  xmlns="http://www.w3.org/2000/svg"
  width="800" height="200"
  viewBox="0 0 800 200"
  role="img"
  aria-label="Ansh Yadav's GitHub contribution graph"
>
  <defs>
    
  <linearGradient id="area-i91yp" x1="0" y1="0" x2="0" y2="1">
    <stop offset="0%"   stop-color="rgba(88,166,255,0.25)"/>
    <stop offset="100%" stop-color="rgba(88,166,255,0)"/>
  </linearGradient>
    
  </defs>

  <!-- Background -->
  <rect width="800" height="200" rx="6" fill="#0d1117"/>

  
  <text x="40" y="32" font-size="14" font-weight="600" fill="#e6edf3"
        font-family="-apple-system,BlinkMacSystemFont,'Segoe UI',sans-serif" >
    Ansh Yadav's Contributions
  </text>
  
  <line x1="40" y1="76.0" x2="780" y2="76.0"
        stroke="rgba(240,246,252,0.06)" stroke-width="1" stroke-dasharray="3,4"/>
  <text x="36" y="80.0" font-size="9" fill="#7d8590"
        font-family="-apple-system,BlinkMacSystemFont,'Segoe UI',sans-serif" text-anchor="end">3</text>
  <line x1="40" y1="100.0" x2="780" y2="100.0"
        stroke="rgba(240,246,252,0.06)" stroke-width="1" stroke-dasharray="3,4"/>
  <text x="36" y="104.0" font-size="9" fill="#7d8590"
        font-family="-apple-system,BlinkMacSystemFont,'Segoe UI',sans-serif" text-anchor="end">2</text>
  <line x1="40" y1="124.0" x2="780" y2="124.0"
        stroke="rgba(240,246,252,0.06)" stroke-width="1" stroke-dasharray="3,4"/>
  <text x="36" y="128.0" font-size="9" fill="#7d8590"
        font-family="-apple-system,BlinkMacSystemFont,'Segoe UI',sans-serif" text-anchor="end">1</text>
  <line x1="40" y1="148.0" x2="780" y2="148.0"
        stroke="rgba(240,246,252,0.06)" stroke-width="1" stroke-dasharray="3,4"/>
  <text x="36" y="152.0" font-size="9" fill="#7d8590"
        font-family="-apple-system,BlinkMacSystemFont,'Segoe UI',sans-serif" text-anchor="end">0</text>
  
  <line x1="40" y1="148" x2="780" y2="148"
        stroke="rgba(240,246,252,0.06)" stroke-width="1"/>

  <!-- Area fill -->
  <path d="M 40.0,142.4 C 44.1,142.6 56.4,158.1 64.7,143.5 C 72.9,128.9 81.1,69.9 89.3,54.7 C 97.6,39.4 105.8,51.9 114.0,52.0 C 122.2,52.1 130.4,54.7 138.7,55.2 C 146.9,55.7 155.1,55.2 163.3,55.2 C 171.6,55.2 179.8,55.2 188.0,55.2 C 196.2,55.2 204.4,55.7 212.7,55.2 C 220.9,54.7 229.1,39.7 237.3,52.0 C 245.6,64.3 253.8,113.3 262.0,128.8 C 270.2,144.3 278.4,142.7 286.7,144.8 C 294.9,146.9 303.1,142.1 311.3,141.6 C 319.6,141.1 327.8,141.6 336.0,141.6 C 344.2,141.6 352.4,141.6 360.7,141.6 C 368.9,141.6 377.1,141.1 385.3,141.6 C 393.6,142.1 401.8,144.3 410.0,144.8 C 418.2,145.3 426.4,144.8 434.7,144.8 C 442.9,144.8 451.1,144.3 459.3,144.8 C 467.6,145.3 475.8,147.5 484.0,148.0 C 492.2,148.5 500.4,148.0 508.7,148.0 C 516.9,148.0 525.1,148.0 533.3,148.0 C 541.6,148.0 549.8,148.0 558.0,148.0 C 566.2,148.0 574.4,148.0 582.7,148.0 C 590.9,148.0 599.1,148.0 607.3,148.0 C 615.6,148.0 623.8,149.1 632.0,148.0 C 640.2,146.9 648.4,142.7 656.7,141.6 C 664.9,140.5 673.1,141.6 681.3,141.6 C 689.6,141.6 697.8,141.8 706.0,141.6 C 714.2,141.4 722.4,141.0 730.7,140.5 C 738.9,140.1 747.1,139.7 755.3,139.0 C 763.6,138.4 775.9,137.2 780.0,136.8 L 780.0,148 L 40.0,148 Z" fill="url(#area-i91yp)"/>

  <!-- Line -->
  <path d="M 40.0,142.4 C 44.1,142.6 56.4,158.1 64.7,143.5 C 72.9,128.9 81.1,69.9 89.3,54.7 C 97.6,39.4 105.8,51.9 114.0,52.0 C 122.2,52.1 130.4,54.7 138.7,55.2 C 146.9,55.7 155.1,55.2 163.3,55.2 C 171.6,55.2 179.8,55.2 188.0,55.2 C 196.2,55.2 204.4,55.7 212.7,55.2 C 220.9,54.7 229.1,39.7 237.3,52.0 C 245.6,64.3 253.8,113.3 262.0,128.8 C 270.2,144.3 278.4,142.7 286.7,144.8 C 294.9,146.9 303.1,142.1 311.3,141.6 C 319.6,141.1 327.8,141.6 336.0,141.6 C 344.2,141.6 352.4,141.6 360.7,141.6 C 368.9,141.6 377.1,141.1 385.3,141.6 C 393.6,142.1 401.8,144.3 410.0,144.8 C 418.2,145.3 426.4,144.8 434.7,144.8 C 442.9,144.8 451.1,144.3 459.3,144.8 C 467.6,145.3 475.8,147.5 484.0,148.0 C 492.2,148.5 500.4,148.0 508.7,148.0 C 516.9,148.0 525.1,148.0 533.3,148.0 C 541.6,148.0 549.8,148.0 558.0,148.0 C 566.2,148.0 574.4,148.0 582.7,148.0 C 590.9,148.0 599.1,148.0 607.3,148.0 C 615.6,148.0 623.8,149.1 632.0,148.0 C 640.2,146.9 648.4,142.7 656.7,141.6 C 664.9,140.5 673.1,141.6 681.3,141.6 C 689.6,141.6 697.8,141.8 706.0,141.6 C 714.2,141.4 722.4,141.0 730.7,140.5 C 738.9,140.1 747.1,139.7 755.3,139.0 C 763.6,138.4 775.9,137.2 780.0,136.8" fill="none"
        stroke="#58a6ff" stroke-width="2"
        stroke-linejoin="round" stroke-linecap="round"
        />

  <!-- Peak dots -->
  
  <circle cx="163.3" cy="55.2" r="3"
          fill="#58a6ff" >
    <title>24 contributions on Fri, Jun 26, 2026</title>
  </circle>
  <circle cx="188.0" cy="55.2" r="3"
          fill="#58a6ff" >
    <title>5 contributions on Sat, Jun 27, 2026</title>
  </circle>
  <circle cx="114.0" cy="52.0" r="3"
          fill="#58a6ff" >
    <title>0 contributions on Wed, Jun 24, 2026</title>
  </circle>
  <circle cx="237.3" cy="52.0" r="3"
          fill="#58a6ff" >
    <title>0 contributions on Mon, Jun 29, 2026</title>
  </circle>

  
  <text x="40.0" y="162"
        font-size="10" fill="#7d8590"
        font-family="-apple-system,BlinkMacSystemFont,'Segoe UI',sans-serif">Jun</text>
  <text x="286.7" y="162"
        font-size="10" fill="#7d8590"
        font-family="-apple-system,BlinkMacSystemFont,'Segoe UI',sans-serif">Jul</text>
  
  <text x="40" y="178"
        font-size="11" font-weight="600" fill="#58a6ff"
        font-family="-apple-system,BlinkMacSystemFont,'Segoe UI',sans-serif">
    34 contributions
  </text>
  <text x="40" y="193"
        font-size="10" fill="#7d8590"
        font-family="-apple-system,BlinkMacSystemFont,'Segoe UI',sans-serif">
    31 commits · 0 PRs · 0 issues · 0 reviews
  </text>
  <text x="780" y="193"
        font-size="10" fill="#7d8590" text-anchor="end"
        font-family="-apple-system,BlinkMacSystemFont,'Segoe UI',sans-serif">
    Updated Jul 21, 2026
  </text>
</svg>