<svg
  xmlns="http://www.w3.org/2000/svg"
  width="800" height="200"
  viewBox="0 0 800 200"
  role="img"
  aria-label="Ansh Yadav's GitHub contribution graph"
>
  <defs>
    
  <linearGradient id="area-zwbbi" x1="0" y1="0" x2="0" y2="1">
    <stop offset="0%"   stop-color="rgba(88,166,255,0.25)"/>
    <stop offset="100%" stop-color="rgba(88,166,255,0)"/>
  </linearGradient>
    
  </defs>

  <!-- Background -->
  <rect width="800" height="200" rx="6" fill="#0d1117"/>

  
  <text x="40" y="32" font-size="14" font-weight="600" fill="#e6edf3"
        font-family="-apple-system,BlinkMacSystemFont,'Segoe UI',sans-serif" >
    Ansh Yadav's Contributions
  </text>
  
  <line x1="40" y1="76.0" x2="780" y2="76.0"
        stroke="rgba(240,246,252,0.06)" stroke-width="1" stroke-dasharray="3,4"/>
  <text x="36" y="80.0" font-size="9" fill="#7d8590"
        font-family="-apple-system,BlinkMacSystemFont,'Segoe UI',sans-serif" text-anchor="end">2</text>
  <line x1="40" y1="100.0" x2="780" y2="100.0"
        stroke="rgba(240,246,252,0.06)" stroke-width="1" stroke-dasharray="3,4"/>
  <text x="36" y="104.0" font-size="9" fill="#7d8590"
        font-family="-apple-system,BlinkMacSystemFont,'Segoe UI',sans-serif" text-anchor="end">1</text>
  <line x1="40" y1="124.0" x2="780" y2="124.0"
        stroke="rgba(240,246,252,0.06)" stroke-width="1" stroke-dasharray="3,4"/>
  <text x="36" y="128.0" font-size="9" fill="#7d8590"
        font-family="-apple-system,BlinkMacSystemFont,'Segoe UI',sans-serif" text-anchor="end">1</text>
  <line x1="40" y1="148.0" x2="780" y2="148.0"
        stroke="rgba(240,246,252,0.06)" stroke-width="1" stroke-dasharray="3,4"/>
  <text x="36" y="152.0" font-size="9" fill="#7d8590"
        font-family="-apple-system,BlinkMacSystemFont,'Segoe UI',sans-serif" text-anchor="end">0</text>
  
  <line x1="40" y1="148" x2="780" y2="148"
        stroke="rgba(240,246,252,0.06)" stroke-width="1"/>

  <!-- Area fill -->
  <path d="M 40.0,148.0 C 44.1,148.0 56.4,148.0 64.7,148.0 C 72.9,148.0 81.1,148.0 89.3,148.0 C 97.6,148.0 105.8,148.0 114.0,148.0 C 122.2,148.0 130.4,148.0 138.7,148.0 C 146.9,148.0 155.1,148.0 163.3,148.0 C 171.6,148.0 179.8,148.0 188.0,148.0 C 196.2,148.0 204.4,148.0 212.7,148.0 C 220.9,148.0 229.1,148.0 237.3,148.0 C 245.6,148.0 253.8,150.0 262.0,148.0 C 270.2,146.0 278.4,137.8 286.7,135.8 C 294.9,133.8 303.1,135.8 311.3,135.8 C 319.6,135.8 327.8,135.8 336.0,135.8 C 344.2,135.8 352.4,135.8 360.7,135.8 C 368.9,135.8 377.1,135.8 385.3,135.8 C 393.6,135.8 401.8,135.8 410.0,135.8 C 418.2,135.8 426.4,133.8 434.7,135.8 C 442.9,137.8 451.1,146.0 459.3,148.0 C 467.6,150.0 475.8,148.0 484.0,148.0 C 492.2,148.0 500.4,148.0 508.7,148.0 C 516.9,148.0 525.1,148.0 533.3,148.0 C 541.6,148.0 549.8,148.0 558.0,148.0 C 566.2,148.0 574.4,148.0 582.7,148.0 C 590.9,148.0 599.1,157.1 607.3,148.0 C 615.6,138.9 623.8,102.3 632.0,93.1 C 640.2,84.0 648.4,93.1 656.7,93.1 C 664.9,93.1 673.1,93.1 681.3,93.1 C 689.6,93.1 697.8,94.7 706.0,93.1 C 714.2,91.6 722.4,87.7 730.7,84.0 C 738.9,80.3 747.1,76.5 755.3,71.2 C 763.6,65.9 775.9,55.2 780.0,52.0 L 780.0,148 L 40.0,148 Z" fill="url(#area-zwbbi)"/>

  <!-- Line -->
  <path d="M 40.0,148.0 C 44.1,148.0 56.4,148.0 64.7,148.0 C 72.9,148.0 81.1,148.0 89.3,148.0 C 97.6,148.0 105.8,148.0 114.0,148.0 C 122.2,148.0 130.4,148.0 138.7,148.0 C 146.9,148.0 155.1,148.0 163.3,148.0 C 171.6,148.0 179.8,148.0 188.0,148.0 C 196.2,148.0 204.4,148.0 212.7,148.0 C 220.9,148.0 229.1,148.0 237.3,148.0 C 245.6,148.0 253.8,150.0 262.0,148.0 C 270.2,146.0 278.4,137.8 286.7,135.8 C 294.9,133.8 303.1,135.8 311.3,135.8 C 319.6,135.8 327.8,135.8 336.0,135.8 C 344.2,135.8 352.4,135.8 360.7,135.8 C 368.9,135.8 377.1,135.8 385.3,135.8 C 393.6,135.8 401.8,135.8 410.0,135.8 C 418.2,135.8 426.4,133.8 434.7,135.8 C 442.9,137.8 451.1,146.0 459.3,148.0 C 467.6,150.0 475.8,148.0 484.0,148.0 C 492.2,148.0 500.4,148.0 508.7,148.0 C 516.9,148.0 525.1,148.0 533.3,148.0 C 541.6,148.0 549.8,148.0 558.0,148.0 C 566.2,148.0 574.4,148.0 582.7,148.0 C 590.9,148.0 599.1,157.1 607.3,148.0 C 615.6,138.9 623.8,102.3 632.0,93.1 C 640.2,84.0 648.4,93.1 656.7,93.1 C 664.9,93.1 673.1,93.1 681.3,93.1 C 689.6,93.1 697.8,94.7 706.0,93.1 C 714.2,91.6 722.4,87.7 730.7,84.0 C 738.9,80.3 747.1,76.5 755.3,71.2 C 763.6,65.9 775.9,55.2 780.0,52.0" fill="none"
        stroke="#58a6ff" stroke-width="2"
        stroke-linejoin="round" stroke-linecap="round"
        />

  <!-- Peak dots -->
  

  
  <text x="40.0" y="162"
        font-size="10" fill="#7d8590"
        font-family="-apple-system,BlinkMacSystemFont,'Segoe UI',sans-serif">Jul</text>
  <text x="681.3" y="162"
        font-size="10" fill="#7d8590"
        font-family="-apple-system,BlinkMacSystemFont,'Segoe UI',sans-serif">Aug</text>
  
  <text x="40" y="178"
        font-size="11" font-weight="600" fill="#58a6ff"
        font-family="-apple-system,BlinkMacSystemFont,'Segoe UI',sans-serif">
    11 contributions
  </text>
  <text x="40" y="193"
        font-size="10" fill="#7d8590"
        font-family="-apple-system,BlinkMacSystemFont,'Segoe UI',sans-serif">
    9 commits · 0 PRs · 0 issues · 0 reviews
  </text>
  <text x="780" y="193"
        font-size="10" fill="#7d8590" text-anchor="end"
        font-family="-apple-system,BlinkMacSystemFont,'Segoe UI',sans-serif">
    Updated Aug 5, 2026
  </text>
</svg>