<svg
  xmlns="http://www.w3.org/2000/svg"
  width="800" height="200"
  viewBox="0 0 800 200"
  role="img"
  aria-label="Ansh Yadav's GitHub contribution graph"
>
  <defs>
    
  <linearGradient id="area-teasc" x1="0" y1="0" x2="0" y2="1">
    <stop offset="0%"   stop-color="rgba(127,90,240,0.4)"/>
    <stop offset="100%" stop-color="rgba(127,90,240,0)"/>
  </linearGradient>
    
  <filter id="glow-teasc">
    <feGaussianBlur stdDeviation="3" result="blur"/>
    <feMerge><feMergeNode in="blur"/><feMergeNode in="SourceGraphic"/></feMerge>
  </filter>
  </defs>

  <!-- Background -->
  <rect width="800" height="200" rx="6" fill="#0a0a0f"/>

  
  <text x="40" y="32" font-size="14" font-weight="600" fill="#00ffff"
        font-family="-apple-system,BlinkMacSystemFont,'Segoe UI',sans-serif" filter="url(#glow-teasc)">
    Ansh Yadav's Contributions
  </text>
  
  <line x1="40" y1="76.0" x2="780" y2="76.0"
        stroke="rgba(127,90,240,0.12)" stroke-width="1" stroke-dasharray="3,4"/>
  <text x="36" y="80.0" font-size="9" fill="#7f5af0"
        font-family="-apple-system,BlinkMacSystemFont,'Segoe UI',sans-serif" text-anchor="end">12</text>
  <line x1="40" y1="100.0" x2="780" y2="100.0"
        stroke="rgba(127,90,240,0.12)" stroke-width="1" stroke-dasharray="3,4"/>
  <text x="36" y="104.0" font-size="9" fill="#7f5af0"
        font-family="-apple-system,BlinkMacSystemFont,'Segoe UI',sans-serif" text-anchor="end">8</text>
  <line x1="40" y1="124.0" x2="780" y2="124.0"
        stroke="rgba(127,90,240,0.12)" stroke-width="1" stroke-dasharray="3,4"/>
  <text x="36" y="128.0" font-size="9" fill="#7f5af0"
        font-family="-apple-system,BlinkMacSystemFont,'Segoe UI',sans-serif" text-anchor="end">4</text>
  <line x1="40" y1="148.0" x2="780" y2="148.0"
        stroke="rgba(127,90,240,0.12)" stroke-width="1" stroke-dasharray="3,4"/>
  <text x="36" y="152.0" font-size="9" fill="#7f5af0"
        font-family="-apple-system,BlinkMacSystemFont,'Segoe UI',sans-serif" text-anchor="end">0</text>
  
  <line x1="40" y1="148" x2="780" y2="148"
        stroke="rgba(127,90,240,0.12)" stroke-width="1"/>

  <!-- Area fill -->
  <path d="M 40.0,52.0 C 44.1,55.2 56.4,65.9 64.7,71.2 C 72.9,76.5 81.1,80.3 89.3,84.0 C 97.6,87.7 105.8,86.5 114.0,93.1 C 122.2,99.8 130.4,119.1 138.7,124.0 C 146.9,128.9 155.1,122.4 163.3,122.3 C 171.6,122.1 179.8,123.0 188.0,123.1 C 196.2,123.3 204.4,123.1 212.7,123.1 C 220.9,123.1 229.1,123.1 237.3,123.1 C 245.6,123.1 253.8,123.3 262.0,123.1 C 270.2,123.0 278.4,119.0 286.7,122.3 C 294.9,125.6 303.1,138.7 311.3,142.9 C 319.6,147.0 327.8,146.6 336.0,147.1 C 344.2,147.7 352.4,146.4 360.7,146.3 C 368.9,146.1 377.1,146.3 385.3,146.3 C 393.6,146.3 401.8,146.3 410.0,146.3 C 418.2,146.3 426.4,146.1 434.7,146.3 C 442.9,146.4 451.1,147.0 459.3,147.1 C 467.6,147.3 475.8,147.1 484.0,147.1 C 492.2,147.1 500.4,147.0 508.7,147.1 C 516.9,147.3 525.1,147.9 533.3,148.0 C 541.6,148.1 549.8,148.0 558.0,148.0 C 566.2,148.0 574.4,148.0 582.7,148.0 C 590.9,148.0 599.1,148.0 607.3,148.0 C 615.6,148.0 623.8,148.0 632.0,148.0 C 640.2,148.0 648.4,148.0 656.7,148.0 C 664.9,148.0 673.1,148.0 681.3,148.0 C 689.6,148.0 697.8,148.0 706.0,148.0 C 714.2,148.0 722.4,148.0 730.7,148.0 C 738.9,148.0 747.1,148.0 755.3,148.0 C 763.6,148.0 775.9,148.0 780.0,148.0 L 780.0,148 L 40.0,148 Z" fill="url(#area-teasc)"/>

  <!-- Line -->
  <path d="M 40.0,52.0 C 44.1,55.2 56.4,65.9 64.7,71.2 C 72.9,76.5 81.1,80.3 89.3,84.0 C 97.6,87.7 105.8,86.5 114.0,93.1 C 122.2,99.8 130.4,119.1 138.7,124.0 C 146.9,128.9 155.1,122.4 163.3,122.3 C 171.6,122.1 179.8,123.0 188.0,123.1 C 196.2,123.3 204.4,123.1 212.7,123.1 C 220.9,123.1 229.1,123.1 237.3,123.1 C 245.6,123.1 253.8,123.3 262.0,123.1 C 270.2,123.0 278.4,119.0 286.7,122.3 C 294.9,125.6 303.1,138.7 311.3,142.9 C 319.6,147.0 327.8,146.6 336.0,147.1 C 344.2,147.7 352.4,146.4 360.7,146.3 C 368.9,146.1 377.1,146.3 385.3,146.3 C 393.6,146.3 401.8,146.3 410.0,146.3 C 418.2,146.3 426.4,146.1 434.7,146.3 C 442.9,146.4 451.1,147.0 459.3,147.1 C 467.6,147.3 475.8,147.1 484.0,147.1 C 492.2,147.1 500.4,147.0 508.7,147.1 C 516.9,147.3 525.1,147.9 533.3,148.0 C 541.6,148.1 549.8,148.0 558.0,148.0 C 566.2,148.0 574.4,148.0 582.7,148.0 C 590.9,148.0 599.1,148.0 607.3,148.0 C 615.6,148.0 623.8,148.0 632.0,148.0 C 640.2,148.0 648.4,148.0 656.7,148.0 C 664.9,148.0 673.1,148.0 681.3,148.0 C 689.6,148.0 697.8,148.0 706.0,148.0 C 714.2,148.0 722.4,148.0 730.7,148.0 C 738.9,148.0 747.1,148.0 755.3,148.0 C 763.6,148.0 775.9,148.0 780.0,148.0" fill="none"
        stroke="#7f5af0" stroke-width="2.5"
        stroke-linejoin="round" stroke-linecap="round"
        filter="url(#glow-teasc)"/>

  <!-- Peak dots -->
  

  
  <text x="40.0" y="162"
        font-size="10" fill="#7f5af0"
        font-family="-apple-system,BlinkMacSystemFont,'Segoe UI',sans-serif">Jun</text>
  <text x="336.0" y="162"
        font-size="10" fill="#7f5af0"
        font-family="-apple-system,BlinkMacSystemFont,'Segoe UI',sans-serif">Jul</text>
  
  <text x="40" y="178"
        font-size="11" font-weight="600" fill="#ff2d55"
        font-family="-apple-system,BlinkMacSystemFont,'Segoe UI',sans-serif">
    95 contributions
  </text>
  <text x="40" y="193"
        font-size="10" fill="#a786ff"
        font-family="-apple-system,BlinkMacSystemFont,'Segoe UI',sans-serif">
    92 commits · 0 PRs · 0 issues · 0 reviews
  </text>
  <text x="780" y="193"
        font-size="10" fill="#a786ff" text-anchor="end"
        font-family="-apple-system,BlinkMacSystemFont,'Segoe UI',sans-serif">
    Updated Jul 19, 2026
  </text>
</svg>