<svg
  xmlns="http://www.w3.org/2000/svg"
  width="800" height="200"
  viewBox="0 0 800 200"
  role="img"
  aria-label="Ansh Yadav's GitHub contribution graph"
>
  <defs>
    
  <linearGradient id="area-avxd5" x1="0" y1="0" x2="0" y2="1">
    <stop offset="0%"   stop-color="rgba(127,90,240,0.4)"/>
    <stop offset="100%" stop-color="rgba(127,90,240,0)"/>
  </linearGradient>
    
  <filter id="glow-avxd5">
    <feGaussianBlur stdDeviation="3" result="blur"/>
    <feMerge><feMergeNode in="blur"/><feMergeNode in="SourceGraphic"/></feMerge>
  </filter>
  </defs>

  <!-- Background -->
  <rect width="800" height="200" rx="6" fill="#0a0a0f"/>

  
  <text x="40" y="32" font-size="14" font-weight="600" fill="#00ffff"
        font-family="-apple-system,BlinkMacSystemFont,'Segoe UI',sans-serif" filter="url(#glow-avxd5)">
    Ansh Yadav's Contributions
  </text>
  
  <line x1="40" y1="76.0" x2="780" y2="76.0"
        stroke="rgba(127,90,240,0.12)" stroke-width="1" stroke-dasharray="3,4"/>
  <text x="36" y="80.0" font-size="9" fill="#7f5af0"
        font-family="-apple-system,BlinkMacSystemFont,'Segoe UI',sans-serif" text-anchor="end">2</text>
  <line x1="40" y1="100.0" x2="780" y2="100.0"
        stroke="rgba(127,90,240,0.12)" stroke-width="1" stroke-dasharray="3,4"/>
  <text x="36" y="104.0" font-size="9" fill="#7f5af0"
        font-family="-apple-system,BlinkMacSystemFont,'Segoe UI',sans-serif" text-anchor="end">2</text>
  <line x1="40" y1="124.0" x2="780" y2="124.0"
        stroke="rgba(127,90,240,0.12)" stroke-width="1" stroke-dasharray="3,4"/>
  <text x="36" y="128.0" font-size="9" fill="#7f5af0"
        font-family="-apple-system,BlinkMacSystemFont,'Segoe UI',sans-serif" text-anchor="end">1</text>
  <line x1="40" y1="148.0" x2="780" y2="148.0"
        stroke="rgba(127,90,240,0.12)" stroke-width="1" stroke-dasharray="3,4"/>
  <text x="36" y="152.0" font-size="9" fill="#7f5af0"
        font-family="-apple-system,BlinkMacSystemFont,'Segoe UI',sans-serif" text-anchor="end">0</text>
  
  <line x1="40" y1="148" x2="780" y2="148"
        stroke="rgba(127,90,240,0.12)" stroke-width="1"/>

  <!-- Area fill -->
  <path d="M 40.0,133.4 C 44.1,133.9 56.4,135.5 64.7,136.3 C 72.9,137.1 81.1,137.7 89.3,138.3 C 97.6,138.8 105.8,139.4 114.0,139.7 C 122.2,139.9 130.4,139.7 138.7,139.7 C 146.9,139.7 155.1,139.7 163.3,139.7 C 171.6,139.7 179.8,138.3 188.0,139.7 C 196.2,141.0 204.4,146.6 212.7,148.0 C 220.9,149.4 229.1,148.0 237.3,148.0 C 245.6,148.0 253.8,148.0 262.0,148.0 C 270.2,148.0 278.4,148.0 286.7,148.0 C 294.9,148.0 303.1,148.0 311.3,148.0 C 319.6,148.0 327.8,148.0 336.0,148.0 C 344.2,148.0 352.4,154.3 360.7,148.0 C 368.9,141.7 377.1,116.7 385.3,110.4 C 393.6,104.2 401.8,110.4 410.0,110.4 C 418.2,110.4 426.4,112.5 434.7,110.4 C 442.9,108.3 451.1,107.7 459.3,97.9 C 467.6,88.2 475.8,59.7 484.0,52.0 C 492.2,44.3 500.4,52.0 508.7,52.0 C 516.9,52.0 525.1,46.4 533.3,52.0 C 541.6,57.6 549.8,80.5 558.0,85.4 C 566.2,90.3 574.4,81.9 582.7,81.2 C 590.9,80.5 599.1,84.0 607.3,81.2 C 615.6,78.4 623.8,61.7 632.0,64.5 C 640.2,67.3 648.4,92.3 656.7,97.9 C 664.9,103.5 673.1,97.9 681.3,97.9 C 689.6,97.9 697.8,98.5 706.0,97.9 C 714.2,97.3 722.4,95.8 730.7,94.4 C 738.9,93.0 747.1,92.8 755.3,89.6 C 763.6,86.3 775.9,77.4 780.0,75.0 L 780.0,148 L 40.0,148 Z" fill="url(#area-avxd5)"/>

  <!-- Line -->
  <path d="M 40.0,133.4 C 44.1,133.9 56.4,135.5 64.7,136.3 C 72.9,137.1 81.1,137.7 89.3,138.3 C 97.6,138.8 105.8,139.4 114.0,139.7 C 122.2,139.9 130.4,139.7 138.7,139.7 C 146.9,139.7 155.1,139.7 163.3,139.7 C 171.6,139.7 179.8,138.3 188.0,139.7 C 196.2,141.0 204.4,146.6 212.7,148.0 C 220.9,149.4 229.1,148.0 237.3,148.0 C 245.6,148.0 253.8,148.0 262.0,148.0 C 270.2,148.0 278.4,148.0 286.7,148.0 C 294.9,148.0 303.1,148.0 311.3,148.0 C 319.6,148.0 327.8,148.0 336.0,148.0 C 344.2,148.0 352.4,154.3 360.7,148.0 C 368.9,141.7 377.1,116.7 385.3,110.4 C 393.6,104.2 401.8,110.4 410.0,110.4 C 418.2,110.4 426.4,112.5 434.7,110.4 C 442.9,108.3 451.1,107.7 459.3,97.9 C 467.6,88.2 475.8,59.7 484.0,52.0 C 492.2,44.3 500.4,52.0 508.7,52.0 C 516.9,52.0 525.1,46.4 533.3,52.0 C 541.6,57.6 549.8,80.5 558.0,85.4 C 566.2,90.3 574.4,81.9 582.7,81.2 C 590.9,80.5 599.1,84.0 607.3,81.2 C 615.6,78.4 623.8,61.7 632.0,64.5 C 640.2,67.3 648.4,92.3 656.7,97.9 C 664.9,103.5 673.1,97.9 681.3,97.9 C 689.6,97.9 697.8,98.5 706.0,97.9 C 714.2,97.3 722.4,95.8 730.7,94.4 C 738.9,93.0 747.1,92.8 755.3,89.6 C 763.6,86.3 775.9,77.4 780.0,75.0" fill="none"
        stroke="#7f5af0" stroke-width="2.5"
        stroke-linejoin="round" stroke-linecap="round"
        filter="url(#glow-avxd5)"/>

  <!-- Peak dots -->
  
  <circle cx="533.3" cy="52.0" r="3"
          fill="#e040fb" filter="url(#glow-avxd5)">
    <title>3 contributions on Wed, Aug 5, 2026</title>
  </circle>
  <circle cx="632.0" cy="64.5" r="3"
          fill="#e040fb" filter="url(#glow-avxd5)">
    <title>1 contributions on Sun, Aug 9, 2026</title>
  </circle>
  <circle cx="484.0" cy="52.0" r="3"
          fill="#e040fb" filter="url(#glow-avxd5)">
    <title>0 contributions on Mon, Aug 3, 2026</title>
  </circle>
  <circle cx="508.7" cy="52.0" r="3"
          fill="#e040fb" filter="url(#glow-avxd5)">
    <title>0 contributions on Tue, Aug 4, 2026</title>
  </circle>
  <circle cx="582.7" cy="81.2" r="3"
          fill="#e040fb" filter="url(#glow-avxd5)">
    <title>0 contributions on Fri, Aug 7, 2026</title>
  </circle>

  
  <text x="40.0" y="162"
        font-size="10" fill="#7f5af0"
        font-family="-apple-system,BlinkMacSystemFont,'Segoe UI',sans-serif">Jul</text>
  <text x="434.7" y="162"
        font-size="10" fill="#7f5af0"
        font-family="-apple-system,BlinkMacSystemFont,'Segoe UI',sans-serif">Aug</text>
  
  <text x="40" y="178"
        font-size="11" font-weight="600" fill="#ff2d55"
        font-family="-apple-system,BlinkMacSystemFont,'Segoe UI',sans-serif">
    37 contributions
  </text>
  <text x="40" y="193"
        font-size="10" fill="#a786ff"
        font-family="-apple-system,BlinkMacSystemFont,'Segoe UI',sans-serif">
    32 commits · 0 PRs · 0 issues · 0 reviews
  </text>
  <text x="780" y="193"
        font-size="10" fill="#a786ff" text-anchor="end"
        font-family="-apple-system,BlinkMacSystemFont,'Segoe UI',sans-serif">
    Updated Aug 15, 2026
  </text>
</svg>