<svg
  xmlns="http://www.w3.org/2000/svg"
  width="800" height="200"
  viewBox="0 0 800 200"
  role="img"
  aria-label="Ansh Yadav's GitHub contribution graph"
>
  <defs>
    
  <linearGradient id="area-8na3s" x1="0" y1="0" x2="0" y2="1">
    <stop offset="0%"   stop-color="rgba(88,166,255,0.25)"/>
    <stop offset="100%" stop-color="rgba(88,166,255,0)"/>
  </linearGradient>
    
  </defs>

  <!-- Background -->
  <rect width="800" height="200" rx="6" fill="#0d1117"/>

  
  <text x="40" y="32" font-size="14" font-weight="600" fill="#e6edf3"
        font-family="-apple-system,BlinkMacSystemFont,'Segoe UI',sans-serif" >
    Ansh Yadav's Contributions
  </text>
  
  <line x1="40" y1="76.0" x2="780" y2="76.0"
        stroke="rgba(240,246,252,0.06)" stroke-width="1" stroke-dasharray="3,4"/>
  <text x="36" y="80.0" font-size="9" fill="#7d8590"
        font-family="-apple-system,BlinkMacSystemFont,'Segoe UI',sans-serif" text-anchor="end">8</text>
  <line x1="40" y1="100.0" x2="780" y2="100.0"
        stroke="rgba(240,246,252,0.06)" stroke-width="1" stroke-dasharray="3,4"/>
  <text x="36" y="104.0" font-size="9" fill="#7d8590"
        font-family="-apple-system,BlinkMacSystemFont,'Segoe UI',sans-serif" text-anchor="end">5</text>
  <line x1="40" y1="124.0" x2="780" y2="124.0"
        stroke="rgba(240,246,252,0.06)" stroke-width="1" stroke-dasharray="3,4"/>
  <text x="36" y="128.0" font-size="9" fill="#7d8590"
        font-family="-apple-system,BlinkMacSystemFont,'Segoe UI',sans-serif" text-anchor="end">3</text>
  <line x1="40" y1="148.0" x2="780" y2="148.0"
        stroke="rgba(240,246,252,0.06)" stroke-width="1" stroke-dasharray="3,4"/>
  <text x="36" y="152.0" font-size="9" fill="#7d8590"
        font-family="-apple-system,BlinkMacSystemFont,'Segoe UI',sans-serif" text-anchor="end">0</text>
  
  <line x1="40" y1="148" x2="780" y2="148"
        stroke="rgba(240,246,252,0.06)" stroke-width="1"/>

  <!-- Area fill -->
  <path d="M 40.0,148.0 C 44.1,148.0 56.4,148.0 64.7,148.0 C 72.9,148.0 81.1,148.0 89.3,148.0 C 97.6,148.0 105.8,148.0 114.0,148.0 C 122.2,148.0 130.4,148.0 138.7,148.0 C 146.9,148.0 155.1,148.0 163.3,148.0 C 171.6,148.0 179.8,148.0 188.0,148.0 C 196.2,148.0 204.4,148.0 212.7,148.0 C 220.9,148.0 229.1,148.0 237.3,148.0 C 245.6,148.0 253.8,148.0 262.0,148.0 C 270.2,148.0 278.4,148.7 286.7,148.0 C 294.9,147.3 303.1,146.0 311.3,144.1 C 319.6,142.1 327.8,150.6 336.0,136.2 C 344.2,121.7 352.4,71.1 360.7,57.3 C 368.9,43.5 377.1,54.2 385.3,53.3 C 393.6,52.4 401.8,52.2 410.0,52.0 C 418.2,51.8 426.4,52.0 434.7,52.0 C 442.9,52.0 451.1,51.3 459.3,52.0 C 467.6,52.7 475.8,54.0 484.0,55.9 C 492.2,57.9 500.4,54.6 508.7,63.8 C 516.9,73.0 525.1,103.7 533.3,111.2 C 541.6,118.6 549.8,108.8 558.0,108.5 C 566.2,108.3 574.4,109.6 582.7,109.9 C 590.9,110.1 599.1,109.9 607.3,109.9 C 615.6,109.9 623.8,109.9 632.0,109.9 C 640.2,109.9 648.4,110.1 656.7,109.9 C 664.9,109.6 673.1,103.5 681.3,108.5 C 689.6,113.6 697.8,133.8 706.0,140.1 C 714.2,146.4 722.4,145.5 730.7,146.5 C 738.9,147.5 747.1,146.3 755.3,146.2 C 763.6,146.0 775.9,145.8 780.0,145.7 L 780.0,148 L 40.0,148 Z" fill="url(#area-8na3s)"/>

  <!-- Line -->
  <path d="M 40.0,148.0 C 44.1,148.0 56.4,148.0 64.7,148.0 C 72.9,148.0 81.1,148.0 89.3,148.0 C 97.6,148.0 105.8,148.0 114.0,148.0 C 122.2,148.0 130.4,148.0 138.7,148.0 C 146.9,148.0 155.1,148.0 163.3,148.0 C 171.6,148.0 179.8,148.0 188.0,148.0 C 196.2,148.0 204.4,148.0 212.7,148.0 C 220.9,148.0 229.1,148.0 237.3,148.0 C 245.6,148.0 253.8,148.0 262.0,148.0 C 270.2,148.0 278.4,148.7 286.7,148.0 C 294.9,147.3 303.1,146.0 311.3,144.1 C 319.6,142.1 327.8,150.6 336.0,136.2 C 344.2,121.7 352.4,71.1 360.7,57.3 C 368.9,43.5 377.1,54.2 385.3,53.3 C 393.6,52.4 401.8,52.2 410.0,52.0 C 418.2,51.8 426.4,52.0 434.7,52.0 C 442.9,52.0 451.1,51.3 459.3,52.0 C 467.6,52.7 475.8,54.0 484.0,55.9 C 492.2,57.9 500.4,54.6 508.7,63.8 C 516.9,73.0 525.1,103.7 533.3,111.2 C 541.6,118.6 549.8,108.8 558.0,108.5 C 566.2,108.3 574.4,109.6 582.7,109.9 C 590.9,110.1 599.1,109.9 607.3,109.9 C 615.6,109.9 623.8,109.9 632.0,109.9 C 640.2,109.9 648.4,110.1 656.7,109.9 C 664.9,109.6 673.1,103.5 681.3,108.5 C 689.6,113.6 697.8,133.8 706.0,140.1 C 714.2,146.4 722.4,145.5 730.7,146.5 C 738.9,147.5 747.1,146.3 755.3,146.2 C 763.6,146.0 775.9,145.8 780.0,145.7" fill="none"
        stroke="#58a6ff" stroke-width="2"
        stroke-linejoin="round" stroke-linecap="round"
        />

  <!-- Peak dots -->
  
  <circle cx="434.7" cy="52.0" r="3"
          fill="#58a6ff" >
    <title>60 contributions on Fri, Jun 19, 2026</title>
  </circle>
  <circle cx="410.0" cy="52.0" r="3"
          fill="#58a6ff" >
    <title>6 contributions on Thu, Jun 18, 2026</title>
  </circle>
  <circle cx="459.3" cy="52.0" r="3"
          fill="#58a6ff" >
    <title>3 contributions on Sat, Jun 20, 2026</title>
  </circle>

  
  <text x="40.0" y="162"
        font-size="10" fill="#7d8590"
        font-family="-apple-system,BlinkMacSystemFont,'Segoe UI',sans-serif">Jun</text>
  <text x="730.7" y="162"
        font-size="10" fill="#7d8590"
        font-family="-apple-system,BlinkMacSystemFont,'Segoe UI',sans-serif">Jul</text>
  
  <text x="40" y="178"
        font-size="11" font-weight="600" fill="#58a6ff"
        font-family="-apple-system,BlinkMacSystemFont,'Segoe UI',sans-serif">
    103 contributions
  </text>
  <text x="40" y="193"
        font-size="10" fill="#7d8590"
        font-family="-apple-system,BlinkMacSystemFont,'Segoe UI',sans-serif">
    98 commits · 0 PRs · 0 issues · 0 reviews
  </text>
  <text x="780" y="193"
        font-size="10" fill="#7d8590" text-anchor="end"
        font-family="-apple-system,BlinkMacSystemFont,'Segoe UI',sans-serif">
    Updated Jul 3, 2026
  </text>
</svg>